<svg width="136" height="155" viewBox="0 0 136 155" fill="none" xmlns="http://www.w3.org/2000/svg">
<path d="M59.0982 54.4998C56.8916 53.9801 55.0091 55.2973 52.3034 54.871C49.5981 54.4469 49.2491 53.6364 46.1164 53.5769C42.984 53.5185 39.8956 52.7772 38.4899 53.0089C37.0804 53.2406 36.9883 52.2631 35.0071 52.362C33.0117 52.4623 31.8423 52.274 30.1181 51.875C28.4172 51.4688 23.0888 50.9962 21.1639 51.3476C19.2103 51.6858 17.0346 50.9874 15.7026 50.8233C15.2911 50.7719 14.9688 50.7035 14.722 50.6327C14.6175 50.6027 14.5692 50.5402 14.5692 50.4784C14.5692 50.4783 14.5692 50.4783 14.5692 50.4782C14.5693 50.4013 14.6441 50.3256 14.7787 50.316C15.4323 50.2694 16.4139 50.1485 17.5957 49.8836C19.7628 49.3939 20.0226 49.9698 22.9468 49.7834C25.9009 49.607 27.6814 49.1419 31.1287 49.6572C34.5542 50.1817 35.4424 48.7779 40.2624 49.9129C45.0753 51.0621 45.6923 49.5937 50.5609 49.7684C55.4276 49.9472 61.469 51.302 64.3886 51.484C67.3046 51.665 71.2438 51.8317 75.3534 52.3806C79.4661 52.9296 84.6021 52.8466 89.1267 53.5243C93.6451 54.2144 100.069 55.0127 103.037 55.391C105.98 55.775 106.755 55.859 109.589 55.6621C111.28 55.5424 113.466 55.5812 115.445 55.8178C116.398 55.9364 116.222 56.2279 115.266 56.4322C113.809 56.7288 112.686 56.6396 111.918 57.0048C110.498 57.7253 109.813 57.9986 107.959 57.5997C106.089 57.1941 105.19 58.0721 104.108 57.9422C103.034 57.8 103.059 57.3127 97.5295 57.455C91.982 57.5706 88.9871 57.4377 86.8771 57.3852C84.8043 57.3326 80.4902 56.5289 77.0903 56.4095C73.6999 56.295 66.8349 55.5454 64.0517 55.58C61.2599 55.6138 61.3077 55.0207 59.0982 54.4998Z" fill="#213448"/>
<path d="M58.6993 114.293C56.7397 113.973 55.1978 115.445 52.7998 115.209C50.4013 114.966 50.0681 114.183 47.3223 114.27C44.5755 114.353 41.8622 113.658 40.6275 113.893C39.3868 114.127 39.3242 113.155 37.5867 113.227C35.8429 113.292 34.8048 113.062 33.3353 112.584C31.859 112.121 27.3119 111.233 25.5846 111.317C23.851 111.424 22.0719 110.404 20.9757 110.016C20.6327 109.896 20.3691 109.771 20.1712 109.657C20.0873 109.609 20.0588 109.539 20.0716 109.479C20.0716 109.479 20.0716 109.479 20.0716 109.478C20.0876 109.403 20.1676 109.343 20.285 109.358C20.8547 109.429 21.7182 109.48 22.7574 109.393C24.694 109.224 24.7921 109.833 27.3362 109.966C29.8796 110.081 31.4388 109.752 34.353 110.416C37.28 111.058 38.0735 109.693 42.1911 110.781C46.336 111.832 46.8569 110.334 51.0185 110.232C55.1851 110.121 60.4747 110.902 63.0012 110.781C65.5295 110.666 68.9213 110.398 72.5198 110.479C76.1185 110.561 80.5477 109.893 84.543 110.149C88.5345 110.391 94.2023 110.82 96.7978 111.217C99.4017 111.606 100.022 111.702 102.542 111.71C103.987 111.72 105.969 112.035 107.574 112.684C108.367 113.011 108.133 113.247 107.29 113.247C106.041 113.249 105.067 113.009 104.395 113.279C103.068 113.826 102.528 114.038 100.981 113.533C99.4104 113.034 98.6301 113.907 97.7047 113.768C96.7805 113.643 96.8084 113.059 92.0786 113.446C87.3534 113.864 84.7491 114.064 82.9546 114.207C81.1664 114.354 77.3805 114.019 74.4443 114.286C71.5109 114.556 65.5094 114.581 63.0911 114.89C60.6797 115.204 60.6492 114.608 58.6993 114.293ZM46.5218 74.2874C46.7199 74.0074 45.5615 74.9137 45.6548 74.7038C45.7463 74.4918 46.3262 73.9708 46.1168 73.9971C45.9079 74.024 46.2311 73.5839 45.9564 73.7564C45.6815 73.9288 46.4044 73.2842 46.1939 73.3707C45.9834 73.457 46.0476 73.3387 46.2403 73.0815C46.4322 72.8231 46.4979 72.4922 46.1603 72.6947C45.8216 72.8958 46.2679 72.3881 46.352 72.2433C46.3783 72.1984 46.4204 72.1437 46.4666 72.0895C46.4861 72.0664 46.5315 72.0233 46.5776 71.9821C46.5776 71.9821 46.5777 71.9821 46.5777 71.982C46.6351 71.9308 46.6935 71.8826 46.7043 71.88C46.7566 71.8678 46.875 71.8135 47.113 71.661C47.556 71.3761 47.1347 71.7674 47.4088 71.6734C47.6843 71.5809 48.1296 71.2774 47.96 71.6074C47.7893 71.9363 48.8964 71.0048 48.4061 71.689C47.9149 72.3724 49.0668 71.3918 49.3474 71.4085C49.6277 71.4251 49.1545 72.1567 49.2821 72.2008C49.4104 72.2455 49.6493 72.2564 49.6026 72.5138C49.5549 72.7698 50.079 72.6161 49.9169 72.9846C49.7546 73.3524 49.5571 73.831 49.3895 74.1072C49.2223 74.3839 49.1849 74.447 49.3989 74.4235C49.522 74.4101 49.4964 74.541 49.2314 74.8358C49.0982 74.9844 48.8758 75.1426 48.7492 75.1918C48.5642 75.264 48.6387 75.1514 48.3506 75.3359C47.7752 75.7053 47.5536 75.8459 47.8262 75.5495C48.0982 75.2524 47.3639 75.7763 47.4217 75.6813C47.4796 75.5866 47.8999 75.2605 47.4515 75.3513C47.0041 75.4439 46.8557 75.4257 46.7321 75.4285C46.6093 75.4322 46.8701 75.0205 46.663 75.0306C46.4574 75.042 46.4148 74.7524 46.1412 74.8512C45.8684 74.9508 46.3219 74.5656 46.5218 74.2874Z" fill="#213448"/>
<path d="M54.2045 99.1843C54.1681 98.8361 53.6976 100.234 53.5681 99.9775C53.4545 99.7237 53.6962 98.9824 53.4798 99.0882C53.2511 99.1878 53.3251 98.6352 53.1291 98.8966C52.927 99.1551 53.3433 98.2809 53.1692 98.4341C52.9921 98.5853 52.9973 98.4447 53.0851 98.1338C53.1683 97.8211 53.1333 97.4891 52.866 97.7779C52.5956 98.0656 52.878 97.4499 52.9246 97.2905C52.9384 97.2404 52.9651 97.1768 52.9959 97.1126C53.0089 97.0854 53.0416 97.0319 53.0754 96.9802C53.0754 96.9802 53.0754 96.9801 53.0754 96.9801C53.1175 96.9157 53.1612 96.8538 53.1706 96.8483C53.2162 96.8218 53.3141 96.7368 53.497 96.5224C53.8357 96.1211 53.5371 96.6128 53.7591 96.4349C53.9804 96.2558 54.2833 95.8139 54.1994 96.1619C54.1305 96.5167 54.7916 95.2314 54.5304 96.0138C54.307 96.8116 54.918 95.4252 55.0059 95.2423C55.0832 95.0573 54.926 95.8773 54.9908 95.8177C55.0379 95.7543 55.0756 95.5817 55.1247 95.7818C55.1919 95.9816 55.233 95.4752 55.3618 95.8171C55.4965 96.1599 55.7714 96.5654 55.9346 96.8366C56.0968 97.1087 56.1426 97.1674 56.1903 96.9651C56.2182 96.8485 56.3149 96.9259 56.4869 97.2819C56.5736 97.4611 56.6414 97.7255 56.6409 97.8612C56.6398 98.0598 56.5644 97.9481 56.6252 98.2848C56.745 98.9582 56.7802 99.2193 56.608 98.8537C56.4376 98.4875 56.6152 99.3716 56.5422 99.2822C56.4679 99.1922 56.3637 98.6738 56.2056 99.1234C56.0356 99.5737 55.8782 99.699 55.7794 99.8095C55.6722 99.9213 55.3996 99.482 55.2138 99.6502C55.0165 99.8243 54.6039 99.6445 54.3887 99.8832C54.1643 100.124 54.2578 99.5349 54.2045 99.1843Z" fill="#213448"/>
<path d="M83.0337 83.016C82.6185 84.2382 83.9876 85.4103 83.4868 87.0033C82.9527 88.5708 82.1583 88.6003 81.7477 90.3827C81.3026 92.2011 79.9375 93.5734 79.7886 94.4162C79.624 95.2826 78.7775 94.827 78.2911 95.8623C77.7822 96.8991 77.2278 97.3485 76.3323 97.8523C75.457 98.3858 73.1118 100.125 72.4791 101.054C71.8681 102.016 70.4515 102.177 69.7754 102.428C69.5596 102.51 69.372 102.55 69.218 102.564C69.1527 102.571 69.0963 102.532 69.0632 102.48C69.0631 102.48 69.0631 102.48 69.0631 102.48C69.0218 102.415 69.0164 102.329 69.0738 102.281C69.3565 102.044 69.7183 101.66 70.082 101.07C70.7148 99.9871 71.173 100.382 72.2197 99.2052C73.2483 98.0056 73.5453 97.0293 74.9911 95.9643C76.4217 94.8206 75.5398 93.7057 77.4462 92.0703C79.3027 90.2507 78.0093 89.3586 78.4072 87.1036C78.7828 84.8328 79.7412 81.7616 79.6645 80.2007C79.6616 80.1315 79.6584 80.0611 79.6549 79.9896C79.5936 78.8434 78.9981 77.4191 78.0679 75.8158C77.0939 74.0911 74.8355 72.7572 73.119 71.1982C71.4103 69.5812 68.5314 67.7094 67.1434 66.8901C65.7673 66.0597 65.3948 65.8668 63.8756 65.6552C62.9994 65.5414 61.8682 65.213 60.8824 64.7371C60.3911 64.502 60.5082 64.2333 61.0611 64.1519C61.8735 64.0405 62.4873 64.283 62.9623 64.0285C63.8942 63.5234 64.3477 63.3583 65.2491 64.0233C66.1382 64.6949 66.8773 64.0026 67.4314 64.3095C67.9709 64.6407 67.7931 65.0318 70.7675 65.9573C73.7396 66.9519 75.2427 67.8941 76.2832 68.5106C77.34 69.1367 79.0165 71.0866 80.4352 72.5608C81.9148 73.8528 83.7356 77.7738 83.7414 79.9896C83.7517 80.066 83.7626 80.1383 83.7743 80.2063C84.0318 81.7733 83.4333 81.7754 83.0337 83.016Z" fill="#213448"/>
<path d="M128.667 22.371C122.397 21.618 117.212 22.7225 109.618 21.9867C101.951 21.245 100.839 20.3854 92.0295 19.9548C83.1927 19.5225 74.4491 18.4008 70.5095 18.4606C66.5651 18.5202 66.2221 17.5259 60.6379 17.3777C55.0702 17.2322 51.7066 16.8918 46.8454 16.2743C42.0001 15.6498 27.0262 14.5006 21.5885 14.6349C16.1204 14.7518 10.0041 13.8149 6.2055 13.652C5.91748 13.6395 5.66242 13.6275 5.4349 13.6157C5.21862 13.6036 4.86809 13.595 4.64687 13.5864C4.16247 13.5722 3.89109 13.5466 3.43669 13.5647C3.14591 13.574 3.09223 13.538 3.06583 13.4788C3.06582 13.4788 3.06581 13.4788 3.0658 13.4787C3.04928 13.4067 3.1218 13.2865 3.57788 13.2297C5.56228 13.0281 8.21063 12.9854 11.5192 12.8043C17.6657 12.5074 18.334 13.1186 26.5768 13.2789C34.8337 13.459 39.8231 13.2222 49.5062 14.171C59.1845 15.1289 61.4994 13.8266 75.1291 15.5568C88.7691 17.2971 90.2755 15.887 103.952 16.6321C112.764 17.1036 123.532 18.2078 131.569 18.9135C133.07 18.9095 134.144 19.9789 134.568 20.6911C135.044 21.4555 135.239 22.1337 135.385 22.7824C135.654 24.073 135.641 25.2339 135.509 26.3406C135.227 28.5227 134.4 30.58 132.787 31.9512C132.512 32.1755 132.317 32.2595 132.143 32.3365C122.714 34.1063 112.428 34.0534 100.519 34.2682C88.8309 34.339 74.4148 35.0008 61.5158 34.6527C48.6093 34.328 30.413 33.6553 21.9519 33.0216C13.7181 32.1661 11.7568 33.0305 3.58466 30.8358C3.49535 30.7164 3.40334 30.5851 3.31292 30.4488C1.02608 26.409 -1.75489 19.4338 1.45141 14.3054C2.53135 13.2733 3.22541 13.4977 3.07298 13.595C2.97284 13.7555 2.15268 14.0291 1.593 15.1559C0.293257 18.6593 1.4035 22.1451 2.13886 23.9446C3.32251 26.3967 4.20625 27.9353 5.30146 29.6096C5.057 29.2967 4.95955 29.3155 5.0001 29.324C5.01611 29.3325 5.0726 29.3556 5.12758 29.3747C5.16256 29.3876 5.20386 29.4019 5.25117 29.4173C5.44085 29.4792 5.72453 29.5565 6.10436 29.6406C6.60934 29.7653 7.4577 29.9298 8.22875 30.0788C13.2021 30.9732 15.9589 30.1349 18.8276 30.3792C21.9214 30.5849 21.7833 31.2279 37.2338 31.0926C52.6817 30.8983 61.17 30.7356 67.008 30.6266C72.8494 30.5124 85.0907 30.874 94.6069 30.5213C103.945 30.1524 124.215 29.9549 130.573 28.5389C130.536 28.5545 130.428 28.5705 130.151 28.7874C132.284 26.1847 130.898 22.5029 131.569 22.7382C131.465 22.7291 131.386 22.7168 131.264 22.7026C131.161 22.6894 130.937 22.6685 130.856 22.6552C130.686 22.6283 130.48 22.599 130.228 22.5668C129.63 22.4962 129.263 22.4402 128.667 22.371Z" fill="#213448"/>
<path d="M55.954 7.48212C53.1084 6.84626 50.6488 8.06267 47.1666 7.48218C43.6405 6.89656 43.2047 6.06618 39.159 5.80766C35.0753 5.54481 31.1061 4.57766 29.29 4.70172C27.3911 4.81679 27.4377 3.84799 24.7781 3.77241C22.2428 3.70989 20.6905 3.41088 18.4663 2.84484C17.1352 2.48757 13.7716 1.95359 10.9689 1.56419C10.6812 1.52193 10.5797 1.56943 10.4511 1.72409C10.3226 1.88666 10.2303 2.18702 10.1903 2.47225C10.1071 3.06495 10.164 3.64135 10.2461 4.06424C10.7232 6.39326 10.729 9.27537 10.9994 10.9815C11.085 11.5094 11.1325 11.9361 11.153 12.2647C11.1608 12.4005 11.1227 12.4918 11.0585 12.4928C11.0585 12.4928 11.0585 12.4928 11.0584 12.4928C10.9913 12.5373 10.8819 12.4344 10.8277 12.2789C10.5497 11.469 10.0994 10.2599 9.50909 8.82498C8.96319 7.48523 8.8499 6.68042 8.77916 5.75032C8.77975 4.78714 8.46986 3.85742 8.92973 1.56336C9.05751 1.16522 9.26807 0.711865 9.74013 0.367003C10.221 0.0185785 10.7972 -0.0359925 11.2391 0.0179321C13.9295 0.107609 16.2336 0.0210413 19.9109 0.727648C24.3393 1.56773 25.4357 0.233543 31.6432 1.73389C37.8432 3.23056 38.6396 1.79451 44.9257 2.26605C51.1966 2.73547 59.0052 4.40149 62.78 4.72911C66.5556 5.05729 71.6277 5.41229 76.9584 6.16697C82.2861 6.92151 88.9326 7.10009 94.7965 8.05212C100.677 9.008 108.931 10.2767 112.746 10.9356C116.587 11.5931 117.613 11.7732 121.249 11.8574C121.381 11.8556 121.753 11.87 121.953 11.8722C122.064 11.8741 122.16 11.8748 122.239 11.8745C122.248 11.8739 122.398 11.8749 122.43 11.8716C122.449 11.8709 122.457 11.8667 122.41 11.8753C122.385 11.8823 122.347 11.884 122.245 11.9385C122.195 11.9682 122.121 12.0135 122.041 12.125C121.96 12.2315 121.901 12.4356 121.935 12.5993L123.213 12.4896C123.228 14.4165 123.102 16.6937 122.792 18.6798C122.596 19.934 122.323 19.6498 122.192 18.3874C122.001 16.5413 122.129 15.0258 121.788 14.0746C121.569 13.4629 121.393 12.9644 121.268 12.4896L123.851 12.2679C123.924 12.6096 123.8 13.0359 123.63 13.256C123.463 13.4868 123.308 13.5817 123.2 13.6462C122.983 13.7653 122.888 13.779 122.808 13.8027C122.658 13.8394 122.591 13.8475 122.515 13.8593C122.376 13.8801 122.207 13.8891 122.189 13.9016C122.083 13.9247 121.965 13.9421 121.831 13.9537C121.697 13.9653 121.547 13.9712 121.376 13.9708C121.193 13.9696 121.13 13.9714 120.991 13.964C120.499 13.9386 119.722 13.8198 119.007 13.6255C116.605 13.0261 115.363 13.8128 114.038 13.587C112.614 13.3478 112.719 12.8347 105.55 12.5454C98.4654 12.2588 94.5646 11.9636 91.8617 11.7883C89.1854 11.6152 83.6019 10.5786 79.2315 10.2927C74.8518 10.0073 65.9729 8.92473 62.3695 8.81841C58.7483 8.71081 58.8332 8.12121 55.954 7.48212Z" fill="#213448"/>
<path d="M45.5437 153.195C40.62 152.477 36.3716 152.648 31.2569 152.296L32.2013 152.23C31.261 152.507 30.4031 152.126 30.0292 151.848C29.9127 151.765 29.8702 151.728 29.8213 151.688C29.7733 151.648 29.7291 151.609 29.6879 151.57C29.6055 151.493 29.535 151.419 29.4714 151.348C29.3448 151.205 29.2452 151.072 29.1552 150.942C29.0945 150.856 29.039 150.772 28.9857 150.687C28.8813 150.522 28.7774 150.335 28.6943 150.177C28.6222 150.043 28.5517 149.903 28.4818 149.757C28.3336 149.445 28.2241 149.197 28.1086 148.92C28.051 148.781 27.9932 148.638 27.9351 148.488C27.8836 148.357 27.8344 148.229 27.7838 148.094C27.3669 146.969 27.0336 145.881 26.7135 144.66C24.6574 136.321 25.1766 134.923 22.9134 125.466C22.3398 122.999 21.8313 120.508 21.395 118.107C21.1758 116.898 20.9765 115.725 20.7981 114.554C20.7143 113.998 20.6281 113.4 20.5575 112.821C20.5199 112.51 20.4932 112.271 20.4636 111.926C20.4507 111.76 20.4431 111.669 20.4346 111.427C20.4318 111.323 20.4315 111.223 20.4369 111.113C20.4398 111.08 20.4408 110.951 20.4783 110.756C20.5506 110.573 20.4764 110.233 21.1858 109.672C20.865 109.85 20.5157 110.449 20.5438 110.868C20.5525 111.263 20.645 111.389 20.6811 111.476C20.7632 111.626 20.7746 111.615 20.7676 111.609C20.7516 111.585 20.662 111.495 20.5759 111.42C20.3901 111.255 20.1592 111.076 19.9261 110.904C19.4569 110.559 18.9665 110.231 18.4898 109.924C17.5363 109.311 16.6112 108.766 15.8129 108.329L15.0968 107.94L15.0333 107.078C14.9668 106.182 14.8931 105.404 14.8071 104.758C14.2418 100.477 15.1803 99.9578 14.6273 93.8657C14.0773 87.7723 14.0079 84.0548 14.054 78.6939C14.0851 73.3311 13.63 56.9 13.028 50.9379C12.4097 44.9695 12.84 38.1479 12.8583 34.0363C12.8635 32.7449 12.8981 31.7631 12.9421 30.9772C12.9608 30.6468 13.0182 30.4914 13.08 30.4892C13.08 30.4892 13.0801 30.4892 13.0801 30.4892C13.157 30.4866 13.2406 30.7218 13.2647 31.144C13.3807 33.173 13.6094 36.22 14.0158 39.7994C14.7772 46.463 14.2242 47.2373 14.8513 56.2601C15.4898 65.2945 16.2634 70.6965 16.4555 81.3437C16.6493 91.369 18.0619 94.052 18.262 106.892L17.4023 105.512C18.1044 105.95 18.8153 106.416 19.5623 106.931C20.2506 107.407 20.9044 107.869 21.5323 108.346C21.8472 108.586 22.1534 108.827 22.4726 109.11C22.6314 109.253 22.7932 109.4 22.9833 109.618C23.0856 109.741 23.1895 109.854 23.3327 110.128C23.3963 110.269 23.509 110.465 23.5168 110.886C23.5431 111.34 23.1967 111.937 22.84 112.141C25.1993 120.16 26.4352 124.587 29.8024 136.988C30.3328 139.005 30.8804 141.097 31.4681 143.184C31.7654 144.236 32.0687 145.275 32.3998 146.287C32.5582 146.771 32.7374 147.286 32.9088 147.712C33.0014 147.941 33.0777 148.114 33.1485 148.251C33.1714 148.3 33.2099 148.351 33.1437 148.267C33.1068 148.223 33.0418 148.143 32.8885 148.02C32.6781 147.839 31.8944 147.364 30.9066 147.645L31.8951 147.575C43.3103 149.333 54.7479 150.664 61.1891 150.735C70.1347 150.966 82.1158 150.202 94.7922 148.865C96.9151 148.649 99.0609 148.396 101.324 148.104L99.6915 149.685C101.525 138.427 103.301 125.589 105.482 113.997C105.563 113.567 105.645 113.131 105.728 112.691L106.077 111.871C107.553 110.002 109.117 108.019 110.724 105.981L110.388 106.958C110.888 94.2272 112.01 79.8326 112.952 72.4443C114.104 63.2616 114.446 61.0452 115.435 52.1959C116.018 47.1186 117.182 40.1694 118.534 34.3655C119.217 31.436 119.37 32.1699 119.014 35.1447C118.491 39.5249 117.815 43.0754 117.818 45.3609C117.829 49.9472 117.808 51.8712 116.689 57.4792C115.589 63.0896 116.215 65.8702 115.786 69.1587C115.427 72.4567 114.63 72.3406 114.132 89.2494C113.971 96.4359 113.957 102.211 113.951 107.025L113.949 107.603L113.575 108.119C111.92 110.411 110.467 112.415 109.174 114.194L109.55 113.311C109.133 116.152 108.781 118.527 108.478 120.599C107.552 126.918 104.975 139.965 103.46 150.296L103.258 151.679L101.816 151.89C101.753 151.899 101.691 151.908 101.629 151.917C91.2823 153.623 69.8212 155.133 61.1258 154.845C52.4458 154.8 52.4585 154.135 45.5437 153.195Z" fill="#213448"/>
</svg>
