<svg width="315" height="415" viewBox="0 0 315 415" fill="none" xmlns="http://www.w3.org/2000/svg">
<path d="M6.44453 250.491C6.16941 259.863 8.65243 267.214 8.72177 278.614C8.80628 290.037 7.66403 291.792 8.4827 304.868C9.30909 317.938 9.13905 331.064 9.93379 336.851C10.7287 342.621 9.267 343.382 10.047 351.583C10.69 358.372 10.8641 362.747 10.8851 368.204L9.37234 366.575C10.6294 366.813 11.87 367.056 13.2429 367.318C20.2899 368.978 42.5247 370.6 50.3859 368.386C58.2227 366.831 67.2956 365.493 72.6895 364.096C74.3488 363.674 75.6836 363.36 76.7097 363.145C77.147 363.052 77.3744 363.08 77.4039 363.171C77.4039 363.171 77.4039 363.171 77.4039 363.171C77.4407 363.284 77.1702 363.495 76.6312 363.684C74.0206 364.595 70.1598 366.005 65.5111 367.639C56.7933 370.486 55.6386 370.119 43.3482 371.547C30.9944 372.545 23.3812 372.653 9.07192 370.313C9.00757 370.302 8.94336 370.291 8.8793 370.28L7.21822 370.029L7.15353 368.422C6.83716 354.082 4.42503 350.901 4.65568 330.55C4.93525 310.128 2.5031 308.143 1.40129 287.83C0.307538 267.59 0.961694 241.873 0.654982 229.651C0.324631 217.418 -0.151421 200.981 0.0936403 183.633C0.328938 166.273 -0.380235 144.877 0.313644 125.733C0.998841 106.607 1.98392 79.5573 2.58232 67.071C2.97325 58.8498 3.16623 54.8649 3.21167 49.5527L3.23075 49.3894C3.86448 46.6363 4.51906 43.5815 5.94044 39.5394C7.1291 36.2504 9.05953 32.2554 12.5457 29.3491C16.0083 26.412 20.5584 25.1916 24.5318 24.6274C28.5811 24.1241 27.7138 24.6745 23.8233 25.7401C18.1223 27.2636 13.956 29.8148 12.4894 32.3993C9.72986 37.5335 9.39824 39.8668 6.73419 46.9488C6.36228 48.0144 6.07632 49.0124 5.84365 49.9793L5.89017 49.581C5.7506 55.3052 6.70448 58.4463 6.52704 62.3035C6.31921 66.8575 5.49384 66.7501 5.8911 89.716C6.29226 112.645 6.3637 125.28 6.46117 133.939C6.55547 142.631 5.76154 160.784 6.04903 174.945C6.29817 189.098 6.34046 217.888 7.0042 229.472C7.64432 241.064 6.73188 241.112 6.44453 250.491Z" fill="#213448"/>
<path d="M24.8071 401.171C26.3209 401.947 27.8356 399.856 29.7025 400.351C31.5985 400.83 31.821 402.054 34.1006 401.877C36.3612 401.689 38.6354 402.497 39.6486 401.985C40.6487 401.472 40.7929 402.969 42.232 402.589C43.6671 402.203 44.5428 402.354 45.8439 402.762C47.1367 403.184 51.1004 403.267 52.4471 402.504C53.7975 401.758 55.5105 402.585 56.5334 402.69C56.8463 402.724 57.097 402.794 57.2932 402.875C57.3762 402.91 57.4254 403.001 57.4393 403.095C57.4393 403.095 57.4393 403.095 57.4393 403.095C57.4565 403.213 57.4186 403.337 57.322 403.366C56.8581 403.507 56.1415 403.802 55.346 404.338C53.8288 405.338 53.5509 404.481 51.4186 405.116C49.2813 405.738 48.0088 406.674 45.3869 406.295C42.7837 405.894 42.2515 408.175 38.5374 406.95C34.8688 405.675 34.4621 408.014 30.6785 408.099C26.875 408.184 22.2812 406.141 20.0094 405.59C17.7408 405.034 14.3561 404.455 11.4311 401.347C10.3787 400.174 9.22752 398.568 8.77705 396.583C8.23956 394.435 7.67851 392.131 7.75533 389.903C7.82575 386.323 8.4372 381.318 9.08224 379.098C9.69988 376.867 9.86404 376.359 9.88618 374.171C9.90588 372.915 10.3747 371.235 11.2795 369.971C11.736 369.333 12.1069 369.595 12.147 370.336C12.2082 371.42 11.8555 372.221 12.2786 372.843C13.1303 374.079 13.46 374.548 12.679 375.777C11.9051 377.025 13.2416 377.786 13.023 378.522C12.8341 379.261 11.8977 379.226 12.5404 383.138C13.2592 387.016 13.7525 389.084 14.0934 390.529C14.3484 391.569 14.3147 393.515 14.5966 395.419C14.6291 395.779 14.7704 396.114 15.0298 396.38C15.6391 397.404 19.6708 399.485 21.6438 399.452C23.5361 399.499 23.3404 400.379 24.8071 401.171Z" fill="#213448"/>
<path d="M93.1891 408.199C105.636 408.91 115.51 406.755 130.679 407.185C145.912 407.597 148.096 408.816 165.518 408.543C182.902 408.262 200.319 408.919 208.038 408.316C215.811 407.711 216.546 409.209 227.614 408.656C238.544 408.089 245.333 408.095 254.831 408.238C264.411 408.42 294.176 407.432 304.521 404.726C305.264 404.548 305.966 404.374 306.619 404.204C307.463 403.992 308.266 403.771 308.939 403.56C309.279 403.453 309.588 403.35 309.878 403.244C310.311 403.089 310.678 402.935 310.969 402.791C311.267 402.642 311.45 402.533 311.626 402.396C311.854 402.202 311.695 402.271 311.714 402.506C311.399 394.65 311.364 386.908 310.988 381.685C310.819 379.404 310.707 377.59 310.546 376.243C310.475 375.655 310.453 375.432 310.513 375.377C310.513 375.377 310.513 375.377 310.513 375.377C310.55 375.322 310.695 375.404 310.802 375.609C310.904 375.776 311.013 376.098 311.087 376.455C311.781 380.096 312.446 385.513 313.373 391.943C314.012 396.465 314.252 399.489 314.388 402.365C314.505 403.736 313.059 404.702 312.764 404.852C312.215 405.179 311.568 405.454 310.78 405.722C309.757 406.063 308.277 406.427 306.782 406.723C304.015 407.271 300.288 407.841 295.22 408.516C278.995 410.528 269.145 411.74 250.029 411.909C230.846 411.955 226.487 414.31 199.387 413.37C172.329 412.33 169.489 414.659 142.52 414.898C115.515 415.107 81.5605 413.363 65.2452 412.902C64.9729 412.894 64.7059 412.887 64.4444 412.879C64.0956 412.869 63.7521 412.858 63.4229 412.847C62.7635 412.825 62.1501 412.804 61.5882 412.782C61.4477 412.777 61.3104 412.771 61.1764 412.766C61.0326 412.76 60.9492 412.757 60.7123 412.746C60.3108 412.728 59.945 412.709 59.6153 412.691C59.2854 412.672 58.9921 412.654 58.7314 412.634C58.695 412.633 58.2398 412.595 57.9728 412.558C57.8192 412.537 57.6783 412.518 57.4433 412.462C57.3207 412.43 57.1797 412.397 56.9129 412.284C56.6638 412.117 56.1566 412.135 55.3995 410.858C55.115 410.248 55.1153 410.022 55.0661 409.789C55.044 409.654 55.0291 409.534 55.0167 409.415C54.9902 409.15 54.983 409.018 54.9725 408.833C54.9526 408.431 54.9472 408.199 54.9414 407.84C54.9323 407.249 54.9351 406.633 54.9427 406.02C54.9585 404.802 54.9914 403.621 55.0332 402.393C55.1179 399.942 55.2352 397.454 55.3773 394.889C55.52 392.327 55.6864 389.709 55.8908 387.026C55.9939 385.68 56.1052 384.329 56.2383 382.947C56.3057 382.253 56.3743 381.583 56.4647 380.836C56.5049 380.506 56.5571 380.102 56.6172 379.717C56.6546 379.483 56.6732 379.36 56.7358 379.051C56.7668 378.904 56.7888 378.8 56.8461 378.593C56.8872 378.451 56.9325 378.297 57.0343 378.059C57.0604 377.999 57.0908 377.934 57.1289 377.859C57.148 377.822 57.1691 377.782 57.1929 377.74C57.2295 377.678 57.1987 377.72 57.3285 377.519C57.5478 377.235 57.8483 376.673 58.9883 376.248C59.5457 376.052 60.3204 376.027 60.9344 376.229C61.5561 376.424 61.9779 376.755 62.2443 377.021C61.7178 376.519 61.4196 376.432 61.2145 376.335C61.011 376.253 60.8915 376.223 60.7986 376.198C60.6182 376.154 60.5443 376.146 60.4883 376.138C60.3849 376.125 60.3776 376.126 60.3882 376.127C60.4166 376.129 60.547 376.134 60.7266 376.138C60.8374 376.141 60.8753 376.141 60.9122 376.142C60.9513 376.143 60.9922 376.143 61.0348 376.144C61.1201 376.145 61.2122 376.146 61.311 376.147C61.7062 376.151 62.2066 376.153 62.804 376.154C63.6501 376.154 64.4964 376.152 65.5667 376.147C67.5174 376.138 69.3332 376.127 71.3794 376.114C75.1223 376.093 79.0249 376.076 83.2123 376.068C106.071 376.037 134.631 374.745 159.992 374.842C185.406 374.936 221.34 374.98 237.968 375.156C254.59 375.332 258.592 375.366 274.611 374.82C283.806 374.515 296.372 374.449 307.115 374.991C310.014 375.118 310.799 375.404 310.439 375.533C310.452 375.582 310.424 375.607 310.11 375.636C309.617 375.661 309.54 375.702 309.157 375.734C308.802 375.767 308.313 375.799 307.612 375.831C307.154 375.863 306.621 375.893 305.935 375.922C297.765 376.275 291.692 376.181 287.324 376.768C279.419 377.939 275.663 378.403 265.526 377.957C255.214 377.516 250.407 378.994 244.386 378.938C238.333 378.884 238.524 378.054 207.975 379.235C177.528 380.416 160.768 380.881 149.255 381.238C137.706 381.595 113.659 381.311 94.7217 381.87C90.453 381.998 85.0759 382.116 78.8893 382.224C78.1581 382.236 77.437 382.249 76.7288 382.26C75.9197 382.273 75.0892 382.286 74.3016 382.298C72.6465 382.323 71.4718 382.341 69.5933 382.364C67.8482 382.385 66.6442 382.4 64.7314 382.414C64.3155 382.417 63.9245 382.42 63.559 382.421C63.3763 382.422 63.2 382.423 63.0302 382.424C62.9617 382.424 62.8222 382.424 62.6938 382.425C62.5653 382.425 62.4409 382.425 62.3209 382.425C61.8403 382.425 61.4271 382.423 61.0799 382.42C60.993 382.419 60.9103 382.418 60.8315 382.417C60.7853 382.416 60.7759 382.416 60.696 382.415C60.5934 382.413 60.4981 382.411 60.4087 382.408C60.2284 382.403 60.0812 382.397 59.9118 382.385C59.8232 382.378 59.7366 382.372 59.5705 382.347C59.4834 382.332 59.3813 382.318 59.1797 382.262C58.9617 382.16 58.7069 382.256 57.8058 381.459C58.061 381.714 58.4712 382.037 59.0805 382.226C59.6821 382.423 60.4416 382.394 60.982 382.2C62.087 381.781 62.358 381.247 62.5526 380.998C62.6013 380.925 62.6279 380.879 62.6345 380.868C62.6459 380.848 62.6566 380.83 62.6666 380.812C62.6865 380.776 62.7038 380.744 62.7191 380.714C62.7496 380.654 62.7724 380.604 62.7909 380.562C62.8624 380.394 62.8772 380.33 62.8871 380.299C62.8977 380.261 62.8904 380.286 62.882 380.328C62.86 380.438 62.8438 380.534 62.819 380.694C62.7766 380.968 62.7308 381.32 62.6953 381.616C62.6149 382.286 62.549 382.931 62.4836 383.608C62.3546 384.953 62.2429 386.303 62.1389 387.651C61.9315 390.351 61.7594 393 61.6134 395.573C61.4684 398.143 61.35 400.635 61.2729 402.971C61.2344 404.15 61.2063 405.283 61.1979 406.357C61.1937 406.908 61.1949 407.431 61.2064 407.912C61.2127 408.17 61.2208 408.379 61.2346 408.588C61.2407 408.676 61.249 408.767 61.2549 408.805C61.2571 408.819 61.2598 408.825 61.2531 408.78C61.2308 408.705 61.2562 408.592 61.0073 408.054C60.6009 407.279 60.1784 407.001 59.9203 406.814C59.6516 406.635 59.4809 406.563 59.3513 406.508C59.0975 406.406 58.9948 406.387 58.9221 406.368C58.7882 406.337 58.8011 406.343 58.8461 406.347C58.8948 406.352 58.991 406.361 59.1169 406.372C59.2248 406.38 59.2356 406.38 59.3005 406.384C59.5227 406.398 59.8014 406.412 60.1231 406.427C60.445 406.442 60.8104 406.457 61.2113 406.472C61.4737 406.48 61.7307 406.487 62.0066 406.494C62.5552 406.508 63.1439 406.52 63.7556 406.531C64.06 406.537 64.3777 406.543 64.6842 406.547C64.9185 406.549 65.1535 406.551 65.3881 406.552C80.8482 406.596 80.6834 407.457 93.1891 408.199ZM50.2086 27.6629C61.4647 26.6596 69.9898 23.2644 83.7185 22.0097C97.4598 20.8129 99.6171 21.7524 115.322 20.1268C123.908 19.2719 132.587 18.9091 139.781 18.7945L139.747 18.7959C145.682 18.6132 150.664 18.3816 153.8 17.9775C160.757 17.0775 161.567 18.5215 171.484 17.5736C181.391 16.6316 187.439 16.4674 196.169 16.6131C204.919 16.556 231.647 17.157 241.398 17.3181C251.165 17.2496 262.176 19.2418 268.78 20.1422C270.8 20.4164 272.425 20.6875 273.678 20.9267C274.209 21.0281 274.449 21.1505 274.439 21.2455C274.439 21.2456 274.439 21.2456 274.439 21.2457C274.427 21.364 274.028 21.4398 273.339 21.3838C270.007 21.1142 265.136 20.8217 259.24 20.7524C248.386 20.6956 247.196 19.6326 232.529 19.3917C217.84 19.3003 209.073 20.1053 191.82 20.2967C174.542 20.5847 170.706 23.2939 146.211 23.3524C143.912 23.3547 141.923 23.3656 139.96 23.3968L139.929 23.3981C121.141 23.6156 117.131 25.9807 95.2384 28.4406C73.8211 30.9432 47.2226 33.5115 31.4816 35.7401L28.6637 36.1267L28.1427 33.4216C27.7423 31.332 27.4627 29.519 27.2218 27.8337C26.9349 25.7829 26.6857 23.6231 26.617 21.2656C26.5887 20.0802 26.5962 18.8635 26.7684 17.49C27.0654 16.1233 26.8816 14.562 29.129 12.4058C43.3874 6.86032 56.5297 5.93275 71.9418 3.64604C81.0862 2.50099 91.1544 1.15718 101.611 0.176532L101.837 0.165783C115.118 -0.0687456 128.833 -0.150949 141.746 0.585073C163.678 1.58845 193.938 5.68812 209.576 8.35462L209.451 8.34396C210.314 8.40023 211.123 8.45467 211.879 8.50703C226.857 9.59653 230.512 9.79325 244.962 10.6433C253.003 11.5618 265.471 11.3246 273.248 18.255C274.805 20.3382 274.421 21.497 274.276 21.2181C274.03 21.0128 273.656 19.5326 271.797 18.1574C265.984 14.5942 259.78 14.2186 256.172 14.0418C248.78 14.109 245.729 14.2652 236.511 13.0031C227.264 11.7997 222.867 13.0266 217.455 12.6272C214.762 12.4348 213.47 12.1353 209.323 11.8354L209.111 11.8173C205.076 11.144 198.257 10.118 184.583 8.91796C157.201 6.60659 142.187 6.64706 131.778 6.53676C125.099 6.50157 113.716 6.17655 101.898 6.17509L102.12 6.16453C95.6488 6.64382 89.0418 7.35571 83.0564 8.19731C70.7564 9.98044 45.7489 13.2481 33.0371 17.2907C33.4099 16.9494 33.2215 17.0489 33.1567 17.3522C33.0673 17.6559 32.9923 18.0868 32.9457 18.5524C32.8524 19.4835 32.8568 20.5199 32.9027 21.5067C32.9992 23.4931 33.2492 25.3478 33.5066 26.9131C33.8424 28.9276 34.1872 30.7083 34.4756 32.1022L30.5052 29.3452C39.0403 28.0317 40.7268 28.5286 50.2086 27.6629Z" fill="#213448"/>
<path d="M191.842 171.934C201.825 171.686 209.507 168.781 221.302 166.991C229.259 165.616 233.072 165.328 237.625 163.184C239.795 161.995 242.265 160.277 245.093 157.295C254.256 147.588 260.029 134.648 261.525 128.785C262.334 125.528 263.152 123.895 263.968 121.843L263.928 122.076C264.389 120.184 264.867 117.92 265.149 113.995C265.772 105.179 266.489 99.8417 267.62 92.1873C268.877 84.5242 270.485 60.7704 269.912 52.1016C269.476 43.4488 270.513 33.5718 270.735 27.6453C270.804 25.7715 270.902 24.3503 271.004 23.2165C271.048 22.7392 271.143 22.5165 271.239 22.5159C271.239 22.5159 271.239 22.5159 271.239 22.5159C271.358 22.5151 271.477 22.8588 271.495 23.4708C271.584 26.4025 271.798 30.8392 272.221 36.041C272.979 45.7788 272.137 46.8245 272.22 59.9746C272.213 73.1162 272.623 81.1028 270.765 96.4802C269.372 107.556 269.872 112.593 268.863 122.65L268.811 122.953C267.862 127.003 266.384 131.462 263.658 137.108C254.604 153.779 253.284 158.706 240.89 168.511C238.412 170.138 235.634 171.245 232.378 172.255C210.429 178.439 182.815 177.768 169.654 178.306C156.509 178.698 138.744 179.014 120.084 176.915C111.74 175.636 102.991 175.806 93.0319 170.518C83.4322 163.911 72.8423 156.802 64.9955 147.99C60.5639 143.176 56.0301 137.47 51.681 131.51L51.4147 131.075C44.7279 116.274 39.2316 100.392 37.4024 91.2392C34.8066 77.9874 34.5687 74.6923 33.8604 61.7502C33.562 54.2916 34.4401 44.0422 36.1321 35.5618C36.9873 31.2837 37.2621 32.3482 36.9297 36.6709C36.4546 43.0413 35.8741 48.2198 36.2295 51.5165C36.9979 58.0711 37.2795 60.7841 37.1308 68.9537C37.1282 77.1643 39.2623 80.7558 40.0361 85.3928C41.1727 89.9528 39.0643 90.4923 48.5041 112.965C51.1773 119.006 53.7493 124.268 56.0529 128.877L55.747 128.378C64.3615 139.09 70.6046 145.29 75.5828 149.56C79.915 153.433 87.8455 159.415 96.5053 165.615C100.215 168.025 106.483 169.111 111.601 169.844C126.315 172.096 157.102 172.829 169.435 171.958C181.76 171.176 181.833 172.06 191.842 171.934Z" fill="#213448"/>
<path d="M165.827 189.536C167.458 190.015 168.622 187.704 170.538 187.901C172.463 188.08 172.873 189.265 175.019 188.725C177.142 188.184 179.365 188.504 180.045 187.743C180.379 187.371 180.65 187.532 181.001 187.678C181.343 187.824 181.807 187.939 182.089 187.545C182.178 187.419 182.228 187.322 182.255 187.257C182.729 186.561 183.227 186.209 184.023 185.58C185.07 184.93 186.37 181.266 185.774 179.856C185.283 178.502 186.281 176.98 186.443 175.997C186.496 175.702 186.574 175.45 186.661 175.264C186.697 175.176 186.788 175.13 186.884 175.125C186.884 175.125 186.884 175.125 186.884 175.125C187 175.092 187.126 175.151 187.152 175.243C187.283 175.727 187.536 176.425 187.992 177.298C188.808 178.948 187.959 179.111 188.119 181.384C188.186 183.642 188.701 185.452 186.759 187.861C186.003 188.727 185.648 189.456 185.232 190.235C184.199 191.78 182.932 192.917 180.352 192.812C176.342 192.441 176.427 194.707 172.68 195.406C168.984 196.051 164.355 194.816 162.184 194.892C159.999 194.978 157.048 195.163 153.96 194.621C150.869 194.05 147.014 194.535 143.331 192.9C143.135 192.809 142.941 192.715 142.75 192.614C139.306 190.995 135.74 187.07 135.073 184.85C134.248 182.578 134.195 182.068 133.28 180.038C132.778 178.858 132.634 177.081 133.116 175.614C133.359 174.873 133.79 175.019 134.053 175.692C134.441 176.674 134.381 177.522 134.995 177.93C136.23 178.726 136.685 178.946 136.476 180.268C136.31 181.631 137.843 181.552 137.994 182.159C138.219 182.706 137.296 183.501 140.198 185.352C142.103 186.392 143.619 186.753 144.776 187.042C145.281 187.142 145.862 187.232 146.317 187.281C147.606 187.444 150.522 188.59 152.945 188.537C155.348 188.524 160.253 188.965 162.235 188.541C164.211 188.132 164.21 189.048 165.827 189.536Z" fill="#213448"/>
<path d="M85.2635 363.086C87.2073 365.458 89.3317 367.472 91.61 368.882C99.5991 370.854 111.171 369.297 124.639 369.669C142.389 369.845 145.052 370.969 165.39 369.842C185.701 368.657 206.098 367.858 215.029 366.466C223.958 365.049 225.196 366.547 237.738 364.43C244.085 363.26 249.616 362.288 253.67 360.705C257.508 359.04 260.516 355.58 263.12 350.96C267.994 343.661 272.476 320.088 272.206 304.557L272.222 304.733C271.424 300.763 270.296 297.416 269.334 295.024C264.782 283.493 257.895 270.93 253.409 263.523C252.029 261.229 250.972 259.349 250.267 257.892C249.956 257.254 249.904 256.944 249.987 256.898C249.987 256.898 249.987 256.898 249.987 256.898C250.089 256.835 250.423 257.219 250.873 257.963C253.083 261.624 256.895 266.798 261.156 273.11C268.514 284.926 269.659 286.593 274.402 304.321L274.425 304.557C274.428 304.744 274.43 304.853 274.431 305.094C274.433 305.268 274.434 305.42 274.435 305.626C273.515 324.628 275.441 337.353 263.032 357.811C260.773 360.711 258.154 362.953 255.267 364.268C239.932 369.148 232.194 370.789 205.306 372.311C173.543 373.426 170.366 375.925 138.657 377.151C122.855 377.076 107.069 379.216 88.3481 373.775C73.6522 361.85 68.445 346.825 64.2499 337.819C61.8835 332.21 59.608 325.852 57.6918 318.875C53.4834 301.664 61.5779 283.65 70.3995 267.38C74.8883 259.092 81.0804 249.968 85.5891 241.591C86.0456 240.479 86.5375 239.377 87.0676 238.291C87.3209 237.768 87.6083 237.203 87.7302 236.904C87.7928 236.756 87.7697 236.751 87.7473 236.909C87.7255 237.069 87.7582 237.194 87.7353 237.099C87.2846 235.739 86.137 232.975 85.4378 230.83C84.0623 227.181 84.7087 222.385 86.9869 219.209C89.2396 215.954 92.028 213.87 95.443 212.185L96.3319 211.939C105.529 210.794 114.702 209.831 123.607 209.23C145.466 207.538 174.01 207.988 195.27 208.904L195.798 209.002C203.073 211.816 209.496 214.068 214.454 215.575C232.303 220.667 237.556 220.859 254.497 221.229L254.855 221.311C255.488 221.59 256.13 221.889 256.786 222.229C258.016 222.887 259.35 223.623 260.465 224.967C261.646 226.342 261.814 228.308 261.912 229.784L261.987 230.912L260.881 230.857C251.908 230.992 247.894 244.411 249.003 253.006C249.475 256.068 250.178 257.153 249.804 256.926C249.501 256.7 248.331 254.937 247.866 251.685C246.761 242.105 250.637 234.497 254.425 230.88C256.281 229.063 258.694 228.071 260.988 228.005L259.066 230.005C258.913 229.093 258.774 228.316 258.559 227.822C258.344 227.328 258.094 227.03 257.644 226.635C256.741 225.859 255.244 225.072 253.507 224.259L254.433 224.47C251.971 224.401 249.185 224.233 245.752 223.878C233.663 222.562 227.752 222.865 220.758 221.189C215.044 219.583 214.073 219.317 194.515 212.532L195.196 212.658C190.984 212.61 185.961 212.582 179.9 212.628C144.248 212.82 124.933 215.13 111.546 216.628C107.758 217.074 102.793 217.61 97.1127 218.258L98.029 218.004C93.8547 219.955 89.439 224.255 91.2191 228.903C91.9049 231.126 92.6134 232.694 93.5381 235.61C93.8602 236.429 93.6567 238.478 93.2599 239.148C92.9277 239.92 92.6667 240.379 92.4175 240.886C91.9163 241.882 91.476 242.838 91.0434 243.864C88.0955 249.699 84.9961 253.997 82.3324 258.653C74.6305 271.977 58.8531 298.143 63.7354 317.253C65.7576 324.653 68.1447 330.937 70.0775 335.292C77.7284 351.102 77.0141 351.69 85.2635 363.086Z" fill="#213448"/>
<path d="M185.575 245.889C189.507 245.8 192.096 243.061 196.603 242.288C201.112 241.431 202.164 242.408 207.07 240.284C211.919 238.121 217.059 236.361 218.957 234.776C220.674 233.327 221.621 234.209 223.957 232.806L224.752 232.568C224.993 232.549 225.251 232.518 225.53 232.475C228.974 231.94 231.085 232.011 234.143 232.319C236.484 232.554 242.502 232.531 246.697 232.151L245.908 232.687C246.538 231.261 247.501 230.373 248.078 229.728C250.767 227.086 254.284 226.272 255.015 223.977C255.268 223.358 255.418 222.815 255.542 222.401C255.593 222.223 255.689 222.134 255.784 222.134C255.784 222.134 255.784 222.134 255.784 222.134C255.903 222.133 256.022 222.275 256.027 222.52C256.062 223.688 255.873 225.64 254.556 227.588C252.168 231.072 250.121 229.945 247.972 233.53C247.959 233.564 247.947 233.598 247.935 233.632L247.55 234.373L246.829 234.384C241.815 235.097 238.785 236.082 232.781 235.905C229.397 235.805 227.511 236.482 225.011 236.966L226.158 236.623C224.535 237.86 222.496 239.177 218.828 240.439C210.499 243.112 210.632 245.679 202.225 248.686C194.69 251.248 185.073 251.587 179.5 252.112L178.914 252.126C178.21 252.053 177.563 251.996 176.985 251.961C171.835 251.654 164.899 251.253 157.681 250.022C150.466 248.803 141.422 248.212 133.563 246.144C125.7 244.137 114.771 240.774 109.851 238.736C104.958 236.725 103.804 236.253 98.9483 234.573C96.2063 233.584 92.4645 231.636 90.2088 228.926C89.1363 227.529 89.7202 227.55 91.1062 228.467C93.1411 229.721 94.8952 230.845 96.2118 230.938C98.9185 231.112 100.01 231.155 102.726 232.875C105.475 234.57 107.415 233.72 109.089 234.426C110.853 235.104 110.503 236.052 119.901 237.8C129.305 239.437 134.483 240.156 138.061 240.67C141.632 241.175 148.972 243.098 154.857 243.621C160.723 244.202 172.621 245.7 177.472 245.629C178.226 245.624 178.859 245.64 179.407 245.675L178.711 245.691C181.662 245.281 182.271 245.937 185.575 245.889Z" fill="#213448"/>
<path d="M178.584 258.854C182.303 259.239 185.063 256.839 189.556 256.892C194.053 256.93 194.823 258.086 199.918 257.419C202.021 257.143 204.028 257.042 205.963 256.962L205.704 256.998C208.317 256.631 210.515 256.072 211.616 255.335C213.407 254.081 214.243 255.404 216.856 253.609C219.395 251.764 221.004 250.82 223.505 249.462C226.042 248.171 232.68 242.429 234.997 240.037C237.249 237.511 241.291 236.574 243.484 236.257C244.182 236.13 244.734 236.112 245.167 236.134C245.351 236.143 245.45 236.224 245.467 236.317C245.467 236.318 245.467 236.318 245.467 236.318C245.489 236.435 245.388 236.572 245.174 236.632C244.147 236.918 242.631 237.55 241.158 238.734C238.523 241.018 237.747 240.461 234.303 243.784C230.939 247.167 229.473 249.928 224.494 253.134C219.476 256.04 219.388 259.211 210.763 260.855C209.099 261.099 207.758 261.29 206.576 261.506L206.364 261.536C201.678 261.877 200.054 263.594 193.578 264.297C185.528 265.183 175.283 264.253 170.42 264.365C165.554 264.511 158.965 264.701 152.061 263.93C145.175 263.184 136.54 262.962 129.087 261.056C121.617 259.224 111.35 255.968 106.71 254.163C102.075 252.381 100.947 251.931 96.3224 250.806C93.6323 250.142 90.1194 248.846 87.2931 247.261C85.8573 246.459 86.344 246.179 87.9425 246.502C90.2617 246.967 92.037 247.749 93.3498 247.617C95.9402 247.34 97.0703 247.276 99.7835 248.743C102.526 250.212 104.296 249.269 105.944 249.905C107.591 250.51 107.345 251.413 116.222 252.973C125.096 254.453 129.946 255.074 133.304 255.482C136.65 255.893 143.561 257.544 149.09 257.714C154.59 257.985 165.824 258.529 170.346 258.014C174.885 257.542 174.899 258.451 178.584 258.854Z" fill="#213448"/>
<path d="M178.001 232.451C177.447 231.084 175.066 232.047 173.877 230.774C173.378 230.249 173.107 229.731 172.937 229.305L174.377 229.788C173.746 229.354 173.114 228.95 171.787 229.026C169.544 229.155 167.349 228.236 166.336 228.695C165.325 229.155 165.269 227.653 163.847 227.952C162.431 228.254 161.586 228.051 160.354 227.569C159.132 227.068 155.27 226.785 154.014 227.571C152.764 228.316 151.17 227.562 150.345 227.779C150.098 227.843 149.922 227.874 149.758 227.94C149.691 227.965 149.592 227.957 149.503 227.923C149.503 227.923 149.503 227.923 149.502 227.923C149.392 227.881 149.303 227.774 149.358 227.656C149.626 227.086 150.293 226.576 151.064 225.912C152.58 224.72 152.905 225.588 155.023 224.971C157.148 224.399 158.461 223.541 160.994 224.068C163.504 224.617 164.148 222.386 167.663 223.791C171.052 225.182 171.595 223.033 174.938 222.869L176.664 223.448C176.779 223.508 176.884 223.565 176.971 223.612C178.596 224.522 180.088 225.892 181.403 227.493C182.54 229.192 184.423 230.592 183.921 234.437C183.728 235.214 183.288 235.762 183.092 235.991C181.964 237.167 181.305 237.341 180.591 237.718C179.896 238.041 179.183 238.307 178.474 238.533C177.042 238.986 175.519 239.302 173.943 239.425C170.814 239.667 167.077 240.857 163.551 240.37C160.244 239.842 155.431 239.247 153.118 236.564C153.061 236.477 153.008 236.395 152.957 236.317C151.773 234.493 151.433 234.153 149.699 232.815C149.211 232.407 148.61 231.771 148.372 230.783C148.132 229.778 148.526 228.817 149.037 228.246C149.576 227.656 149.876 228.021 149.871 228.677C149.867 229.629 149.854 230.226 150.483 230.32C151.723 230.376 152.125 230.167 152.627 231.507C153.155 232.836 154.598 232.264 155.074 232.944C155.306 233.275 155.285 233.579 155.591 234.092C155.498 234.224 155.951 234.735 157.743 234.748C161.254 234.681 163.373 234.303 164.764 234.127C166.158 233.926 169.217 234.386 171.499 233.767C172.633 233.465 174.367 233.159 175.958 232.728C176.746 232.516 177.485 232.275 178.032 232.02C178.3 231.896 178.509 231.77 178.611 231.675C178.698 231.6 178.692 231.489 178.358 231.756C178.225 231.856 177.867 232.263 177.699 232.881C177.499 233.539 177.645 233.779 177.703 233.829C177.778 233.883 177.857 233.806 177.93 233.693C178.07 233.458 178.212 233.055 178.001 232.451Z" fill="#213448"/>
<path d="M26.1673 293.523C26.3729 297.553 29.2077 300.185 29.9523 304.965C30.7286 309.748 29.7243 310.761 31.4146 316.071C31.9758 317.808 32.4429 319.567 32.8641 321.217L32.7968 321.018C33.9149 324.176 35.0621 327.091 36.0997 328.369C37.6736 330.272 36.4495 331.249 38.5671 334.007C40.7307 336.683 41.7805 338.385 43.5841 340.646C43.935 341.068 44.4753 341.618 45.1808 342.125C48.1568 344.46 55.2558 344.611 57.8817 343.872C61.208 343.046 65.1887 343.415 67.5744 343.151C68.3102 343.072 68.9036 343.042 69.3591 343.043C69.551 343.043 69.6744 343.111 69.6757 343.21C69.6757 343.21 69.6757 343.21 69.6757 343.21C69.7397 343.316 69.5863 343.476 69.3751 343.543C68.2336 343.893 66.5446 344.457 64.5284 345.233C60.7269 346.611 60.2091 345.908 54.8479 346.488C50.7609 346.733 47.6215 347.23 43.4632 345.07C42.2036 344.338 41.065 343.341 40.0126 342.097C36.0623 336.867 33.3832 336.702 30.4127 328.052C29.7007 325.779 29.0918 324.143 28.4517 322.689L28.3974 322.529C27.0525 318.497 25.1526 316.727 23.3794 310.446C20.9595 301.926 20.2673 290.72 19.4833 285.466C18.6693 280.194 17.5352 273.104 17.9827 265.323C18.4805 260.999 17.7644 256.163 21.5771 250.419C25.4188 246.289 29.6751 245.639 33.4782 244.951C42.1548 243.641 53.9367 244.74 59.2842 245.801C64.629 246.857 65.8875 247.153 71.0524 247.958C74.0205 248.449 78.0064 249.736 81.0118 251.644C82.4954 252.606 81.9593 252.82 80.2857 252.348C77.8394 251.684 75.9101 250.902 74.515 251.05C71.74 251.376 70.6415 251.515 67.5744 250.287C64.474 249.088 62.7378 250.28 60.8947 249.892C59.0432 249.594 59.1362 248.429 49.4594 248.832C39.8286 249.451 34.7816 250.724 31.6233 251.807C30.1419 252.326 27.4676 253.187 26.3209 254.373C25.1011 255.556 24.2316 259.168 24.1491 261.938C23.7277 267.602 24.6066 279.788 25.7717 284.573C26.882 289.359 25.9924 289.503 26.1673 293.523Z" fill="#213448"/>
<path d="M34.5168 301.435C34.1303 304.448 36.5368 306.609 36.662 310.109C36.8563 313.603 35.7105 314.394 37.0288 318.185C37.5375 319.547 38.0044 320.95 38.485 322.128C39.3895 324.325 40.1955 326.184 41.046 326.995C42.4008 328.243 41.2092 329.24 43.0124 331.089C44.8387 332.853 45.6969 333.99 47.1264 335.66C47.8393 336.49 49.6484 337.87 51.8488 338.513C54.0297 339.195 56.4419 339.121 57.6524 338.725C60.0388 337.973 63.0272 338.298 64.8303 338.013C65.382 337.929 65.8237 337.898 66.1822 337.897C66.3333 337.896 66.4274 337.967 66.4572 338.058C66.4572 338.058 66.4572 338.058 66.4572 338.058C66.4944 338.171 66.4315 338.315 66.2588 338.386C65.4265 338.731 64.2124 339.308 62.7484 340.097C59.9349 341.486 59.4912 340.84 55.3322 341.257C51.2144 341.437 47.7892 341.327 44.0212 337.683C40.7154 333.973 38.092 334.252 35.6971 327.616C35.2217 326.163 34.792 325.06 34.3294 324.122C32.7556 320.679 30.812 319.457 29.5437 314.133C27.9895 307.275 29.1403 298.726 29.0875 294.728C29.014 290.709 28.9658 285.282 29.7929 279.639C30.5601 275.115 30.1626 271.006 32.0967 264.52C32.3208 264.075 32.5961 263.737 32.8612 263.474C33.0869 263.252 33.2975 263.088 33.5067 262.944C33.9075 262.674 34.2132 262.529 34.5133 262.397C35.0798 262.155 35.5639 262.017 36.0302 261.902C36.958 261.679 37.7533 261.577 38.5669 261.507C44.6174 261.065 52.3486 261.572 56.7928 261.995L56.2444 262.111C56.7136 261.957 57.084 261.862 57.4547 261.767C61.5738 260.876 62.5109 260.723 66.5248 260.134C68.8078 259.834 72.3857 260.477 74.3281 262.562C75.2567 263.608 74.702 263.68 73.5769 263.182C71.9051 262.506 70.47 262.037 69.4839 262.417C67.5436 263.249 66.9785 263.643 64.6252 263.298C62.2162 263.036 61.4473 264.732 60.1464 264.96C59.409 265.105 58.9182 264.925 57.6633 265.304L56.7928 265.489C55.7002 265.397 53.854 265.411 50.7439 265.786C43.4843 266.676 39.3734 267.349 37.4697 268.095C37.3221 268.157 37.1551 268.229 37.1076 268.255C37.0868 268.264 37.0839 268.273 37.1887 268.195C37.2418 268.154 37.3056 268.104 37.4171 267.987C37.5346 267.861 37.6886 267.671 37.829 267.386C37.9547 267.097 37.8679 267.262 37.8412 267.35C37.7999 267.465 37.745 267.648 37.6992 267.802C37.5939 268.17 37.498 268.524 37.3871 268.978C37.185 269.784 36.9717 270.745 36.7861 271.682C36.4097 273.586 36.1083 275.605 36.0173 277.449C35.7426 281.932 34.9951 291.088 35.4388 294.767C35.8459 298.437 34.9358 298.441 34.5168 301.435Z" fill="#213448"/>
<path d="M108.867 148.78C118.257 151.683 126.291 150.967 138.011 153.106C142.685 153.94 145.737 154.604 148.626 155.228C152.936 156.13 156.797 156.962 165.018 156.991C178.598 157.051 192.252 155.962 198.111 154.296C203.912 152.612 204.924 154.05 213.111 151.309C221.156 148.372 226.092 146.616 232.496 142.999C233.839 142.183 235.785 140.902 237.428 138.97C243.997 131.414 247.169 115.272 247.549 108.731C248.172 100.29 249.697 90.7048 250.048 84.8532C250.163 83.0356 250.279 81.604 250.393 80.5055C250.441 80.0404 250.538 79.8257 250.633 79.8257C250.633 79.8257 250.633 79.8257 250.633 79.8257C250.752 79.826 250.869 80.1596 250.881 80.759C250.939 83.6697 251.065 88.0201 251.209 93.1882C251.313 102.841 250.607 103.849 248.711 116.741C246.951 126.142 245.716 133.168 240.094 141.043C237.804 143.955 234.681 146.11 230.977 148.063C216.822 154.42 213.848 157.801 192.102 160.312C170.902 161.467 168.286 163.662 147.761 162.146C147.28 162.095 146.791 162.042 146.293 161.985C124.819 159.722 98.2686 152.529 86.1351 146.744C81.2049 144.14 74.3129 142.298 70.5511 133.506C69.1582 128.824 68.2022 123.787 68.0756 118.377C68.3079 113.269 67.5745 106.102 75.0614 101.734C75.2786 101.638 75.5009 101.55 75.7277 101.47C94.8936 97.6769 116.669 96.3469 136.917 96.2118C149.288 96.2457 164.811 96.7207 177.97 97.9422L177.653 97.9491C186.005 97.2939 193.328 96.362 198.337 95.4419C211.083 92.8339 214.301 91.7511 225.077 85.3599C228.85 82.9932 233.372 79.8698 237.862 76.5827L238.094 76.409L238.354 76.405C241.799 76.4684 245.487 76.2437 248.598 77.8435C250.548 79.0252 250.711 80.0279 250.469 79.8961C250.173 79.8471 249.291 78.8565 247.348 78.3468C244.189 77.6292 241.022 77.9799 238.408 78.0744L238.888 77.9011C237.187 79.2932 235.771 80.4608 234.707 81.5271C230.002 86.1366 227.845 88.2059 220.11 91.4748C212.338 94.5261 208.964 96.8687 204.191 98.0395C199.592 98.8673 199.395 99.0187 178.094 102.027L177.708 102.035C176.81 101.999 175.868 101.966 174.88 101.937C150.815 101.398 137.595 102.268 128.488 102.672C119.402 103.145 100.221 103.419 85.6547 105.619C83.3211 105.992 80.0217 106.455 77.8004 107.17C75.7281 107.632 74.2278 112.546 74.3323 117.292C74.333 122.125 75.2243 127.24 76.5639 131.737C78.2169 136.231 85.2025 139.449 88.7059 140.936C99.7077 145.07 99.6052 145.661 108.867 148.78Z" fill="#213448"/>
<path d="M105.815 302.998C113.84 306.153 120.288 306.806 129.575 310.141C136.233 312.537 138.746 313.92 143.743 315.517C145.645 316.117 147.969 316.704 151.093 317.21C162.197 319.011 173.576 320.323 178.668 320.022C183.751 319.688 184.264 321.214 191.51 320.926C198.748 320.605 203.152 320.715 209.516 321.122C214.454 321.773 227.154 320.406 236.295 323.722C238.746 325.176 240.235 327.24 241.139 328.727C245.342 335.695 242.118 344.984 239.011 348.73C238.074 349.987 237.141 350.812 236.381 351.355C236.057 351.585 235.854 351.623 235.794 351.55C235.794 351.55 235.794 351.55 235.794 351.55C235.718 351.457 235.856 351.197 236.203 350.853C237.9 349.215 239.84 346.02 240.335 341.92C240.742 338.125 240.566 336.059 240.234 333.702C239.772 331.501 239.267 328.218 235.172 325.648C235.157 325.64 235.141 325.631 235.126 325.622C225.991 323.215 218.689 325.293 206.27 324.665C193.618 324.221 190.667 326.786 172.687 324.701C157.659 322.576 153.797 323.518 142.192 321.499C139.991 321.063 137.612 320.526 134.81 319.764C119.433 316.786 101.74 303.137 92.6648 308.594C91.4073 309.071 90.388 309.707 89.5956 310.386C85.5403 313.588 83.9079 321.494 85.0143 329.134L84.7852 328.382C86.8987 332.698 90.2068 337.42 93.9181 341.518C100.37 348.76 110.312 354.748 121.183 356.87C126.612 357.985 132.19 358.498 137.603 358.758C154.036 359.855 177.386 355.405 188.5 354.488C190.025 354.378 191.39 354.326 192.662 354.374C200.504 354.776 203.711 355.195 212.808 355C218.81 354.75 227.234 355.008 233.736 352.515C235.329 351.831 235.918 351.426 235.879 351.707C235.839 351.952 235.04 352.856 233.389 353.715C228.474 356.108 223.984 356.072 221.335 356.865C215.949 358.265 213.546 358.661 206.719 357.894C199.914 357.079 196.648 358.276 192.812 358.099C192.761 358.096 192.711 358.094 192.662 358.092C189.252 358.049 188.953 357.164 169.424 361.17C149.497 365.095 137.978 365.088 130.124 364.605C127.498 364.434 123.914 363.985 119.886 363.067C111.657 361.325 102.197 356.554 95.4177 351.069C90.2479 347.045 83.473 339.921 79.0531 330.946L78.8261 330.201C77.2241 320.29 80.1637 309.787 85.4732 305.554C87.1518 304.05 88.813 303.162 90.2592 302.58C96.4251 300.381 98.9995 300.746 105.815 302.998Z" fill="#213448"/>
<path d="M240.065 303.618C240.511 304.027 240.16 301.768 240.639 301.973C241.113 302.181 241.466 303.334 241.839 302.962C242.218 302.59 242.846 303.29 242.931 302.764C243.019 302.236 243.366 303.692 243.569 303.307C243.773 302.922 243.985 303.077 244.324 303.503C244.664 303.928 245.472 304.189 245.624 303.552C245.777 302.914 246.276 303.875 246.501 304.083C246.572 304.148 246.636 304.242 246.69 304.343C246.713 304.386 246.738 304.48 246.755 304.574C246.755 304.574 246.755 304.574 246.755 304.574C246.777 304.691 246.788 304.808 246.772 304.826C246.695 304.915 246.595 305.129 246.52 305.582C246.375 306.428 246.179 305.56 245.863 306.043C245.548 306.526 245.484 307.381 244.921 306.954C244.351 306.529 244.731 308.732 243.825 307.64C242.902 306.555 243.375 308.846 242.852 309.3C242.33 309.754 241.22 308.727 240.873 308.941C240.532 309.152 240.118 309.562 239.5 309.434C238.877 309.308 238.473 310.261 237.714 309.938C236.954 309.615 235.889 309.253 235.344 308.954C234.804 308.652 234.665 308.59 234.394 308.991C234.233 309.224 233.891 309.184 233.43 308.712C233.198 308.475 233.082 308.069 233.141 307.832C233.227 307.486 233.446 307.616 233.36 307.086C233.193 306.026 233.14 305.616 233.59 306.105C234.042 306.593 233.687 305.241 233.883 305.341C234.077 305.442 234.354 306.214 234.87 305.361C235.391 304.507 235.744 304.217 235.979 303.977C236.21 303.738 237.027 304.218 237.408 303.825C237.792 303.43 238.814 303.363 239.084 302.846C239.355 302.328 239.615 303.211 240.065 303.618Z" fill="#213448"/>
<path d="M230.638 281.125C231.181 281.524 230.985 279.235 231.574 279.423C232.166 279.61 232.525 280.763 233.053 280.356C233.583 279.948 234.368 280.603 234.513 280.058C234.661 279.512 235.044 280.959 235.339 280.544C235.64 280.127 235.903 280.264 236.354 280.653C236.793 281.046 237.907 281.197 238.125 280.527C238.348 279.856 239.014 280.758 239.326 280.934C239.424 280.988 239.511 281.075 239.586 281.169C239.617 281.208 239.65 281.3 239.673 281.393C239.673 281.393 239.673 281.393 239.673 281.393C239.702 281.508 239.716 281.625 239.693 281.646C239.584 281.749 239.443 281.982 239.328 282.455C239.116 283.337 238.848 282.488 238.398 283.026C237.939 283.566 237.805 284.45 237.023 284.093C236.242 283.736 236.628 285.943 235.398 284.941C234.17 283.937 234.632 286.231 233.778 286.758C232.923 287.285 231.452 286.31 230.919 286.546C230.385 286.782 229.694 287.224 228.83 287.106C227.968 286.989 227.157 287.971 226.158 287.629C225.161 287.288 223.772 286.879 223.104 286.546C222.435 286.214 222.276 286.14 221.783 286.537C221.504 286.763 221.034 286.705 220.542 286.194C220.293 285.937 220.249 285.515 220.394 285.278C220.607 284.932 220.867 285.078 220.9 284.533C220.962 283.443 220.993 283.023 221.474 283.547C221.952 284.072 221.83 282.674 222.066 282.787C222.302 282.9 222.476 283.704 223.382 282.859C224.288 282.013 224.819 281.729 225.179 281.492C225.537 281.257 226.514 281.767 227.096 281.369C227.678 280.973 229.029 280.9 229.456 280.365C229.883 279.831 230.094 280.726 230.638 281.125Z" fill="#213448"/>
<path d="M95.0312 196.732C94.5095 197.8 96.7794 198.64 96.4701 199.929C96.1639 201.227 94.9619 201.444 95.2675 202.93C95.5747 204.416 94.8079 205.934 95.3303 206.588C95.8525 207.23 94.3595 207.363 94.7359 208.302C95.1126 209.226 94.9479 209.818 94.5073 210.671C94.0651 211.534 93.8068 214.109 94.4678 215.004C95.1255 215.888 94.1658 217.021 93.9669 217.678C93.9049 217.884 93.8119 218.049 93.712 218.179C93.6696 218.234 93.5748 218.265 93.4796 218.272C93.4795 218.272 93.4795 218.272 93.4794 218.272C93.3608 218.28 93.2415 218.252 93.2217 218.187C93.1255 217.871 92.8989 217.407 92.4296 216.881C91.5543 215.889 92.4322 215.716 91.9271 214.326C91.4243 212.941 90.5471 212.139 90.989 210.429C91.4357 208.733 89.1794 208.449 90.3513 206.024C91.5337 203.612 89.1893 203.443 88.836 201.057C88.4839 198.668 89.7999 195.659 89.7291 194.229C89.6531 192.794 89.4444 190.851 89.8603 188.835C90.2732 186.826 89.6719 184.265 90.4163 182.077C91.1541 179.896 92.1751 176.846 92.804 175.461C93.4319 174.069 93.5767 173.743 93.4628 172.324C93.3973 171.513 93.688 170.439 94.4049 169.59C94.7662 169.16 95.1702 169.322 95.3094 169.818C95.5131 170.544 95.2489 171.062 95.7268 171.486C96.6832 172.326 97.0492 172.655 96.3331 173.471C95.6177 174.286 96.9544 174.853 96.7351 175.355C96.5189 175.85 95.6938 175.751 96.046 178.432C96.4047 181.112 96.4489 182.538 96.5171 183.543C96.5858 184.537 95.7203 186.54 95.8858 188.166C96.0412 189.784 95.6791 193.039 96.0792 194.362C96.4738 195.684 95.5557 195.667 95.0312 196.732Z" fill="#213448"/>
</svg>
