<svg width="214" height="265" viewBox="0 0 214 265" fill="none" xmlns="http://www.w3.org/2000/svg">
<path d="M84.5047 263.501C77.1166 262.828 71.2188 263.674 62.2123 262.801C60.8362 262.666 59.6246 262.531 58.526 262.396L58.4018 262.382C52.5064 261.217 50.2929 260.418 41.6586 258.874C31.4379 257.043 21.4859 253.97 16.9833 252.751C14.9626 252.227 13.7866 251.704 12.5845 251.119C11.0585 250.334 9.41938 249.591 6.25926 247.522C0.706947 243.777 -1.63186 237.925 1.21934 232.371C2.85623 227.901 12.0898 222.084 19.7063 220.072C22.5829 219.179 25.1086 218.368 26.7857 217.773C32.8047 215.662 39.9624 214.051 44.3601 213.533C45.6925 213.415 47.027 213.362 47.5681 214.239C47.7493 214.582 47.6978 214.766 47.6558 214.776C47.6557 214.776 47.6557 214.776 47.6557 214.776C47.5835 214.796 47.5084 214.541 47.2457 214.26C45.508 213.234 42.041 214.569 38.4906 215.644C31.7113 217.943 30.8578 217.728 21.6612 220.731C21.1284 220.907 20.5974 221.083 20.0676 221.259C12.4251 224.289 5.29545 226.476 2.17848 235.692C1.56607 239.512 3.49528 242.123 5.45656 243.942C7.52663 245.783 9.95404 247.135 13.5674 248.498C16.0096 249.401 18.9641 250.428 22.7167 251.66C38.0012 256.354 39.9974 255.305 55.7032 257.869C56.7826 258.032 57.9093 258.202 58.9873 258.357L58.8553 258.342C74.1741 259.581 92.1677 261.145 101.123 261.227C110.728 261.392 123.625 261.17 137.218 260.404C149.219 259.77 163.558 257.858 177.066 256.15L176.738 256.228C178.461 255.645 180.123 255.034 181.765 254.382C192.684 250.294 211.006 238.74 207.08 228.338C206.122 226.905 204.732 225.859 203.566 225.037C195.292 220.006 192.716 219.508 183.707 216.772C178.471 215.292 171.225 213.376 165.095 211.716C162.009 210.884 162.761 210.805 165.93 211.384C170.562 212.24 174.287 213.282 176.708 213.617C181.54 214.313 183.628 214.629 189.375 216.854C195.092 219.144 198.056 219.593 201.313 221.31C203.393 222.701 204.381 222.439 208.666 227.25C210.817 230.148 209.971 235.417 206.356 240.331C194.809 254.266 184.091 256.763 177.871 259.473L177.525 259.556C177.185 259.606 176.853 259.654 176.528 259.702C169.736 260.709 155.441 262.102 144.28 263.133C133.123 264.379 110.287 264.815 101.099 264.679C91.8934 264.668 91.906 264.138 84.5047 263.501ZM185.819 240.357C187.411 239.79 187.841 238.109 189.328 237.118C190.699 236.099 191.58 236.28 192.063 234.632C192.172 233.954 192.128 233.401 191.839 232.744C191.371 231.74 190.906 230.959 190.454 230.617C189.661 230.057 190.224 229.417 189.089 228.581C187.945 227.8 187.342 227.273 186.385 226.47C185.491 225.549 181.683 224.382 180.237 224.753C178.821 224.985 177.226 224.555 176.155 224.396C176.075 224.382 175.998 224.364 175.915 224.34C175.839 224.316 175.765 224.289 175.683 224.242C175.622 224.206 175.504 224.117 175.483 223.998C175.458 223.886 175.513 223.785 175.543 223.754C175.606 223.678 175.682 223.671 175.723 223.701C175.723 223.701 175.723 223.701 175.723 223.701C175.776 223.737 175.782 223.837 175.779 223.879C175.688 223.869 176.057 223.937 176.387 223.863C176.74 223.805 177.12 223.703 177.561 223.571C179.198 223.103 179.391 223.521 181.66 223.518C183.914 223.608 185.55 223.519 187.886 225.121C189.993 226.817 191.538 226.362 193.325 230.013C193.595 230.63 193.801 231.104 194.023 231.552C195.138 233.991 195.667 236.131 193.347 239.031C190.402 242.33 185.725 243.62 183.742 244.627C181.738 245.61 178.995 246.873 175.968 247.758C172.949 248.649 169.376 250.211 165.966 250.87C162.567 251.539 157.747 252.379 155.503 252.652C153.297 252.921 152.697 253.002 150.652 253.62C149.447 253.981 147.763 254.261 146.268 254.23C146.045 254.233 146.031 254.19 145.859 254.177C145.777 254.146 145.801 254.093 145.785 254.049C145.782 254.027 145.78 254.004 145.805 253.977C145.815 253.953 145.936 253.908 145.944 253.886C146.01 253.833 146.151 253.769 146.359 253.698C147.373 253.327 148.227 253.253 148.704 252.857C149.664 252.062 150.086 251.744 151.484 251.769C152.916 251.783 153.396 250.891 154.179 250.795C154.97 250.69 155.079 251.147 158.969 249.805C162.86 248.446 164.969 247.738 166.44 247.224C167.893 246.717 171.103 246.143 173.434 245.197C175.776 244.285 180.578 242.571 182.3 241.492C184.045 240.427 184.257 240.873 185.819 240.357ZM159.746 217.699C158.999 220.132 158.348 222.4 157.671 224.699C157.497 225.288 157.333 225.84 157.178 226.356C156.998 226.947 156.798 227.578 156.626 228.103C156.483 228.554 156.209 229.326 156.003 229.84C155.948 229.977 155.899 230.098 155.84 230.233C155.748 230.437 155.657 230.625 155.56 230.801C155.463 230.978 155.363 231.144 155.233 231.315C155.215 231.335 154.998 231.652 154.587 231.878C154.375 231.994 154.058 232.11 153.672 232.089C153.287 232.074 152.899 231.89 152.667 231.685L154.072 232.006C148.003 233.91 141.708 235.949 133.616 237.752C119.478 240.684 117.296 240.833 100.826 242.711C84.1564 244.68 67.5222 239.986 60.7935 236.931C58.9805 236.213 57.6483 235.554 56.4741 234.908L56.0063 234.673L55.8076 234.164C54.6028 230.633 54.0848 228.237 51.5329 220.971C48.157 211.102 46.6603 204.912 44.9683 195.956C42.9773 187.039 39.5788 159.255 38.4602 149.186C37.1564 139.098 36.7721 127.517 36.3322 120.549C36.1951 118.371 36.1158 116.7 36.0665 115.367C36.0459 114.806 36.0771 114.541 36.1288 114.537C36.1288 114.537 36.1288 114.537 36.1289 114.537C36.1933 114.532 36.2895 114.93 36.3562 115.647C36.6775 119.089 37.2015 124.243 37.9478 130.3C39.37 141.608 38.9251 142.903 40.736 158.158C42.7088 173.397 44.18 182.494 47.8523 200.125C51.0733 214.227 53.4616 219.28 58.5437 233.119L57.8113 232.302C60.9917 233.944 64.7465 235.69 69.4403 237.267C93.8021 243.476 97.1656 240.247 121.76 236.097C131.717 234.027 142.65 231.326 153.167 228.624L154.185 228.36L154.954 229.033C154.566 228.618 153.533 228.49 153.119 228.718C152.677 228.907 152.584 229.074 152.545 229.106C152.512 229.148 152.523 229.14 152.549 229.1C152.576 229.06 152.62 228.987 152.672 228.89C152.698 228.841 152.726 228.786 152.756 228.725C152.774 228.689 152.793 228.651 152.813 228.611C152.965 228.298 153.171 227.811 153.357 227.336C153.649 226.603 154.059 225.439 154.325 224.655C154.968 222.752 155.523 220.97 156.085 219.111C157.202 215.401 158.18 211.93 159.105 208.551C160.943 201.827 162.427 195.978 163.494 191.485C167.015 176.579 171.463 156.419 175.616 135.144C177.406 124.865 180.416 111.866 179.483 101.653C172.192 93.6187 158.432 89.2448 147.445 85.1929C135.825 81.2972 121.109 77.129 107.54 77.3219C94.5892 77.671 82.8132 77.8512 75.3105 78.712C59.8206 80.5924 56.0532 81.6391 41.7547 86.341C40.0653 86.9285 38.2429 87.5752 36.3038 88.2819L36.583 88.052C31.9347 94.4599 31.7506 104.056 35.0183 111.444C36.8326 116.171 36.1238 115.253 34.1196 110.523C31.0402 103.59 31.4128 96.892 32.7316 93.1684C33.4295 90.7747 34.2934 88.9243 35.1898 87.2149L35.381 86.891L35.7495 86.754C39.5512 85.1494 43.0267 83.8737 49.5062 82.2072C59.0066 79.8484 63.3878 78.297 69.056 77.44C74.7145 76.8695 74.712 76.3761 103.5 75.1287C104.838 75.0617 106.141 74.9933 107.433 74.9209C134.398 75.3466 148.354 82.254 158.247 85.4901C164.021 88.1861 174.204 90.4739 182.423 100.144C184.078 109.711 181.598 117.239 180.705 124.971C178.063 142.662 170.148 177.983 166.867 192.216C163.612 206.472 163.126 206.406 159.746 217.699Z" fill="#213448"/>
<path d="M94.5561 116.274C97.3971 116.416 99.8135 115.842 102.604 115.302L102.845 115.296C104.422 115.199 106.07 115.137 107.971 115.23C113.317 115.45 114.151 116.124 120.291 115.689C126.41 115.229 132.572 114.84 135.23 114.116C137.874 113.392 138.313 114.163 142.089 113.177C145.851 112.156 148.146 111.655 151.496 110.951C154.866 110.333 164.854 106.964 168.228 105.117C171.635 103.353 175.825 102.074 178.27 101.08C179.025 100.774 179.634 100.55 180.108 100.392C180.309 100.324 180.42 100.33 180.442 100.377C180.442 100.377 180.442 100.377 180.442 100.377C180.47 100.436 180.36 100.558 180.119 100.681C178.95 101.276 177.231 102.197 175.22 103.361C171.458 105.51 170.85 105.286 165.533 107.673C160.193 109.995 157.017 111.638 150.317 113.271C143.612 114.753 142.319 116.44 132.56 117.242C122.842 117.746 121.924 119.04 112.189 119.406C109.179 119.478 105.92 119.388 102.685 119.188L102.947 119.182C95.6711 119.707 88.5734 119.141 84.5208 118.812C78.6502 118.381 70.7375 117.279 62.831 114.432C55.1416 111.342 44.7558 108.407 39.2351 98.8894C39.0094 98.1508 38.7396 96.9472 39.6177 95.7669L40.6742 98.2224C40.5151 98.2025 40.3501 98.1703 40.1749 98.1139C40.0847 98.0844 40.0057 98.055 39.8973 98.0042C39.7743 97.9461 39.6472 97.8721 39.5224 97.7764C39.2759 97.5898 39.0296 97.2949 38.8986 96.9328C38.8336 96.7566 38.7987 96.5772 38.7872 96.4099C38.7772 96.2551 38.7842 96.1423 38.7988 96.0214C38.9824 95.0763 39.2773 94.8726 39.5171 94.531C40.0021 93.9486 40.5238 93.5116 41.0089 93.1255C42.0199 92.3321 43.0684 91.662 44.1575 91.0156C46.2895 89.7594 48.5649 88.6438 50.737 87.6759C55.0868 85.7413 59.1704 84.338 61.8337 83.4995C67.5256 81.7639 68.9135 81.4107 74.3869 79.7218C77.5278 78.7707 81.9602 77.7903 85.7613 77.3447C87.6938 77.1185 87.2973 77.4291 85.4256 77.9287C82.7131 78.6598 80.4284 79.0905 79.0848 79.7141C76.414 80.9673 75.2858 81.4789 71.6937 82.1649C68.1018 82.873 66.6935 84.146 64.6695 84.7427C62.6876 85.428 62.3857 84.65 52.688 89.3411C49.7219 90.8551 47.2435 92.3016 45.2379 93.6826C44.2445 94.3695 43.365 95.0405 42.665 95.6952C42.3122 96.0252 42.0251 96.3456 41.8996 96.5536C41.876 96.5924 41.8638 96.6279 41.8823 96.5926C41.8905 96.5633 41.9733 96.4388 41.9337 96.0843C41.9098 95.8951 41.8184 95.6588 41.6839 95.4845C41.5592 95.3181 41.411 95.207 41.299 95.1448C41.0885 95.0343 41.0395 95.0466 41.025 95.038L43.9205 95.3042L42.1711 97.7017C42.2406 97.6248 42.2642 97.5138 42.2657 97.5248C42.2701 97.5347 42.2792 97.6142 42.3246 97.744C42.3625 97.8524 42.4282 98.0022 42.5123 98.1575C42.5878 98.2964 42.6812 98.4495 42.7905 98.611C43.1959 99.2065 43.7284 99.7899 44.2205 100.274C46.7947 103.02 53.8529 107.776 60.0902 109.974C66.1652 112.523 79.3488 115.368 84.7838 115.371C90.1738 115.535 90.1839 115.992 94.5561 116.274ZM115.259 91.6854C117.795 92.1496 119.879 91.077 122.97 91.5646C126.052 92.0698 126.449 92.7636 130 93.113C133.562 93.4716 136.994 94.6208 138.601 94.7193C140.233 94.8243 140.199 95.6388 142.428 96.0586C144.658 96.5 145.945 97.0321 147.715 97.953C149.525 98.8179 154.921 101.507 156.984 102.324C159.084 103.079 160.96 104.85 162.166 105.749C162.54 106.027 162.824 106.27 163.034 106.471C163.123 106.556 163.142 106.63 163.115 106.674C163.115 106.674 163.115 106.674 163.115 106.674C163.08 106.729 162.973 106.737 162.838 106.662C162.183 106.301 161.183 105.807 159.938 105.343C157.612 104.498 157.633 103.922 154.61 102.612C151.569 101.35 149.626 100.961 146.127 99.4051C142.564 97.9196 141.419 98.7986 136.298 96.9735C131.097 95.2607 130.304 96.4546 124.925 95.9567C119.553 95.4912 112.709 94.3409 109.435 94.2261C108.661 94.1974 107.809 94.1719 106.886 94.1453L107.077 94.1436C104.229 94.3932 100.862 94.7497 97.3709 95.0931C92.7562 95.5331 87.2513 97.0277 82.3007 98.1525C77.3188 99.2001 70.4573 101.554 67.3192 102.775C64.1724 103.969 63.4089 104.294 60.6087 105.928C59.0034 106.871 56.7177 108.031 54.6704 108.821C53.6359 109.222 53.7384 108.899 54.6436 108.258C55.9638 107.324 57.177 106.778 57.7696 106.129C58.9565 104.834 59.4854 104.298 61.5099 103.63C63.5322 102.971 64.0963 101.861 65.2476 101.409C66.4169 100.986 66.5158 101.282 72.1842 98.5898C77.9071 95.9748 81.2594 95.022 83.5397 94.3186C85.8367 93.6084 90.7762 92.9166 94.5892 92.2127C97.5899 91.614 103.095 91.0649 106.85 90.7521L107.052 90.7502C108.076 90.778 108.949 90.7918 109.608 90.7795C112.78 90.7307 112.761 91.2331 115.259 91.6854Z" fill="#213448"/>
<path d="M83.6822 101.475C84.0579 101.681 84.0763 100.419 84.5136 100.517C84.9498 100.617 85.1127 101.253 85.5384 101.037C85.971 100.822 86.4777 101.206 86.643 100.915C86.8134 100.622 86.9285 101.427 87.1894 101.214C87.4525 101.002 87.6324 101.089 87.9076 101.326C88.177 101.562 88.9499 101.716 89.1905 101.37C89.4378 101.023 89.7928 101.559 89.9901 101.678C90.0517 101.715 90.1023 101.768 90.1423 101.825C90.1592 101.849 90.1701 101.901 90.1741 101.952C90.1741 101.952 90.1741 101.952 90.1741 101.952C90.179 102.017 90.173 102.081 90.1544 102.091C90.064 102.137 89.933 102.252 89.791 102.499C89.5297 102.958 89.4487 102.48 89.0667 102.739C88.6769 103 88.4825 103.469 87.9818 103.23C87.4742 102.994 87.5128 104.21 86.7706 103.612C86.0174 103.02 86.1258 104.287 85.5268 104.558C84.9337 104.827 84.0091 104.308 83.6438 104.458C83.2825 104.605 82.8319 104.877 82.2687 104.877C81.6966 104.879 81.2159 105.499 80.5531 105.446C79.8864 105.39 78.9301 105.415 78.4494 105.37C77.9695 105.324 77.8508 105.32 77.5657 105.641C77.4052 105.824 77.088 105.897 76.6954 105.738C76.4968 105.659 76.4142 105.443 76.4841 105.281C76.5864 105.043 76.78 105.061 76.7402 104.759C76.6589 104.155 76.6386 103.917 77.03 104.091C77.4159 104.268 77.1917 103.534 77.3718 103.542C77.5526 103.552 77.7386 103.95 78.3178 103.302C78.9076 102.654 79.3007 102.405 79.5608 102.213C79.8244 102.02 80.5681 102.158 81.0056 101.87C81.4474 101.573 82.4798 101.42 82.8313 101.104C83.1862 100.785 83.3025 101.272 83.6822 101.475Z" fill="#213448"/>
<path d="M205.342 158.141C203.861 160.235 203.755 162.633 201.691 165.036C199.611 167.39 198.812 167.307 196.597 170.046C196.29 170.421 195.99 170.768 195.669 171.126L195.683 171.11C193.699 173.4 191.506 175.216 190.673 176.333C189.704 177.623 189.044 177.158 187.45 178.744C185.821 180.317 184.619 181.044 182.814 181.873C181.045 182.808 175.529 185.094 173.546 186.021C171.591 187.049 169.031 187.189 167.572 187.434C167.122 187.51 166.754 187.546 166.467 187.558C166.346 187.563 166.279 187.526 166.266 187.475C166.266 187.475 166.266 187.475 166.266 187.475C166.25 187.413 166.318 187.33 166.464 187.284C167.169 187.063 168.193 186.688 169.375 186.105C171.539 185.002 171.959 185.418 174.904 184.084C177.823 182.677 179.342 181.502 182.623 179.735C185.877 177.816 185.78 176.409 190.017 173.193C191.975 171.643 192.863 170.473 193.613 169.294L193.626 169.279C194.511 167.917 195.215 166.543 196.955 164.306C200.29 160.21 204.073 154.938 205.034 151.881C205.571 150.393 206.094 148.612 206.609 146.628L206.573 146.792C206.883 144.784 207.201 142.631 207.283 140.522C207.354 138.659 206.996 136.696 205.813 135.484C204.652 134.23 202.598 133.519 200.517 132.959L201.258 132.968C200.629 133.085 200.031 133.193 199.422 133.3C194.442 134.02 187.809 136.342 185.089 138.206C182.324 139.942 181.684 140.498 179.61 142.887C178.432 144.279 176.774 146.169 175.234 147.677C174.453 148.444 174.417 148.107 174.984 147.173C175.819 145.807 176.733 144.854 177.042 144.043C177.676 142.417 177.989 141.708 179.721 140.433C181.455 139.196 181.74 137.993 182.791 137.276C183.907 136.671 183.877 136.631 189.415 133.543C194.892 130.845 198.274 130.234 200.533 129.605L201.315 129.613C201.418 129.635 201.518 129.656 201.616 129.677C202.81 129.952 204.708 130.488 206.652 131.855C208.672 133.177 210.017 135.86 210.336 137.954C210.863 140.463 210.461 144.168 209.935 147.359L209.899 147.524C209.312 149.761 208.657 151.807 208.266 153.092C207.285 156.171 206.784 155.992 205.342 158.141Z" fill="#213448"/>
<path d="M208.791 148.318C209.208 147.249 209.309 146.214 209.37 145.12L209.325 145.414C209.127 144.009 208.839 142.579 208.908 140.842C208.954 137.801 209.618 137.254 208.633 133.847C208.248 132.627 207.855 131.394 207.473 130.236L207.595 130.486C206.596 128.655 205.474 127.458 204.578 126.971C203.682 126.487 203.495 126.014 202.915 125.408L203.014 125.468C202.679 125.188 202.235 124.891 201.505 124.629C199.388 123.902 198.182 123.481 196.269 123.002C194.596 122.461 189.492 122.794 186.828 123.486L186.869 123.477C186.528 123.586 186.235 123.694 185.994 123.8C183.926 124.647 181.524 125.282 180.134 126.083C179.707 126.316 179.359 126.486 179.083 126.603C178.966 126.653 178.888 126.643 178.858 126.601C178.858 126.601 178.858 126.6 178.858 126.6C178.821 126.547 178.861 126.443 178.987 126.346C179.612 125.876 180.495 125.12 181.628 124.241C183.547 122.846 184.209 123.003 186.58 122.304L186.628 122.294C186.962 122.228 187.318 122.152 187.729 122.059C191.116 121.359 193.262 120.403 197.57 121.253C200.448 121.979 201.913 122.109 204.245 123.175L204.383 123.259C205.332 123.862 206.504 124.65 207.759 126.225C208.667 127.398 209.225 128.382 209.731 129.169L209.829 129.371C210.852 132.243 212.249 133.369 212.919 138.09C213.215 140.521 213.081 143.156 212.837 145.611L212.78 145.983C211.723 149.538 210.509 152.812 209.876 154.83C208.853 158.178 207.253 162.696 204.802 167.04C203.406 169.545 201.891 172.403 200.252 175.229L199.997 175.556C198.326 177.274 196.587 178.97 194.806 180.455C190.664 184.012 184.28 188.519 180.99 189.994C177.743 191.52 176.94 191.819 173.79 193.191C171.971 193.96 169.322 194.645 167.033 194.845C165.876 194.946 166.088 194.665 167.173 194.294C168.761 193.746 170.112 193.47 170.85 192.945C172.315 191.886 172.899 191.47 174.998 190.981C177.104 190.457 177.667 189.302 178.787 188.805C179.871 188.237 180.251 188.875 185.203 184.868C190.04 180.724 192.455 178.129 194.169 176.421C194.961 175.611 196.215 174.479 197.613 173.172L197.358 173.499C198.551 171.65 199.84 169.58 200.785 167.683C202.652 164.195 205.908 156.943 206.591 153.77C207.354 150.639 207.814 150.776 208.791 148.318Z" fill="#213448"/>
<path d="M54.4711 36.4357C54.7333 35.3139 53.5787 34.3273 53.9182 32.9971C53.9787 32.7648 54.0507 32.575 54.1286 32.4043L54.3105 31.8093C54.9666 31.1088 55.4401 30.9417 56.3468 29.7511C57.5947 28.2652 59.3526 28.098 59.8556 27.5738C60.2301 27.2174 60.5222 27.4602 60.9375 27.4773L61.3597 27.2755L61.9243 27.606C62.0211 27.7642 62.1645 27.9141 62.4371 28.0439C63.3086 28.4716 63.7676 28.9179 64.2135 29.8572C64.4184 30.2372 64.8704 31.4104 64.4307 32.3068L64.4473 32.2417C64.2147 33.0824 64.1672 33.9926 64.4059 34.3576C64.6142 34.7038 64.658 34.9946 64.7682 35.3559C64.873 35.7098 65.05 36.1017 65.2433 36.3362C65.3649 36.4834 65.453 36.6142 65.5147 36.728C65.5412 36.7764 65.5316 36.833 65.5028 36.8762C65.5027 36.8762 65.5027 36.8763 65.5027 36.8763C65.467 36.9301 65.4009 36.9625 65.3426 36.9326C65.0611 36.7825 64.621 36.6132 64.0334 36.2976C62.9624 35.5784 63.2361 35.0596 63.0354 33.5864C62.9794 32.9642 62.939 32.4573 62.9287 31.9563L62.9612 31.8289C62.9555 31.6001 62.8902 31.509 62.8484 31.4264C62.8063 31.3412 62.729 31.146 62.5202 30.8112C61.998 30.036 61.2307 30.1171 60.4372 29.7004L61.8379 29.883C61.4589 30.092 60.9804 30.2489 60.2741 30.3306C59.1863 30.4637 58.7897 30.9317 58.5991 31.4342C58.403 31.9618 58.4364 32.4386 58.0788 33.2771C58.0362 33.3784 57.9904 33.4837 57.9411 33.5936L58.1363 32.9551C57.8654 35.0875 57.2546 37.2845 57.5983 38.4186C57.8111 39.2596 58.2291 40.29 58.6966 41.4672L58.6027 41.2736C58.8458 41.7164 59.0867 42.1719 59.3197 42.6362C60.155 44.3275 61.8033 45.7081 63.1493 47.1506C64.0374 48.1394 65.3807 49.2986 66.5223 50.2195L66.69 50.3469C67.1716 50.9496 67.5725 51.5025 67.8372 51.9211C68.6013 53.1905 68.7862 53.4671 69.5538 54.6999C69.9896 55.4274 70.1511 56.6272 69.8747 57.5539C69.7385 58.0241 69.5058 57.9211 69.3649 57.4864C69.1562 56.8552 69.1592 56.3219 68.8017 56.0849C68.0776 55.629 67.8347 55.5786 67.7742 54.7738C67.6675 53.9445 66.8046 54.1006 66.5942 53.7105C66.3757 53.3525 66.6773 53.0528 65.2165 51.8959L65.4248 52.0542C65.2351 51.9633 65.0352 51.8724 64.8008 51.7667C62.3741 50.6812 61.111 49.7626 60.2621 49.1167C59.382 48.4781 58.1403 46.5484 57.1187 45.2158C56.6746 44.6626 56.1419 43.8216 55.6385 42.9485L55.5458 42.7573C54.9787 41.4405 54.5142 39.9495 54.2202 39.1235C53.725 37.6956 54.2414 37.5887 54.4711 36.4357Z" fill="#213448"/>
<path d="M86.9092 24.6513C87.3587 22.9704 86.2047 21.6516 86.15 19.8042C86.0294 17.9119 86.5751 17.4306 85.7128 15.2259C85.5134 14.7368 85.332 14.2384 85.1627 13.7455L85.1076 13.5569C84.7799 11.8151 84.4624 10.2604 83.9521 9.6207C83.2974 8.82153 83.9988 8.35536 83.0861 7.16595C82.1541 6.00868 81.6914 5.22868 81.0863 4.00541C80.9193 3.67189 80.6201 3.17881 80.2435 2.61768L80.4258 2.77208C78.9915 1.7212 76.6426 0.928213 75.6457 1.29875C74.3499 1.62986 72.6814 1.73729 71.6748 2.07734C71.3701 2.17899 71.1193 2.24422 70.9197 2.28151C70.8346 2.29762 70.7757 2.2694 70.7514 2.22349C70.7514 2.22346 70.7514 2.22343 70.7514 2.2234C70.7212 2.1663 70.7452 2.08166 70.8365 2.02495C71.2802 1.75173 71.9137 1.30715 72.7118 0.750514C74.2675 -0.194484 74.6285 -0.00498587 77.1088 0.0600778C78.789 0.233212 79.9914 0.577105 81.2949 1.21313L81.6386 1.50429C82.0919 2.02369 82.5503 2.62441 83.0228 3.40627C84.3538 5.77714 86.0268 5.66911 86.902 9.78379C87.1515 11.2689 87.3688 12.1928 87.6757 12.9955L87.6291 12.8362C88.3069 14.1169 89.2428 14.9066 89.949 17.4425C90.7408 20.2102 90.32 23.6916 89.7821 26.0788L89.707 26.3993C89.2668 27.4402 88.9023 28.355 88.6957 29.0514C88.0473 31.2302 87.2964 34.1607 86.3278 37.214C85.3487 40.2721 84.8949 44.2366 83.8666 47.6665C83.8639 47.6754 83.8613 47.6843 83.8586 47.6933L83.8922 47.4142C83.4193 50.9407 83.319 55.8343 83.6524 58.1132C83.9223 60.3945 84.0577 60.974 84.9611 63.0033C85.4917 64.1668 86.1118 65.817 86.4573 67.3074C86.6348 68.0641 86.352 68.0063 85.9272 67.3629C85.3064 66.4179 85.0362 65.5274 84.5489 65.1071C83.5767 64.2559 83.1726 63.8545 82.9949 62.3366C82.8365 60.8306 81.9309 60.3585 81.7964 59.4736C81.7234 58.5816 81.9326 58.5528 81.1359 54.1769C80.6507 51.0011 80.6422 48.8671 80.6017 47.3108L80.6376 47.0127C80.7332 46.4185 80.8163 45.9169 80.8892 45.4681C81.1504 43.8516 82.2609 40.6076 82.7789 37.979C83.262 35.3395 84.9282 30.139 85.41 27.9964C85.7534 26.3934 86.1123 26.0722 86.6134 25.3542L86.5462 25.6408C86.6664 25.3766 86.792 25.071 86.9092 24.6513Z" fill="#213448"/>
<path d="M108.915 33.0428C109.51 32.3229 108.848 31.2532 109.233 30.2755L109.146 30.522C109.168 30.4375 109.197 30.3535 109.234 30.2702C109.699 29.2154 110.387 29.1972 110.513 27.8775C110.629 26.5746 111.2 25.3341 110.968 24.728C110.734 24.1368 111.554 24.113 111.388 23.2631C111.216 22.42 111.308 21.9128 111.544 21.1518C111.697 20.6598 111.791 19.5133 111.726 18.5321L111.727 18.5471C111.691 18.1458 111.428 17.7882 111.194 17.648C110.557 17.2719 110.255 16.3004 109.85 15.8536C109.731 15.7198 109.642 15.594 109.585 15.4888C109.56 15.444 109.565 15.386 109.595 15.3436C109.595 15.3436 109.595 15.3435 109.596 15.3435C109.625 15.2862 109.69 15.2501 109.746 15.2756C110.019 15.4007 110.438 15.5592 111.002 15.7298C112.043 16.1322 111.885 16.4165 112.747 17.7163C112.866 17.9398 112.964 18.1747 113.029 18.4227L113.031 18.4477C113.322 19.4194 113.658 20.1565 113.458 21.4774C113.198 23.0152 114.46 23.4154 113.594 25.6315C112.659 27.7615 113.853 28.1862 113.491 30.4324C113.419 30.8421 113.31 31.2497 113.174 31.6663L113.087 31.9115C112.295 33.5875 111.071 35.2618 110.638 36.2578C110.121 37.4739 109.393 39.1913 108.124 40.6872C106.884 42.1746 105.583 44.2283 103.843 45.4338C103.653 45.5665 103.456 45.7019 103.246 45.8452L103.691 45.1015C102.94 46.8733 102.227 49.0274 102.005 50.1403C101.739 51.3853 101.716 51.7343 102.057 52.9141C102.262 53.5925 102.409 54.545 102.341 55.4433C102.308 55.897 102.06 55.8747 101.831 55.4934C101.496 54.9317 101.473 54.3974 101.119 54.1388C100.416 53.6192 100.131 53.3425 100.343 52.4293C100.569 51.5363 99.8052 51.1702 99.884 50.6339C100.001 50.1108 100.307 50.1186 100.342 47.5524C100.393 46.1484 100.539 45.1346 100.654 44.3438L100.706 44.0061L101.143 43.5274C101.565 43.0596 101.876 42.7099 102.136 42.4046C102.701 41.7492 104.238 40.6994 104.968 39.495C105.738 38.3412 107.248 35.9541 107.524 34.7718C107.817 33.6164 108.267 33.818 108.915 33.0428Z" fill="#213448"/>
<path d="M122.435 185.824C120.753 186.192 119.266 186.647 117.706 187.101L117.645 187.111C115.738 187.556 113.754 188.056 111.241 188.317C106.676 188.792 105.935 188.418 100.738 189.208C100.036 189.315 99.3326 189.414 98.6315 189.507L98.7886 189.474C94.4778 190.758 90.385 191.744 88.4924 192.478C87.0595 193.034 86.3925 193.017 85.219 193.239L84.4266 193.489L84.2367 192.652C84.1677 192.007 84.0531 191.256 83.784 190.122C83.0214 186.883 82.7467 184.865 82.5275 181.941C82.1758 179.04 81.881 170.055 82.2449 166.781C82.3677 163.479 83.615 159.909 84.2914 157.791C84.5004 157.127 84.6871 156.615 84.8434 156.221C84.9097 156.054 84.969 155.985 85.0046 155.995C85.0046 155.995 85.0046 155.995 85.0046 155.995C85.049 156.008 85.0568 156.144 84.9998 156.366C84.7265 157.433 84.3559 159.051 84.092 160.981C83.6739 164.577 83.163 164.904 82.9651 169.777C82.9289 174.656 83.4787 177.525 84.087 183.234C84.5567 187.168 85.2868 188.921 86.0573 192.273L84.6907 191.456C86.1748 190.977 87.9845 190.463 90.4689 189.887C94.1606 189.031 96.2635 188.332 98.2297 187.587L98.3748 187.557C100.764 187.061 102.973 186.476 107.294 185.842C110.449 185.379 113.939 184.969 117.315 184.599L117.239 184.611C122.356 183.828 126.942 182.295 129.378 180.775C132.241 179.126 135.343 176.343 138.644 173.115L138.379 173.496C139.147 171.758 139.844 169.905 139.871 168.145C140.051 165.357 137.316 162.963 134.326 160.967L134.776 161.156C130.679 160.342 126.643 160.287 122.963 161.664C121.387 162.201 119.692 162.971 117.974 163.858L117.287 164.22L116.784 163.674C112.582 158.865 107.445 154.255 104.21 151.895L104.3 151.946C104.128 151.863 103.964 151.785 103.808 151.712C99.3125 149.802 97.9746 148.907 93.3838 149.672C90.7387 150.25 87.8761 152.839 85.7432 155.242C84.6644 156.454 84.7424 156.06 85.6989 154.72C87.1121 152.763 88.6352 151.456 89.5566 150.563C91.4145 148.85 92.7384 148.009 96.0695 148.278C99.3168 148.766 100.837 148.915 102.583 149.586C103.391 149.927 103.769 150.17 104.845 150.701L105.002 150.79C106.04 151.651 107.968 152.909 111.787 156.103C114.498 158.416 116.563 160.483 118.304 162.225L116.961 162.019C120.456 159.99 123.188 158.924 125.455 158.437C127.676 157.864 131.549 158.019 135.216 158.849L135.659 159.035C137.64 160.466 139.751 162.031 141.118 164.238C142.926 166.714 142.192 171.237 140.603 174.485L140.341 174.86C136.959 178.245 133.051 181.486 130.637 182.896C126.41 185.339 126.157 184.882 122.435 185.824Z" fill="#213448"/>
</svg>
