<svg width="999" height="35" viewBox="0 0 999 35" fill="none" xmlns="http://www.w3.org/2000/svg">
<path d="M28.3219 30.5125C36.1933 30.6045 45.9381 30.0144 53.7258 30.3775C53.835 30.3826 53.9441 30.3877 54.0534 30.3928C57.2361 30.5412 60.4793 30.7555 64.4031 31.0146C64.9028 31.0476 65.4151 31.0821 65.9382 31.1165C70.5896 31.4225 76.3034 31.7893 84.0893 32.197C110.233 33.5661 130.847 32.6562 137.259 32.3728C150.118 31.8045 163.836 31.7925 182.554 31.7765C184.266 31.7751 186.02 31.7759 187.819 31.774C189.276 31.7724 190.482 32.2326 190.516 32.8035C190.548 33.3747 189.395 33.8391 187.937 33.8407C186.176 33.8426 184.459 33.8443 182.787 33.8458C182.779 33.8458 182.772 33.8458 182.764 33.8458C163.928 33.8622 150.508 33.8744 137.952 34.4294C131.4 34.7189 110.281 35.6487 83.4912 34.2459C75.6224 33.8338 69.8445 33.4656 65.1649 33.1577C64.6526 33.124 64.1533 33.0904 63.6679 33.0584C63.6565 33.0575 63.645 33.0567 63.6336 33.0558C59.6841 32.7951 56.5776 32.5888 53.5315 32.4467C53.4667 32.4442 53.402 32.4416 53.3372 32.4391C45.4619 32.0719 35.9029 32.6684 28.2686 32.5793C26.8112 32.562 25.6405 32.0848 25.6554 31.514C25.6711 30.9437 26.8653 30.4959 28.3219 30.5125ZM559.838 23.7263C567.438 22.9692 577.548 23.0527 586.476 23.3899C595.465 23.7294 603.601 24.3401 607.43 24.715C611.173 25.0816 615.332 25.2001 620.294 25.2731C621.432 25.2898 622.612 25.3041 623.833 25.319C627.865 25.3681 632.351 25.4233 637.276 25.5866C655.365 26.1865 667.159 26.2119 675.582 26.1574C677.314 26.1462 678.926 26.1308 680.435 26.1166C680.437 26.1166 680.44 26.1166 680.442 26.1166C686.137 26.0631 690.385 26.0239 694.293 26.2593C701.247 26.6785 706.927 27.0499 713.781 27.7756C723.233 28.7763 736.697 28.6575 745.458 27.9693C745.939 27.9315 746.431 27.8914 746.929 27.8521C753.28 27.35 761.101 26.7325 772.828 26.2721C782.571 25.8895 791.062 25.9197 798.578 26.0274C800.732 26.0583 802.788 26.0967 804.761 26.1319C809.741 26.2208 814.199 26.3008 818.398 26.2542C844.438 25.9653 859.455 26.3391 868.893 26.9015C876.152 27.3341 880.207 27.8908 883.132 28.2929C884.016 28.4144 884.797 28.5235 885.532 28.6089C892.087 29.3708 898.105 29.7133 905.344 30.1252C906.95 30.2166 908.622 30.3121 910.368 30.4157C916.209 30.7622 920.562 30.7023 923.975 30.5559C925.468 30.4918 926.781 30.4129 928.02 30.3367C928.043 30.335 928.066 30.3333 928.089 30.3316C928.262 30.321 928.433 30.3114 928.603 30.301C928.731 30.2932 928.86 30.2832 928.988 30.2755C929.038 30.2652 929.084 30.2585 929.117 30.2526C929.144 30.2479 929.165 30.2446 929.178 30.2424C929.181 30.2416 929.183 30.2407 929.186 30.2399C929.429 30.2002 929.638 30.1846 929.681 30.1813C929.756 30.1754 929.822 30.1729 929.856 30.1711C930.036 30.1615 930.267 30.1561 930.42 30.1532C930.815 30.1459 931.501 30.1372 932.561 30.1277C933.484 30.0979 934.37 30.0471 935.479 29.9825C935.549 29.9782 935.619 29.974 935.688 29.9697C936.77 29.9066 938.035 29.8343 939.623 29.7633C941.068 29.6988 942.397 30.1058 942.591 30.6731C942.784 31.2404 941.769 31.7525 940.324 31.8173C938.828 31.8841 937.643 31.9529 936.561 32.0161C936.492 32.0203 936.423 32.0246 936.355 32.0288C935.227 32.0946 934.158 32.1561 933.007 32.1919C932.621 32.2039 932.224 32.2131 931.852 32.2199C931.184 32.2455 930.424 32.2894 929.514 32.3448C929.331 32.3559 929.142 32.3661 928.95 32.3779C927.713 32.454 926.273 32.5427 924.649 32.6124C920.848 32.7755 916.031 32.8367 909.675 32.4595C908.008 32.3606 906.392 32.2688 904.814 32.1792C897.547 31.7664 891.08 31.4002 884.123 30.5915C883.168 30.4806 882.252 30.3538 881.273 30.2195C878.372 29.8214 874.907 29.3452 868.196 28.9453C859.205 28.4096 844.545 28.0337 818.653 28.321C814.246 28.3699 809.491 28.284 804.425 28.1935C802.492 28.159 800.51 28.1257 798.487 28.0967C791.088 27.9906 782.864 27.9618 773.456 28.3311C761.991 28.7813 754.384 29.3808 748.06 29.8805C747.842 29.8984 747.623 29.9162 747.405 29.9341C747.134 29.9555 746.864 29.9768 746.597 29.9978C737.261 30.7313 722.935 30.8766 712.493 29.771C705.94 29.0772 700.505 28.7199 693.588 28.3031C690.186 28.0982 686.552 28.132 680.972 28.1833C679.405 28.1978 677.683 28.2118 675.772 28.2241C667.198 28.2796 655.225 28.2548 636.933 27.6482C632.164 27.49 627.873 27.4372 623.863 27.3883C622.618 27.3731 621.396 27.3574 620.199 27.3398C615.213 27.2665 610.572 27.1468 606.246 26.7231C602.689 26.3749 594.815 25.7792 586.072 25.4489C577.265 25.1164 567.916 25.0664 561.236 25.7318C560.541 25.801 559.84 25.8694 559.14 25.9382C553.114 26.5315 546.969 27.1362 542.022 28.1426C519.847 34.4664 479.684 32.0582 453.19 31.6771C452.842 31.672 452.494 31.6669 452.146 31.6619C421.566 31.2224 399.341 31.2783 391.766 31.2974C391.413 31.2983 391.091 31.2993 390.802 31.3C390.544 31.3006 390.311 31.3022 390.105 31.3025C387.019 31.3078 384.289 31.3812 381.428 31.458C381.271 31.4622 381.115 31.4665 380.959 31.4707C377.936 31.5516 374.763 31.6305 371.013 31.6236C357.068 31.5979 345.701 31.692 335.865 31.7918C334.044 31.8103 332.274 31.8271 330.548 31.8453C330.543 31.8453 330.537 31.8453 330.532 31.8453C322.957 31.9255 316.237 31.9977 309.86 31.9982C298.23 31.9992 290.375 32.13 284.265 32.2709C282.349 32.3151 280.583 32.3602 278.917 32.4034C275.314 32.4969 272.167 32.5787 268.922 32.6073C262.817 32.661 257.199 32.803 251.666 32.9411C251.172 32.9534 250.68 32.9646 250.188 32.9768C244.189 33.1257 238.248 33.2637 231.968 33.2673C230.51 33.2682 229.302 32.8038 229.271 32.2327C229.242 31.662 230.401 31.1989 231.858 31.198C237.958 31.1945 243.753 31.0614 249.75 30.9126C250.244 30.9004 250.741 30.8868 251.239 30.8744C256.759 30.7366 262.48 30.5953 268.697 30.5406C271.826 30.513 274.798 30.436 278.33 30.3443C280.016 30.3006 281.831 30.2533 283.85 30.2067C290.053 30.0637 298.011 29.93 309.753 29.929C316.053 29.9284 322.687 29.8587 330.258 29.7786C331.995 29.7602 333.782 29.7413 335.625 29.7225C345.486 29.6225 356.912 29.5285 370.933 29.5544C374.476 29.5609 377.484 29.487 380.494 29.4066C380.663 29.4023 380.832 29.3981 381.001 29.3938C383.837 29.3177 386.719 29.2389 389.979 29.2333C390.415 29.2325 390.971 29.2324 391.64 29.2307C399.227 29.2115 421.542 29.154 452.234 29.5951C452.329 29.5968 452.424 29.5985 452.52 29.6002C473.085 29.8958 484.687 30.0627 493.423 29.5518C500.318 29.1486 505.471 29.0455 509.7 28.9963C510.507 28.9869 511.27 28.9779 511.997 28.9708C515.141 28.9399 517.624 28.9153 520.107 28.772C527.617 28.3384 533.003 27.6282 539.519 26.3027C545.043 25.1791 551.81 24.5144 557.739 23.9327C557.747 23.9318 557.757 23.931 557.765 23.9301C558.469 23.8611 559.161 23.7936 559.838 23.7263ZM960.544 28.3898C962 28.4068 963.17 28.8821 963.157 29.4524C963.142 30.0232 961.948 30.4733 960.49 30.4565C957.018 30.4157 953.545 30.3749 950.072 30.3342C948.615 30.317 947.446 29.8418 947.459 29.2715C947.474 28.7008 948.668 28.2507 950.125 28.2674C953.598 28.3082 957.071 28.349 960.544 28.3898ZM553.758 13.4385C555.18 13.3228 556.596 13.6845 556.92 14.2438C557.241 14.8027 556.348 15.3489 554.927 15.4645C554.176 15.5256 552.94 15.6363 551.278 15.7856C539.306 16.8609 505.121 19.9318 468.88 20.8288C465.828 20.9043 463.094 20.979 460.489 21.0505C449.345 21.3564 440.4 22.8252 419.086 22.7655C329.467 22.5144 239.918 19.8895 150.443 21.6901C124.6 22.2102 98.8396 22.288 72.9777 22.2533C51.422 22.2244 11.9102 21.1641 2.61328 21.0556C1.1553 21.0386 -0.0147553 20.5613 0.000140665 19.9904C0.0157163 19.4198 1.20929 18.972 2.66661 18.9889C11.8978 19.0967 51.2782 20.1553 72.753 20.184C98.5651 20.2186 124.273 20.1424 150.065 19.6234C239.645 17.8207 329.481 17.9398 419.204 18.1912C440.31 18.2504 448.902 19.2935 460.005 18.9889C462.616 18.9172 465.366 18.8408 468.446 18.7646C504.179 17.8802 537.844 14.8593 549.96 13.7724C551.675 13.6185 552.963 13.5032 553.758 13.4385ZM621.551 14.3024C637.826 14.146 660.96 14.4245 681.177 14.6694C691.037 14.7888 700.203 14.9018 707.541 14.9497C718.91 15.0239 726.068 15.5186 733.166 16.0098C733.242 16.0149 733.318 16.02 733.394 16.0251C740.487 16.5159 747.587 16.999 759.134 17.075C770.776 17.1517 786.885 16.8154 803.134 16.4762C803.147 16.4762 803.16 16.4762 803.172 16.4762C819.335 16.1387 835.729 14.7502 847.577 14.8299C888.862 15.1078 914.318 16.5283 927.19 17.6433C949.705 19.5939 975.242 17.4061 998.244 19.8731C1000.78 20.4195 996.502 21.9924 991.825 21.5398C991.656 21.527 991.487 21.5143 991.319 21.5015C989.71 21.3829 988.303 21.2866 986.321 21.2085C983.449 21.1445 981.312 21.1403 979.361 21.1371C974.244 21.1288 938.717 20.7532 926.146 19.6642C913.931 18.6061 889.008 19.6838 847.459 19.4042C835.831 19.326 819.764 18.2037 803.515 18.5429C803.471 18.5437 803.426 18.5446 803.382 18.5454C787.251 18.8822 770.985 19.2222 759.149 19.1443C747.184 19.0655 739.762 18.5585 732.576 18.0613C732.506 18.0562 732.436 18.0511 732.366 18.046C725.334 17.5593 718.506 17.0879 707.556 17.0164C700.057 16.9675 690.784 16.8564 680.861 16.7361C660.731 16.492 637.919 16.2141 621.784 16.3691C620.327 16.3829 619.094 15.9308 619.029 15.36C618.966 14.7895 620.096 14.3166 621.551 14.3024ZM621.886 1.42046C667.615 -0.87134 713.599 -0.227995 758.692 2.19261C770.461 2.27012 786.885 2.43066 803.287 2.59271C803.472 2.59525 803.657 2.5978 803.843 2.60035C820.067 2.76065 836.22 2.91985 847.817 2.9979C889.101 3.27571 914.653 3.64895 927.525 4.76391C939.527 5.80365 942.859 5.80667 947.798 5.81383C947.932 5.81468 948.067 5.81553 948.202 5.81638C948.211 5.81468 948.219 5.81298 948.228 5.81129C948.398 5.78469 948.54 5.76948 948.613 5.76287C948.762 5.74939 948.884 5.74439 948.929 5.74248C949.034 5.73806 949.123 5.73776 949.154 5.73738C949.282 5.73589 949.429 5.73628 949.524 5.73738C950.403 5.74765 953.158 5.81023 955.34 5.89538C957.577 5.98266 959.171 6.09508 960.852 6.21902C961.022 6.23176 961.193 6.24451 961.363 6.25725C962.878 6.36954 964.527 6.49164 966.901 6.62421C968.348 6.70516 969.376 7.2286 969.198 7.79391C969.019 8.3588 967.704 8.75105 966.258 8.67055C963.759 8.53108 962.005 8.40112 960.483 8.28829C960.314 8.27555 960.145 8.26281 959.976 8.25007C958.367 8.13143 956.958 8.03516 954.975 7.957C952.103 7.8931 949.969 7.8888 948.019 7.88565C942.906 7.8774 939.055 7.87112 926.485 6.78221C914.27 5.72396 889.383 5.34423 847.832 5.06462C836.213 4.98643 820.042 4.82723 803.831 4.66707C803.641 4.66537 803.45 4.66367 803.26 4.66197C786.849 4.49984 770.449 4.33666 758.707 4.25933C712.938 3.95796 668.116 4.99309 622.123 3.48718C613.659 3.56851 605.924 3.60065 598.757 3.62989C577.665 3.71593 561.479 3.78336 546.048 5.03913C542.665 5.31445 533.798 5.54821 520.983 5.83932C517.228 5.92462 513.109 6.01409 508.656 6.11199C497.743 6.352 484.812 6.63572 470.244 6.99627C467.192 7.07181 464.458 7.14646 461.852 7.21798C450.709 7.52388 441.913 7.76698 420.598 7.70726C394.373 7.63379 350.432 7.12039 326.933 6.72615C315.163 6.52869 308.519 6.34571 303.818 6.19354C302.509 6.15117 301.358 6.11012 300.302 6.07377C297.543 5.97878 295.401 5.90599 292.592 5.85716C272.371 5.5056 258.213 5.7478 235.019 6.25215C233.566 6.2836 232.299 5.84616 232.189 5.27613C232.08 4.70601 233.17 4.21731 234.623 4.18543C257.851 3.68034 272.225 3.43409 292.722 3.79044C295.654 3.84141 297.948 3.92058 300.755 4.01724C301.796 4.05308 302.908 4.09173 304.149 4.13192C308.772 4.28156 315.346 4.463 327.055 4.65943C350.512 5.05297 394.389 5.56475 420.533 5.638C441.64 5.69712 450.265 5.46111 461.369 5.15636C463.979 5.0847 466.727 5.00832 469.806 4.9321C484.394 4.57104 497.36 4.28541 508.279 4.04527C512.726 3.94749 516.836 3.85756 520.576 3.7726C533.648 3.47562 541.98 3.24905 544.879 3.01319C560.85 1.71347 577.74 1.64413 599.027 1.55807C606.116 1.52942 613.694 1.49919 621.886 1.42046ZM151.429 5.7909C152.883 5.76175 154.145 6.20168 154.248 6.77202C154.351 7.34224 153.256 7.82836 151.802 7.85762C144.122 8.01219 138.6 8.13971 134.284 8.23987C126.294 8.42526 122.433 8.51566 116.651 8.49981C101.723 8.45886 87.3091 8.4382 74.3414 8.42081C52.7863 8.39189 35.2187 8.36882 25.9221 8.26026C24.4643 8.24312 23.294 7.76588 23.3089 7.19504C23.3252 6.62475 24.5188 6.17677 25.9754 6.19354C35.2066 6.30134 52.642 6.32533 74.1167 6.35409C87.0995 6.37147 101.561 6.38933 116.582 6.43054C122.191 6.44592 125.836 6.36228 133.648 6.1808C137.96 6.08061 143.543 5.94959 151.429 5.7909Z" fill="#213448"/>
</svg>
