<svg width="169" height="336" viewBox="0 0 169 336" fill="none" xmlns="http://www.w3.org/2000/svg">
<path d="M95.7676 334.87C78.7806 333.853 65.2707 334.529 44.6437 332.39C34.1592 331.279 28.3085 330.375 21.8563 329.474L19.5006 329.251L19.8072 326.868C20.8841 320.703 21.9618 314.107 23.4142 302.526C26.3734 279.003 30.0047 255.578 30.9194 245.054C31.8347 234.543 33.1306 233.572 34.6669 218.666C36.191 203.777 37.4024 194.724 39.2905 181.78C39.3466 181.394 39.4055 180.984 39.4671 180.55L39.4638 180.779C38.7067 166.597 34.5614 128.434 32.2751 114.402C29.9831 99.9043 28.5727 83.2717 27.3864 73.2739C27.0197 70.1716 26.7578 67.7014 26.579 65.8197C26.5536 65.5098 26.5195 65.0688 26.5361 64.9536C26.5395 64.9195 26.5429 64.8834 26.5416 64.8123C26.5425 64.7567 26.5473 64.7278 26.554 64.7103C26.5675 64.6772 26.587 64.6827 26.6052 64.6786C26.6052 64.6786 26.6053 64.6786 26.6053 64.6786C26.6785 64.5367 26.8715 65.2514 27.0173 66.2072C27.7628 71.1174 28.9322 78.5108 30.4317 87.2017C33.2106 103.458 32.7843 105.286 35.8206 127.275C38.4659 146.902 40.51 159.527 42.2365 180.536L42.2318 180.871C41.9115 183.436 41.5781 186.019 41.204 188.837C37.7406 214.688 38.8201 220.878 33.2554 257.311C27.9642 291.387 28.6939 297.123 24.9623 327.573L22.3876 324.298C24.5324 324.491 26.7594 324.695 29.0726 324.912C65.5487 328.307 111.88 333.503 133.234 328.99C137.741 328.159 142.459 326.921 147.224 324.997L145.787 327.637C141.877 308.298 136.915 285.11 132.107 260.846C127.958 236.607 119.409 210.006 119.285 179.913C121.04 172.891 122.209 164.388 123.481 156.933C128.106 128.321 133.792 89.3145 136.955 64.6805C136.953 64.9388 137.062 65.1681 137.155 65.2876C137.25 65.4121 137.325 65.4612 137.366 65.4889C137.456 65.5415 137.398 65.5055 137.372 65.4985C137.32 65.4786 137.228 65.4507 137.11 65.4219C136.991 65.3929 136.845 65.3624 136.675 65.332C136.524 65.3047 136.437 65.2898 136.305 65.2689C135.828 65.1915 135.082 65.1071 134.631 65.0599C134.116 65.0058 133.487 64.9507 132.934 64.9064C132.432 64.8653 131.903 64.8262 131.353 64.7889C129.217 64.6444 127.201 64.5452 125.42 64.4627C102.763 63.6275 97.2937 63.6928 75.5076 64.0548C62.9798 64.3171 45.8224 64.3942 31.1487 64.5084C27.465 64.5362 26.2355 64.626 26.4501 64.5071C27.0045 64.1646 29.1708 63.9502 32.8661 63.7166C43.5845 63.0993 52.5089 63.127 58.0543 62.6176C69.1999 61.6282 73.8777 61.2496 87.9369 61.644C101.964 62.0623 108.584 61.0233 116.79 61.256C119.628 61.3418 121.504 61.4806 124.347 61.6528C125.879 61.7439 127.51 61.8376 129.8 61.9743C130.799 62.0371 132.247 62.1243 133.605 62.2337C134.428 62.3004 134.981 62.3474 135.932 62.4559C136.395 62.5113 136.724 62.5542 137.209 62.6381C137.499 62.6895 137.761 62.7445 138.014 62.815C138.078 62.8328 138.141 62.8517 138.204 62.8724C138.236 62.8827 138.268 62.8936 138.3 62.905C138.374 62.9313 138.455 62.9626 138.538 62.9997C138.705 63.077 138.892 63.1656 139.133 63.3814C139.359 63.5826 139.716 64.037 139.715 64.6805C139.062 71.3798 137.957 79.9207 136.462 92.7826C131.544 134.132 128.434 156.62 125.904 172.33C125.444 174.915 125.065 177.798 124.01 181.485C123.359 196.424 129.42 223.891 133.519 244.545C137.765 264.864 145.599 302.261 150.553 326.693L150.971 328.719L149.019 329.512C143.404 331.782 138.257 333.024 134.231 333.822C112.945 337.074 112.814 335.427 95.7676 334.87Z" fill="#213448"/>
<path d="M76.2778 188.257C74.5139 187.856 73.1185 189.616 70.9647 189.36C68.8103 189.104 68.4931 188.167 66.0271 188.367C63.5541 188.566 61.1024 187.911 59.995 188.289C58.8916 188.666 58.7962 187.504 57.2238 187.751C55.6776 187.999 54.7137 187.84 53.3653 187.452C51.989 187.064 47.8303 186.707 46.2908 187.157C44.7724 187.608 43.0378 186.787 41.9954 186.586C41.6691 186.524 41.4112 186.44 41.2133 186.353C41.1295 186.317 41.0912 186.241 41.0919 186.167C41.0919 186.167 41.0919 186.167 41.0919 186.167C41.0928 186.075 41.1541 185.984 41.2623 185.974C41.7877 185.922 42.5694 185.78 43.48 185.453C45.1964 184.845 45.3687 185.536 47.6842 185.236C49.9812 184.934 51.376 184.304 54.0888 184.74C56.8024 185.174 57.4319 183.444 61.2544 184.45C65.0783 185.456 65.4841 183.642 69.2995 183.416C73.1166 183.19 77.9238 184.198 80.2238 184.115C82.5222 184.032 85.6083 183.818 88.8672 184.049C92.1247 184.281 96.1534 183.659 99.7491 184.066C103.345 184.474 108.436 184.977 110.79 185.32C113.157 185.663 113.714 185.74 115.98 185.5C117.277 185.361 119.065 185.465 120.592 185.918C121.365 186.146 121.192 186.476 120.419 186.639C119.288 186.879 118.392 186.734 117.807 187.148C116.645 187.976 116.178 188.294 114.707 187.831C113.235 187.367 112.581 188.454 111.716 188.336C110.861 188.218 110.875 187.582 106.558 188.104C102.234 188.626 99.8828 188.764 98.2342 188.891C96.6029 189.018 93.1803 188.48 90.5124 188.687C87.8458 188.897 82.4213 188.721 80.2351 189.046C78.0477 189.373 78.0452 188.658 76.2778 188.257ZM76.3008 173.71C74.5281 173.34 73.1903 175.135 71.0552 174.956C68.9144 174.784 68.5482 173.861 66.108 174.189C63.6731 174.519 61.1755 174.036 60.108 174.493C59.0518 174.949 58.8389 173.798 57.3141 174.167C55.7826 174.539 54.8332 174.462 53.4429 174.196C52.0533 173.927 47.8509 173.977 46.376 174.588C44.9075 175.194 43.101 174.566 42.0377 174.483C41.7056 174.457 41.4392 174.402 41.2323 174.339C41.1447 174.312 41.0981 174.241 41.0904 174.167C41.0904 174.167 41.0904 174.167 41.0904 174.167C41.0809 174.075 41.1319 173.979 41.2386 173.956C41.7568 173.845 42.5204 173.617 43.3935 173.193C45.0321 172.403 45.2939 173.069 47.5647 172.534C49.8403 172.001 51.1646 171.239 53.9287 171.43C56.6695 171.631 57.1813 169.844 61.0946 170.575C64.9984 171.324 65.3019 169.489 69.152 169.084C73.0013 168.682 77.9004 169.609 80.2169 169.529C82.5384 169.44 85.6696 169.257 88.9562 169.591C92.2379 169.92 96.3251 169.5 99.9263 170.151C103.534 170.793 108.574 171.728 110.901 172.292C113.223 172.853 113.778 172.985 116.067 172.972C117.371 172.965 119.15 173.254 120.622 173.867C121.367 174.176 121.16 174.484 120.373 174.565C119.222 174.683 118.348 174.447 117.717 174.798C116.476 175.503 115.99 175.772 114.564 175.165C113.152 174.559 112.381 175.578 111.54 175.381C110.708 175.187 110.771 174.539 106.432 174.692C102.095 174.855 99.7355 174.845 98.1058 174.868C96.4709 174.89 93.1058 174.168 90.4463 174.282C87.7908 174.379 82.4076 174.116 80.2385 174.461C78.0734 174.796 78.06 174.084 76.3008 173.71Z" fill="#213448"/>
<path d="M52.4827 249.372C52.8643 246.226 51.0827 243.76 51.2919 239.94C51.4982 236.108 52.4267 235.509 52.1517 231.141C51.8751 226.759 52.4304 222.366 52.0063 220.407C51.5825 218.478 52.7404 218.233 52.4217 215.466C52.1024 212.711 52.214 211.013 52.5325 208.584C52.8525 206.136 52.9779 198.692 52.4351 195.983C51.8951 193.295 52.6087 190.177 52.7436 188.309C52.7855 187.725 52.8529 187.262 52.9269 186.905C52.9582 186.754 53.0312 186.682 53.1053 186.68C53.1054 186.68 53.1054 186.68 53.1055 186.68C53.1977 186.677 53.2918 186.782 53.3093 186.975C53.3942 187.908 53.5854 189.294 53.9678 190.901C54.6807 193.921 54.0016 194.277 54.4366 198.377C54.8698 202.472 55.5763 204.907 55.2799 209.774C54.9791 214.612 56.7436 215.693 55.8949 222.537C55.0373 229.38 56.8645 230.064 57.1951 236.871C57.5247 243.667 56.5675 252.285 56.6512 256.382C56.7395 260.484 56.9395 266 56.6526 271.815C56.3679 277.628 56.8776 284.815 56.3316 291.232C55.7906 297.655 55.0364 306.687 54.5633 310.876C54.0915 315.063 53.9821 316.063 54.0883 320.112C54.1494 322.423 53.9354 325.609 53.3855 328.303C53.1084 329.667 52.7908 329.344 52.6763 327.962C52.5088 325.938 52.7089 324.354 52.331 323.287C51.5745 321.183 51.285 320.35 51.8346 317.741C52.383 315.152 51.3339 313.921 51.4989 312.398C51.6615 310.89 52.3067 310.929 51.9987 303.23C51.6855 295.529 51.6316 291.322 51.5642 288.407C51.4971 285.49 52.1401 279.428 51.9842 274.682C51.8376 269.936 52.0581 260.295 51.7195 256.41C51.3859 252.523 52.0987 252.514 52.4827 249.372Z" fill="#213448"/>
<path d="M80.356 249.455C80.5778 246.337 78.6827 243.987 78.7366 240.208C78.7926 236.418 79.6978 235.797 79.2831 231.497C78.8695 227.185 79.323 222.836 78.8579 220.919C78.3939 219.026 79.5453 218.756 79.1771 216.04C78.8099 213.328 78.8969 211.656 79.1836 209.256C79.4679 206.842 79.5254 199.507 78.9706 196.845C78.4145 194.199 79.117 191.125 79.2472 189.285C79.2877 188.71 79.3541 188.253 79.4273 187.902C79.4584 187.753 79.5312 187.683 79.6053 187.68C79.6054 187.68 79.6054 187.68 79.6055 187.68C79.6977 187.677 79.792 187.78 79.8098 187.969C79.8967 188.888 80.0913 190.252 80.4794 191.832C81.2044 194.799 80.5255 195.156 80.9875 199.186C81.4511 203.214 82.1788 205.6 81.9465 210.389C81.7165 215.151 83.4906 216.182 82.7927 222.924C82.1036 229.67 83.9486 230.296 84.5173 236.957C85.0862 243.608 84.5697 252.097 84.9047 256.11C85.2352 260.125 85.7981 265.51 85.9696 271.223C86.1389 276.937 87.2892 283.914 87.3933 290.236C87.4924 296.572 87.7591 305.474 87.7885 309.625C87.8155 313.768 87.8291 314.761 88.4337 318.701C88.7801 320.949 88.9694 324.086 88.7702 326.786C88.6709 328.153 88.3143 327.88 88.0233 326.545C87.5976 324.59 87.596 323.018 87.0867 322.023C86.0723 320.064 85.6806 319.285 85.9052 316.664C86.1329 314.068 84.944 312.987 84.9262 311.478C84.9125 309.983 85.5397 309.947 84.3624 302.442C83.1916 294.934 82.7248 290.8 82.3697 287.948C82.0135 285.087 82.0891 279.07 81.5473 274.415C80.9947 269.758 80.5391 260.246 79.9837 256.435C79.4228 252.624 80.1364 252.569 80.356 249.455Z" fill="#213448"/>
<path d="M107.07 251.487C107.01 248.236 104.901 245.97 104.569 242.059C104.232 238.135 105.067 237.398 104.171 232.996C103.271 228.58 103.186 224.037 102.482 222.106C101.783 220.205 102.894 219.792 102.175 217.026C101.457 214.271 101.32 212.53 101.279 210.016C101.237 207.484 100.264 199.901 99.3242 197.227C98.3915 194.572 98.6345 191.303 98.4897 189.385C98.4443 188.786 98.442 188.305 98.462 187.932C98.4706 187.774 98.5321 187.691 98.6051 187.678C98.6052 187.678 98.6052 187.678 98.6053 187.678C98.6962 187.662 98.8049 187.755 98.8508 187.948C99.074 188.884 99.4696 190.265 100.087 191.843C101.241 194.81 100.622 195.269 101.66 199.373C102.694 203.473 103.753 205.848 104.173 210.837C104.583 215.797 106.49 216.648 106.641 223.727C106.779 230.805 108.687 231.247 109.982 238.128C111.275 244.998 111.525 253.901 112.169 258.061C112.821 262.225 113.77 267.816 114.263 273.777C114.758 279.735 116.21 286.992 116.499 293.601C116.796 300.215 117.198 309.514 117.257 313.842C117.318 318.168 117.335 319.2 117.948 323.314C118.298 325.662 118.484 328.937 118.274 331.75C118.169 333.175 117.814 332.884 117.528 331.49C117.109 329.447 117.11 327.808 116.602 326.767C115.588 324.717 115.196 323.903 115.414 321.177C115.633 318.471 114.437 317.346 114.409 315.774C114.379 314.218 115.027 314.177 113.742 306.372C112.449 298.566 111.849 294.29 111.404 291.33C110.959 288.369 110.803 282.114 110.016 277.304C109.243 272.493 108.157 262.654 107.286 258.748C106.421 254.84 107.125 254.734 107.07 251.487Z" fill="#213448"/>
<path d="M53.4346 126.104C53.1666 128.498 55.0324 130.277 54.9518 133.193C54.8723 136.109 53.9636 136.592 54.3751 139.909C54.787 143.223 54.3586 146.591 54.8356 148.035C55.3138 149.494 54.164 149.728 54.5568 151.804C54.9523 153.916 54.8816 155.153 54.628 157.043C54.37 158.881 54.4306 164.581 55.0337 166.587C55.6373 168.613 54.995 170.998 54.9028 172.427C54.8742 172.873 54.8173 173.228 54.7515 173.502C54.7236 173.618 54.6523 173.676 54.5783 173.681C54.5783 173.681 54.5782 173.681 54.5782 173.681C54.4861 173.688 54.3898 173.613 54.368 173.467C54.2621 172.762 54.0398 171.718 53.6211 170.515C52.8409 168.277 53.5089 167.939 52.9784 164.873C52.4462 161.769 51.681 159.954 51.8529 156.263C52.0277 152.593 50.2383 151.851 50.8924 146.622C51.5499 141.384 49.7046 140.955 49.157 135.815C48.609 130.663 49.2531 124.107 49.0096 121C48.764 117.894 48.3431 113.729 48.3786 109.309C48.413 104.891 47.5755 99.47 47.8117 94.5889C48.0452 89.7074 48.3395 82.8041 48.594 79.612C48.8482 76.4354 48.9043 75.66 48.5836 72.5956C48.4002 70.857 48.4428 68.4251 48.8461 66.3601C49.0488 65.3131 49.3834 65.5402 49.5725 66.5794C49.8491 68.0991 49.7345 69.318 50.1689 70.1025C51.0364 71.6474 51.3702 72.2721 50.9594 74.2741C50.5479 76.2481 51.6605 77.1523 51.5746 78.2997C51.4895 79.4412 50.8476 79.4569 51.5458 85.2676C52.2466 91.0718 52.5009 94.2742 52.707 96.4737C52.9128 98.67 52.5525 103.308 52.9158 106.894C53.2743 110.481 53.4498 117.797 53.9338 120.726C54.4155 123.66 53.7026 123.69 53.4346 126.104Z" fill="#213448"/>
<path d="M80.9493 123.433C80.7107 125.827 82.5846 127.582 82.4845 130.511C82.3763 133.412 81.4625 133.882 81.7968 137.199C82.1266 140.489 81.5646 143.853 81.9777 145.294C82.3909 146.757 81.2335 146.957 81.5228 149.025C81.8103 151.128 81.6704 152.373 81.3058 154.221C80.9457 156.04 80.6276 161.667 81.0773 163.703C81.5323 165.748 80.7076 168.064 80.5021 169.467C80.4381 169.905 80.3529 170.252 80.2653 170.517C80.2281 170.63 80.1524 170.681 80.0783 170.68C80.0782 170.68 80.0782 170.68 80.0781 170.68C79.9858 170.679 79.8959 170.597 79.8859 170.452C79.837 169.747 79.6985 168.699 79.3739 167.48C78.7669 165.205 79.4606 164.933 79.1501 161.86C78.8355 158.764 78.1934 156.928 78.5812 153.291C78.9607 149.683 77.2237 148.849 78.0966 143.732C78.9485 138.603 77.1176 138.095 76.6607 133.042C76.2015 127.981 76.7644 121.536 76.4204 118.481C76.0878 115.431 75.4971 111.364 75.2407 107.025C74.989 102.68 73.683 97.4513 73.3808 92.6498C73.092 87.8404 72.4656 81.0521 72.2508 77.8874C72.0427 74.7364 71.981 73.9695 71.1934 71.0244C70.7433 69.3508 70.4002 66.9713 70.4606 64.8856C70.4894 63.8286 70.8567 63.9946 71.2128 64.9802C71.7334 66.423 71.814 67.6301 72.3675 68.331C73.4687 69.7091 73.896 70.2635 73.7981 72.2976C73.6933 74.3025 74.9245 75.0148 75.0091 76.1617C75.0865 77.3024 74.4785 77.3985 75.955 83.0296C77.4169 88.6635 78.009 91.8165 78.4488 93.9722C78.8914 96.1382 78.9757 100.773 79.5972 104.314C80.2445 107.857 80.7849 115.148 81.3343 118.061C81.8962 120.969 81.1816 121.034 80.9493 123.433Z" fill="#213448"/>
<path d="M107.694 125.57C107.362 127.967 109.172 129.81 108.982 132.733C108.788 135.662 107.861 136.109 108.116 139.44C108.37 142.781 107.751 146.109 108.142 147.607C108.534 149.085 107.373 149.241 107.636 151.359C107.898 153.45 107.746 154.751 107.365 156.581C106.986 158.442 106.637 164.072 107.084 166.148C107.533 168.201 106.707 170.548 106.501 171.958C106.438 172.399 106.353 172.748 106.265 173.016C106.228 173.129 106.152 173.181 106.078 173.18C106.078 173.18 106.078 173.18 106.078 173.18C105.986 173.179 105.896 173.097 105.886 172.951C105.836 172.24 105.698 171.184 105.374 169.955C104.77 167.64 105.463 167.4 105.163 164.276C104.861 161.167 104.228 159.303 104.649 155.626C105.064 151.96 103.332 151.126 104.287 145.955C105.231 140.777 103.411 140.258 103.087 135.121C102.763 129.985 103.578 123.473 103.382 120.376C103.192 117.28 102.814 113.131 102.835 108.731C102.859 104.329 101.942 98.9461 102.047 94.071C102.159 89.2056 102.186 82.3176 102.294 79.1202C102.404 75.9125 102.424 75.1521 101.951 72.1162C101.68 70.3801 101.596 67.9626 101.884 65.8734C102.029 64.8157 102.375 65.024 102.621 66.0527C102.981 67.5592 102.931 68.7768 103.406 69.5372C104.353 71.0428 104.719 71.6479 104.407 73.6677C104.094 75.6825 105.244 76.4954 105.213 77.6682C105.177 78.8277 104.549 78.8529 105.477 84.6449C106.399 90.447 106.727 93.6217 106.988 95.8396C107.249 98.0444 106.974 102.69 107.36 106.291C107.756 109.888 107.888 117.239 108.31 120.187C108.738 123.139 108.023 123.166 107.694 125.57Z" fill="#213448"/>
<path d="M22.0503 115.34C22.4259 117.028 24.5918 117.464 25.2479 119.435C25.9009 121.407 25.183 122.078 26.3601 124.124C27.5392 126.179 27.9185 128.578 28.7002 129.382C29.4798 130.182 28.4598 130.747 29.3034 132.009C30.1355 133.249 30.3675 134.153 30.5382 135.483C30.7211 136.837 32 140.599 33.0008 141.759C33.9964 142.9 33.9067 144.742 34.1197 145.731C34.1867 146.04 34.2081 146.299 34.204 146.506C34.2023 146.593 34.1476 146.657 34.0794 146.686C34.0793 146.686 34.0793 146.686 34.0792 146.686C33.9942 146.722 33.8882 146.705 33.8373 146.614C33.5899 146.177 33.162 145.553 32.5153 144.89C31.3025 143.641 31.8704 143.212 30.7069 141.32C29.5481 139.444 28.437 138.492 27.7807 135.962C27.1205 133.433 25.3012 133.6 24.7102 129.887C24.1071 126.17 22.2992 126.58 20.5565 123.413C18.8127 120.245 17.7247 115.719 16.6764 113.805C15.6342 111.892 14.1295 109.382 12.9169 106.536C11.7055 103.688 9.37378 100.608 8.11091 97.4173C6.85325 94.2242 4.95441 89.751 4.16017 87.6313C3.3618 85.501 3.16826 85.0005 1.90047 83.2439C1.17375 82.2386 0.425528 80.7097 0.0998637 79.2237C-0.0662016 78.4722 0.300796 78.4513 0.807046 79.0087C1.54787 79.825 1.84311 80.6387 2.47803 80.9181C3.74321 81.4708 4.23963 81.7021 4.52453 83.1509C4.80916 84.6003 6.0608 84.6107 6.36162 85.3883C6.65515 86.158 6.09899 86.452 8.54879 89.7982C10.9979 93.1556 12.1825 95.0685 13.0407 96.395C13.892 97.7081 14.9521 100.845 16.3118 103.009C17.6808 105.169 19.8723 109.871 21.088 111.6C22.3098 113.329 21.6696 113.649 22.0503 115.34ZM11.3186 72.0927C10.5638 72.1539 11.2186 73.8657 10.4554 74.1336C9.69001 74.4052 9.02356 73.7376 8.44739 74.4549C7.87364 75.1715 6.7734 75.2334 6.70123 75.7847C6.63264 76.3335 5.86537 75.459 5.58724 76.0169C5.30511 76.5785 4.94569 76.6763 4.31665 76.7033C3.69168 76.7261 2.29909 77.4565 2.16002 78.1744C2.0287 78.8853 1.01949 78.6758 0.602475 78.7733C0.471896 78.8042 0.346617 78.8023 0.236246 78.7838C0.189469 78.7759 0.130487 78.7272 0.0831706 78.6701C0.0831399 78.6701 0.0831091 78.67 0.0830783 78.67C0.0241758 78.5989 -0.0166165 78.5148 0.00660326 78.4804C0.119323 78.3135 0.245109 78.0152 0.288417 77.5445C0.378911 76.6589 0.863301 77.1533 1.31932 76.3601C1.76841 75.573 1.75854 74.7494 2.79653 74.4355C3.83257 74.1251 2.92129 72.626 4.6487 72.5007C6.37397 72.3829 5.36071 70.8691 6.35187 69.797C7.34469 68.7241 9.40687 68.4495 10.0576 67.8838C10.7094 67.3137 11.5429 66.47 12.6927 65.9827C13.8377 65.497 14.7745 64.1627 16.1442 63.8037C17.512 63.442 19.4062 62.9204 20.3355 62.7872C21.2629 62.654 21.4991 62.6092 22.0966 62.0011C22.4511 61.6455 23.0758 61.4199 23.7991 61.5416C24.1636 61.6026 24.2705 61.9189 24.1019 62.1974C23.8561 62.6042 23.4904 62.6401 23.5165 63.0986C23.5586 64.0211 23.5621 64.3824 22.8675 64.2394C22.1617 64.1034 22.4981 65.1622 22.1726 65.2114C21.8448 65.2634 21.5139 64.7119 20.4216 65.9518C19.3342 67.1927 18.6861 67.7547 18.2458 68.1745C17.8123 68.5897 16.4732 68.7965 15.7812 69.5009C15.0897 70.1982 13.3816 71.161 12.9355 71.8888C12.488 72.614 12.0708 72.0354 11.3186 72.0927ZM12.6745 77.9982C11.9768 77.7434 11.8657 79.5721 11.0621 79.4888C10.2571 79.4053 9.95345 78.5135 9.14131 78.8979C8.32547 79.2826 7.34403 78.8299 7.03554 79.2848C6.73388 79.7384 6.46156 78.6079 5.97075 78.9705C5.48479 79.3319 5.12232 79.25 4.57776 78.974C4.02709 78.6993 2.51867 78.6715 2.07858 79.2323C1.64366 79.7921 0.883539 79.1225 0.483977 79.0074C0.359033 78.9717 0.25346 78.9097 0.168038 78.8404C0.131845 78.811 0.103659 78.74 0.089154 78.6673C0.0891446 78.6672 0.0891352 78.6672 0.0891257 78.6671C0.0710875 78.5766 0.0742721 78.4833 0.10948 78.4644C0.280371 78.3726 0.521706 78.1722 0.770977 77.7811C1.24084 77.0509 1.43975 77.7148 2.17718 77.2406C2.912 76.7669 3.26236 76.043 4.28722 76.2604C5.3079 76.4782 5.17961 74.7342 6.69651 75.4289C8.2158 76.1215 7.98831 74.3153 9.24608 73.804C10.5015 73.2932 12.3602 73.9091 13.1279 73.6486C13.8946 73.3896 14.8956 72.9406 16.0574 72.9049C17.2223 72.8692 18.4339 71.9394 19.7574 72.0311C21.0818 72.1251 22.9442 72.1684 23.8409 72.2882C24.7382 72.4085 24.9525 72.4314 25.6581 71.9953C26.0609 71.7452 26.6986 71.6817 27.347 71.9754C27.6749 72.1227 27.7099 72.4541 27.4923 72.6827C27.1735 73.017 26.8266 72.96 26.7415 73.4118C26.5756 74.3133 26.503 74.6616 25.8676 74.3508C25.2358 74.0386 25.3057 75.1436 24.9763 75.1084C24.6497 75.0712 24.4838 74.4594 23.1342 75.3453C21.7798 76.2297 20.9927 76.5647 20.4546 76.8278C19.9163 77.0911 18.5975 76.8573 17.7201 77.278C16.8416 77.7025 14.912 77.9677 14.2231 78.4572C13.5323 78.9488 13.3745 78.2519 12.6745 77.9982Z" fill="#213448"/>
<path d="M69.1606 30.5794C67.7646 29.9811 66.4555 29.9976 64.9776 29.9835L66.8464 29.7071C65.8733 30.7251 64.8581 31.7823 63.3474 32.5897C60.2496 34.2565 59.2831 33.7554 56.0447 36.1352C52.7982 38.5245 49.1609 40.3105 47.9472 41.6786C46.743 43.0404 45.8898 42.2143 44.0369 43.9667C42.1985 45.7262 40.9279 46.5732 38.9982 47.7272C37.0415 48.838 31.8379 53.3283 30.4941 55.4825C29.1136 57.5907 26.632 59.1535 25.3591 60.3247C24.9665 60.6839 24.6294 60.9493 24.3533 61.1399C24.2363 61.2206 24.1378 61.22 24.0815 61.1717C24.0815 61.1717 24.0815 61.1716 24.0814 61.1716C24.0114 61.1114 24.0072 60.9771 24.1139 60.8355C24.631 60.1494 25.35 59.0943 26.1117 57.7448C27.5464 55.2378 28.2475 55.4628 30.6813 52.5176C33.1499 49.5971 34.4085 47.5198 38.1203 44.9055C41.8485 42.3619 41.5994 40.3079 47.3438 37.3739C53.0988 34.5406 52.642 32.6945 57.8253 29.0607C59.7286 27.7392 61.9205 26.4575 64.0965 25.265L65.2795 24.6053L66.3239 24.9356C70.3875 26.2504 74.2068 27.7434 76.535 28.3859C80.2005 29.3923 85.1713 30.7297 90.1743 32.819C95.1842 34.8945 101.634 36.9376 106.811 40.0595C112.02 43.1114 118.921 48.0122 121.923 50.5037C124.936 52.9741 125.647 53.5812 128.801 55.5815C130.607 56.7318 132.92 58.6033 134.605 60.4742C135.467 61.4269 135.038 61.5102 133.937 60.8698C132.346 59.9487 131.214 58.9131 130.215 58.6827C128.202 58.2125 127.381 57.9966 125.727 56.2272C124.065 54.4601 122.523 54.7147 121.452 53.8332C120.37 52.9798 120.79 52.3539 114.57 49.0629C108.323 45.8483 104.834 44.3155 102.414 43.2565C100.004 42.1989 95.1866 39.4529 91.0542 38.1068C86.9868 36.7056 78.6499 33.7845 75.1443 33.1176C71.6368 32.4222 71.8162 31.738 69.1606 30.5794Z" fill="#213448"/>
<path d="M58.3548 48.5044C57.7531 49.1141 59.2726 50.1881 58.7762 50.9999C58.2812 51.8119 57.3436 51.6873 57.2578 52.7667C57.1741 53.8409 56.2774 54.7001 56.5265 55.2519C56.7746 55.8082 55.6382 55.5576 55.7154 56.2705C55.7904 56.9935 55.5438 57.3354 55.0278 57.8172C54.5146 58.2838 53.7498 59.9687 54.0407 60.7168C54.3292 61.4693 53.3671 61.9985 53.0722 62.394C52.9803 62.5173 52.8742 62.6066 52.7713 62.6699C52.7276 62.6967 52.6507 62.6951 52.5787 62.6773C52.5786 62.6772 52.5786 62.6772 52.5785 62.6772C52.4889 62.655 52.4071 62.6077 52.4071 62.5593C52.4069 62.3244 52.3435 61.9597 52.1142 61.4961C51.6869 60.6317 52.3782 60.7098 52.3114 59.6672C52.2482 58.6139 51.776 57.8722 52.476 56.8328C53.1748 55.8051 51.5675 55.0865 52.9538 53.7322C54.3439 52.3805 52.6407 51.7288 52.8694 50.0498C53.1 48.3661 54.6736 46.6322 54.8976 45.6474C55.1198 44.6599 55.3342 43.301 56.018 42.0203C56.6993 40.7429 56.7122 38.8738 57.653 37.5372C58.5909 36.2002 59.8795 34.317 60.5848 33.4927C61.2876 32.6727 61.4531 32.4721 61.6057 31.4728C61.6911 30.9049 62.088 30.2225 62.7646 29.7826C63.106 29.5589 63.3823 29.7505 63.4049 30.1192C63.438 30.6584 63.1534 30.9638 63.4409 31.3514C64.0182 32.1187 64.2371 32.4198 63.563 32.839C62.8923 33.2506 63.7932 33.9206 63.5459 34.216C63.3004 34.5098 62.7005 34.2797 62.5025 36.1931C62.309 38.1032 62.0829 39.1018 61.9566 39.7999C61.8308 40.496 60.8202 41.693 60.6424 42.8388C60.4604 43.981 59.5689 46.1272 59.6051 47.1177C59.6392 48.1061 58.9583 47.8931 58.3548 48.5044Z" fill="#213448"/>
<path d="M65.7216 43.7832C66.0102 43.0041 64.1828 42.6917 64.3031 41.7747C64.4243 40.8608 65.3316 40.5977 64.9817 39.6201C64.6327 38.6461 65.1273 37.5475 64.6856 37.1544C64.2439 36.7621 65.3876 36.5484 65.0462 35.9538C64.704 35.3521 64.8026 34.9487 65.102 34.3408C65.4014 33.7351 65.4932 31.986 64.9511 31.4262C64.4088 30.8671 65.1136 30.0543 65.2467 29.6025C65.2881 29.4614 65.3549 29.3453 65.4282 29.2532C65.4593 29.2141 65.5317 29.1884 65.6052 29.1787C65.6052 29.1787 65.6053 29.1787 65.6053 29.1787C65.6969 29.1667 65.7901 29.1794 65.8075 29.222C65.8919 29.4287 66.0819 29.7275 66.4628 30.0537C67.1734 30.6648 66.5 30.8358 66.9425 31.7309C67.3856 32.6288 68.0961 33.1036 67.8341 34.2662C67.5717 35.4218 69.326 35.4463 68.5648 37.1335C67.8052 38.8228 69.6263 38.7408 70.084 40.2513C70.5417 41.7616 69.8376 43.8553 70.0606 44.7745C70.2828 45.6932 70.6828 46.9091 70.6548 48.2634C70.6268 49.6199 71.4883 51.1445 71.3117 52.6669C71.1341 54.1914 70.9605 56.3368 70.774 57.3524C70.5864 58.3643 70.5475 58.6093 70.9307 59.4878C71.1501 59.9875 71.1641 60.7333 70.8172 61.4315C70.643 61.785 70.308 61.7734 70.0965 61.4889C69.7872 61.0724 69.8718 60.6827 69.4256 60.5162C68.5352 60.1902 68.1923 60.0576 68.5529 59.3748C68.9152 58.7008 67.8008 58.6126 67.8617 58.2448C67.9237 57.8792 68.5506 57.7729 67.7598 56.1039C66.9704 54.4344 66.6849 53.4859 66.4572 52.8415C66.2287 52.1919 66.5458 50.7108 66.1751 49.6552C65.8023 48.5991 65.6411 46.3573 65.1845 45.5135C64.7272 44.6703 65.433 44.5603 65.7216 43.7832Z" fill="#213448"/>
<path d="M83.1805 44.4996C83.3438 45.5318 85.2322 45.2389 85.6307 46.3631C86.0256 47.4806 85.3223 48.1223 86.2001 49.1431C87.0788 50.1648 87.2378 51.6355 87.8769 51.9372C88.5172 52.2407 87.5612 52.9043 88.225 53.4854C88.8891 54.0672 89.03 54.5827 89.0954 55.4064C89.165 56.236 90.0823 58.3356 90.9061 58.7894C91.7318 59.2452 91.5407 60.4723 91.6715 61.0507C91.7136 61.233 91.7181 61.3961 91.7028 61.5332C91.6963 61.5913 91.6435 61.6488 91.5803 61.6876C91.5802 61.6876 91.5802 61.6876 91.5801 61.6877C91.5014 61.7359 91.4067 61.7551 91.3658 61.7107C91.1672 61.4953 90.818 61.2119 90.2801 60.9759C89.2557 60.5016 89.7986 60.0669 88.8703 59.1719C87.9388 58.2722 87.0056 57.9819 86.5854 56.5147C86.166 55.0494 84.5105 55.6735 84.2563 53.3959C84.001 51.1157 82.342 51.8853 81.0509 50.251C79.756 48.6106 79.2481 45.8578 78.5307 44.8376C77.8149 43.8211 76.7644 42.497 76.0544 40.8578C75.345 39.2199 73.6952 37.6509 73.0664 35.772C72.4368 33.8924 71.4688 31.2224 71.1374 29.962C70.7752 28.6502 70.7199 28.3982 69.8847 27.4298C69.4111 26.8838 69.034 26.0174 69.0026 25.0519C68.9879 24.5678 69.3188 24.4834 69.6708 24.7681C70.1848 25.1833 70.3069 25.687 70.8165 25.7426C71.831 25.8472 72.2412 25.9226 72.2407 26.8506C72.2398 27.7779 73.342 27.514 73.4788 27.9859C73.6146 28.4559 73.0558 28.7656 74.6817 30.5265C76.2948 32.2651 77.0708 33.3141 77.625 34.0079C78.1741 34.6933 78.6644 36.5836 79.572 37.7009C80.4792 38.8194 81.8516 41.4388 82.7402 42.2681C83.6349 43.1084 83.029 43.4862 83.1805 44.4996Z" fill="#213448"/>
<path d="M66.2962 4.78884C65.3404 4.70746 65.5307 6.56473 64.7447 6.79446C64.5821 6.8468 64.4287 6.86809 64.2783 6.87484C64.3283 6.59867 64.0734 6.48497 63.8722 6.50535C63.6624 6.52976 63.4585 6.69797 63.4061 7.12077C63.2786 8.15561 62.4951 9.35261 62.8177 9.95518C63.1454 10.5503 61.9787 10.5103 62.1855 11.3585C62.3993 12.1976 62.2371 12.6874 61.8538 13.4199C61.4588 14.1464 61.2094 16.461 61.7419 17.2572C62.2595 18.0452 61.5473 19.0456 61.4258 19.6413C61.3878 19.8283 61.3243 19.9769 61.2537 20.0933C61.2237 20.1425 61.1519 20.1727 61.0784 20.1822C61.0783 20.1822 61.0783 20.1822 61.0782 20.1822C60.9867 20.1941 60.8924 20.1736 60.8735 20.1169C60.7813 19.8402 60.5818 19.4268 60.1985 18.9512C59.4879 18.0509 60.1619 17.8885 59.7651 16.6172C59.3796 15.3426 58.7109 14.5545 59.1399 13.0032C59.5954 11.48 57.8358 11.0091 59.0791 8.82506C59.7217 7.75705 59.6537 7.12207 59.4916 6.35254C59.412 5.56402 58.833 4.76706 60.1639 2.90354C60.3211 2.71311 60.5337 2.49758 60.7694 2.3094C62.871 0.508079 66.1063 0.482765 67.484 0.255829C68.9624 -0.0159059 71.2157 -0.387396 73.5566 1.02949C74.4401 1.59195 75.5071 2.38349 76.1879 3.64931L76.4253 4.57246C76.5637 5.8005 76.7393 7.09984 76.5179 8.33014C76.162 10.3669 75.6145 13.2226 75.2226 14.5151C74.8348 15.819 74.7437 16.1247 74.9248 17.3867C75.0283 18.1109 74.8713 19.1005 74.3697 19.9169C74.117 20.3327 73.7941 20.22 73.6551 19.7891C73.4515 19.1647 73.6238 18.6598 73.2265 18.3278C72.4323 17.6612 72.1283 17.3861 72.6285 16.6008C73.128 15.8129 72.0552 15.4148 72.1899 14.9509C72.3205 14.4937 72.9746 14.5026 72.494 12.1457C72.0018 9.7987 71.8231 8.52919 71.676 7.64154C71.5714 7.02036 71.773 5.90736 71.8071 4.78629L72.0395 5.69018C72.0188 5.56305 71.9288 5.43611 71.7574 5.3718C71.4962 5.26982 70.9433 4.99271 70.182 4.90639C69.437 4.81051 68.608 4.90907 68.1814 5.13804C67.3379 5.61109 67.2069 4.91921 66.2962 4.78884Z" fill="#213448"/>
<path d="M163.606 124.876C163.803 121.063 161.865 118.196 161.727 113.617C161.558 109.035 162.436 108.235 161.55 103.038C160.653 97.8694 160.258 92.5905 159.365 90.3908C158.474 88.2043 159.564 87.6908 158.47 84.5314C157.354 81.3882 156.911 79.4289 156.36 76.5388C155.981 74.4927 154.492 69.6146 152.938 65.9452L153.453 66.3724C151.829 66.0672 150.387 65.8486 149.416 65.7931C146.104 65.6039 142.588 64.0796 140.416 63.4505C139.74 63.2545 139.214 63.0664 138.815 62.9003C138.646 62.8299 138.58 62.74 138.594 62.6673C138.594 62.6672 138.594 62.6672 138.594 62.6671C138.613 62.5766 138.756 62.5128 138.985 62.5465C140.093 62.7105 141.763 62.892 143.766 62.9511C147.501 63.0613 147.76 63.8169 152.701 64.4779C153.079 64.5285 153.446 64.5749 153.804 64.6183L154.409 64.7612L154.596 65.2742C156.528 69.2048 158.092 71.823 159.416 77.1475C160.744 82.8998 162.888 83.776 163.679 92.1993C164.26 100.574 166.137 101.158 167.301 109.444C168.405 117.734 167.863 128.231 168.115 133.198C168.25 135.791 168.417 138.79 168.528 142.122L168.518 143.048L168.045 143.638C167.049 145.098 165.056 146.791 162.909 147.25C160.813 147.753 158.988 147.644 157.218 147.529C157.14 147.523 157.062 147.517 156.983 147.511L155.088 147.356L154.805 145.641C153.637 138.724 151.372 130.434 150.297 122.807C149.205 115.102 147.657 104.207 147.071 99.1619C146.481 94.1085 146.333 92.8828 145.215 88.1201C145.086 87.568 144.957 86.9652 144.832 86.3225L145.007 86.6857C143.412 84.7709 141.377 82.9855 138.675 83.2401C137.057 83.3188 137.275 82.8947 138.96 82.475C141.564 81.8057 143.648 83.4174 144.798 83.992C145.608 84.3849 146.229 84.7627 146.772 85.1608L147.021 85.43L147.125 85.8939C147.68 87.141 147.934 88.2801 148.01 90.4334C148.122 93.6095 149.461 94.8679 149.679 96.6897C149.898 98.5008 149.258 98.6082 151.498 107.657C153.745 116.705 154.866 121.69 155.666 125.125C156.466 128.558 157.368 135.894 158.698 141.488C158.92 142.427 159.159 143.499 159.42 144.712L157.203 142.809C158.628 142.853 160.21 142.875 161.428 142.612C162.641 142.341 163.288 141.862 164.139 140.723L163.656 142.239C163.548 138.669 163.399 135.408 163.187 133.398C162.685 128.715 163.396 128.695 163.606 124.876Z" fill="#213448"/>
</svg>
