<svg width="555" height="339" viewBox="0 0 555 339" fill="none" xmlns="http://www.w3.org/2000/svg">
<path d="M19.0277 57.8974C21.9065 51.9873 25.4794 44.5716 29.2537 39.3671C29.3062 39.2942 29.3575 39.2233 29.4112 39.1489C30.9629 37.0053 32.5965 34.9402 34.679 32.5554C34.9425 32.2548 35.2088 31.9565 35.4871 31.6472C37.9264 28.9714 41.2041 25.4833 45.2672 22.7493C47.4692 21.2141 49.5301 20.8062 48.9822 21.0533C48.7402 21.1427 47.8442 21.0095 47.4372 20.7809C47.0012 20.5625 47.0457 20.5032 47.2954 20.8534C46.7723 20.1453 46.9567 20.2299 47.0796 20.7347C47.231 21.2723 47.3764 22.0096 47.4949 22.9693C47.7117 24.6955 47.789 26.7739 47.795 28.6621C47.803 32.3738 47.6177 35.4666 47.5176 37.2266C46.8499 47.9076 44.7491 59.7367 41.6253 75.975C41.336 77.4758 41.0467 78.9583 40.7415 80.5288C40.4953 81.7959 39.9263 82.7848 39.4724 82.7261C39.0183 82.667 38.8524 81.5819 39.0988 80.3144C39.3973 78.7785 39.6799 77.3195 39.9606 75.8644C39.9619 75.8577 39.9632 75.8511 39.9645 75.8443C43.1094 59.5164 45.1467 47.9544 45.8203 37.6378C45.931 35.8254 46.1273 32.687 46.135 28.9663C46.1379 27.0314 46.0692 24.9854 45.8642 23.2765C45.7588 22.3771 45.6137 21.6334 45.4942 21.209C45.403 20.792 45.2535 20.8737 45.9845 21.8618C45.8332 21.6361 45.9474 21.8773 46.6863 22.2533C47.3881 22.6412 48.6779 22.8168 49.1419 22.6957C50.1402 22.3776 48.1274 22.7191 45.9827 24.2672C42.0608 26.9651 38.8028 30.4608 36.402 33.1286C36.1376 33.4254 35.8787 33.7193 35.6269 34.0096C35.6209 34.0164 35.615 34.0231 35.609 34.0299C33.5612 36.3997 32.0128 38.3785 30.554 40.4038C30.5237 40.4466 30.4934 40.4894 30.4631 40.5323C26.698 45.7485 23.266 52.9735 20.5006 58.6499C19.9667 59.7359 19.2163 60.4558 18.8063 60.254C18.3973 60.0518 18.4883 58.9953 19.0277 57.8974ZM176.487 333.689C183.392 332.734 192.399 331.881 200.419 331.007C208.496 330.145 215.752 329.322 219.184 328.988C222.49 328.67 226.295 328.025 230.591 327.192C231.588 326.999 232.626 326.792 233.702 326.575C237.291 325.851 241.159 325.042 245.513 324.171C261.407 320.973 271.576 318.267 278.846 316.296C280.347 315.886 281.719 315.504 283.017 315.142C283.019 315.141 283.021 315.141 283.023 315.14C287.912 313.773 291.566 312.729 294.966 311.977C301.028 310.634 305.982 309.535 312.006 308.406C320.338 306.846 331.777 303.387 339.114 300.64C339.515 300.49 339.925 300.336 340.339 300.18C345.615 298.201 352.147 295.743 362.027 292.437C370.234 289.691 377.504 287.587 383.852 285.848C385.718 285.336 387.485 284.862 389.167 284.412C393.352 283.294 397.278 282.259 400.779 281.257C422.924 274.905 435.787 272.471 443.857 271.494C445.564 271.286 447.011 271.151 448.264 271.063C451.881 270.79 454.147 270.809 456.037 270.815C456.805 270.82 457.478 270.83 458.108 270.829C463.739 270.821 468.847 270.697 475.003 270.809C476.355 270.836 477.769 270.877 479.26 270.94C484.167 271.153 487.862 271.215 490.74 271.221C491.977 271.223 493.108 271.221 494.157 271.224C494.176 271.223 494.196 271.223 494.215 271.223C494.361 271.224 494.506 271.225 494.65 271.226C494.758 271.226 494.866 271.225 494.974 271.226C495.017 271.221 495.055 271.218 495.084 271.215C495.106 271.213 495.124 271.211 495.135 271.21C495.137 271.21 495.14 271.209 495.142 271.209C495.348 271.19 495.523 271.19 495.559 271.19C495.622 271.189 495.677 271.191 495.706 271.192C495.856 271.194 496.048 271.204 496.176 271.21C496.502 271.228 497.077 271.262 497.982 271.328C498.766 271.368 499.515 271.392 500.441 271.427C500.499 271.429 500.557 271.431 500.616 271.433C501.496 271.466 502.615 271.52 503.94 271.613C505.149 271.698 506.209 272.16 506.323 272.632C506.429 273.104 505.515 273.398 504.334 273.312C503.097 273.222 502.093 273.172 501.175 273.132C501.119 273.13 501.063 273.128 501.006 273.126C500.078 273.088 499.19 273.056 498.222 273.004C497.899 272.987 497.564 272.968 497.249 272.949C496.671 272.924 496.063 272.914 495.302 272.907C495.15 272.906 494.993 272.903 494.833 272.902C493.811 272.897 492.552 272.895 491.226 272.889C488.068 272.876 483.991 272.801 478.698 272.584C477.272 272.528 475.945 272.49 474.615 272.467C468.497 272.363 463.01 272.506 457.096 272.541C456.279 272.547 455.487 272.542 454.637 272.542C453.037 272.538 451.221 272.544 448.521 272.73C447.179 272.815 445.571 272.958 443.547 273.21C435.919 274.154 423.427 276.489 401.432 282.792C397.763 283.842 393.593 284.94 389.335 286.079C387.687 286.521 385.983 286.981 384.231 287.462C377.989 289.172 370.956 291.208 363.025 293.86C353.382 297.086 347.028 299.477 341.762 301.452C341.58 301.52 341.399 301.589 341.217 301.657C340.991 301.742 340.767 301.826 340.544 301.91C332.724 304.838 320.556 308.536 311.345 310.257C305.58 311.335 300.834 312.386 294.8 313.721C291.837 314.375 288.708 315.27 283.911 316.613C282.563 316.99 281.091 317.398 279.438 317.85C272.027 319.859 261.691 322.611 245.583 325.848C241.359 326.69 237.651 327.466 234.073 328.189C232.973 328.411 231.896 328.624 230.843 328.828C226.521 329.666 222.263 330.401 218.439 330.76C215.202 331.072 208.173 331.854 200.291 332.689C192.343 333.547 183.932 334.343 177.861 335.219C177.222 335.312 176.58 335.402 175.941 335.49C170.53 336.243 164.828 336.77 160.052 337.369C156.47 338.091 152.104 338.437 147.538 338.271C126.177 338.083 96.5225 326.782 80.0141 312.134C79.7465 311.913 79.4803 311.691 79.2155 311.468C55.906 291.352 48.2815 270.422 45.0742 264.342C44.9361 264.039 44.811 263.762 44.6991 263.513C44.5992 263.291 44.5084 263.09 44.4294 262.912C43.2596 260.279 42.2121 257.918 41.1731 255.48C41.116 255.346 41.0591 255.212 41.0022 255.078C39.8977 252.466 38.8024 249.75 37.6436 246.487C34.2526 236.893 31.7661 228.682 29.6274 221.474C28.998 219.336 28.4741 217.224 28.0293 215.141C27.6516 213.374 27.336 211.647 27.0619 209.931C27.0611 209.926 27.0603 209.921 27.0596 209.916C25.8955 202.543 25.5441 195.984 25.4786 190.024C25.4209 179.041 25.9543 171.768 26.3035 166.178C26.4241 164.403 26.5441 162.784 26.664 161.271C26.9253 157.986 27.1964 155.086 27.5384 152.164C28.192 146.607 28.808 141.557 29.4679 136.589C29.5267 136.147 29.5869 135.705 29.6466 135.263C30.3774 129.868 31.1659 124.578 32.159 119.012C32.3894 117.721 32.9489 116.721 33.4033 116.775C33.8572 116.831 34.0359 117.919 33.806 119.206C32.8428 124.603 32.071 129.753 31.3396 135.13C31.2794 135.573 31.2204 136.017 31.1609 136.463C30.5022 141.401 29.8702 146.526 29.2044 152.167C28.8743 154.977 28.6177 157.695 28.3574 160.907C28.234 162.438 28.1114 164.073 27.9822 165.942C27.6224 171.597 27.0815 178.913 27.133 189.909C27.1941 195.735 27.5281 202.154 28.6542 209.401C28.9215 211.102 29.234 212.827 29.6033 214.574C30.0483 216.684 30.5802 218.844 31.2202 221.017C33.3468 228.186 35.8197 236.352 39.1783 245.862C40.265 248.924 41.2928 251.488 42.379 254.069C42.4395 254.214 42.5002 254.358 42.5611 254.502C43.5814 256.907 44.6712 259.375 45.8953 262.134C46.0611 262.507 46.2731 262.984 46.5321 263.554C49.7122 269.598 57.2947 290.398 80.3316 310.246C80.4028 310.306 80.4742 310.366 80.5457 310.426C96.2219 323.143 107.187 326.897 115.044 329.488C121.317 331.373 126.074 332.558 129.912 333.473C130.644 333.645 131.342 333.805 132.011 333.955C134.956 334.613 137.127 335.036 139.466 335.365C142.579 335.796 145.201 336.023 147.85 336.146C151.092 336.288 154.487 336.178 157.78 335.78C163.023 335.203 169.271 334.658 174.589 333.947C174.597 333.946 174.605 333.945 174.613 333.944C175.246 333.861 175.873 333.776 176.487 333.689ZM521.505 273.372C522.732 273.651 523.593 274.243 523.48 274.684C523.364 275.127 522.326 275.254 521.11 274.978C518.326 274.342 515.436 273.763 512.578 273.264C511.386 273.056 510.453 272.533 510.532 272.084C510.611 271.634 511.684 271.429 512.888 271.64C515.775 272.144 518.69 272.729 521.505 273.372ZM170.784 325.68C172.033 325.556 173.23 325.798 173.537 326.234C173.834 326.668 173.073 327.14 171.852 327.271C171.235 327.339 170.078 327.462 168.612 327.6C164.641 327.953 157.769 328.584 149.054 327.949C134.825 326.846 115.15 323.67 97.2025 313.519C94.7809 312.15 92.6539 310.832 90.6772 309.519C82.4495 303.725 74.612 299.515 63.3342 283.365C50.1801 263.682 43.1396 241.314 37.0127 219.355C26.1634 160.626 47.5226 105.346 54.5292 49.5541C55.8782 37.862 58.2664 23.2224 54.0909 15.6262C49.7318 8.66818 40.171 15.472 33.7661 22.6894C20.8512 35.8565 5.74963 67.6558 3.9471 75.4598C3.55925 76.6704 2.92242 77.519 2.48591 77.3827C2.05082 77.2453 1.98659 76.1579 2.38101 74.9277C4.22485 67.0301 19.3124 35.1757 32.4125 21.7179C38.7366 14.5296 49.6078 6.15869 55.4035 14.6164C60.2598 23.7353 57.4419 37.6935 56.2144 49.4679C49.1474 105.311 28.9778 161.693 40.1478 218.455C46.4734 240.292 53.634 262.319 66.4241 281.401C77.2048 296.81 83.1657 302.153 91.2697 307.919C93.2068 309.217 95.317 310.536 97.7099 311.899C115.545 322.071 135.224 325.202 149.3 326.274C157.216 326.839 163.698 326.321 167.436 326C168.932 325.868 170.076 325.75 170.784 325.68ZM229.891 318.373C243.95 315.337 263.933 310.65 281.261 306.13C289.733 303.934 297.575 301.82 303.849 300.07C313.564 297.357 319.76 295.951 325.931 294.552C325.997 294.537 326.063 294.522 326.129 294.506C332.266 293.113 338.406 291.7 348.286 288.833C358.223 285.955 371.847 281.613 385.661 277.38C385.672 277.377 385.683 277.373 385.694 277.37C399.427 273.154 413.204 268.294 423.514 265.927C431.992 263.967 439.745 262.463 446.79 261.513C469.948 258.454 485.378 259.923 494.036 261.044C513.678 263.69 536.874 266.456 554.115 277.206C555.688 278.57 552.147 277.973 548.552 276.065C548.43 276.001 548.306 275.937 548.179 275.873C546.933 275.242 545.814 274.706 544.263 274.048C541.927 273.108 540.213 272.52 538.569 271.975C534.575 269.906 504.184 263.309 493.015 262.607C484.881 261.592 469.957 261.315 447.305 264.853C440.42 265.95 432.745 267.548 424.26 269.511C414.227 271.817 400.244 274.641 386.441 278.876C386.403 278.888 386.365 278.899 386.328 278.911C372.629 283.107 358.872 287.49 348.769 290.417C338.536 293.386 332.115 294.862 325.89 296.274C325.83 296.288 325.769 296.301 325.708 296.315C319.588 297.703 313.679 299.041 304.315 301.656C297.899 303.446 289.958 305.589 281.423 307.799C264.15 312.3 244.408 316.924 230.431 319.949C229.171 320.225 228.034 320.089 227.887 319.653C227.741 319.217 228.636 318.647 229.891 318.373ZM228.061 308.227C266.609 298.177 305.563 287.031 344.526 277.53C354.569 274.621 368.598 270.572 382.74 266.663C382.9 266.619 383.06 266.576 383.22 266.532C397.206 262.663 411.245 259.027 421.535 256.668C430.095 254.693 437.983 253.11 445.327 252.04C469.493 248.591 485.8 249.612 494.941 250.776C506.038 252.343 509.092 252.934 513.636 253.574C513.762 253.593 513.887 253.613 514.012 253.633C514.02 253.633 514.029 253.633 514.037 253.633C514.197 253.636 514.331 253.644 514.4 253.65C514.539 253.661 514.652 253.674 514.694 253.679C514.792 253.691 514.873 253.704 514.902 253.708C515.02 253.726 515.155 253.747 515.242 253.762C516.028 253.894 518.598 254.374 520.557 254.819C522.599 255.278 524.042 255.671 525.545 256.099C525.701 256.144 525.856 256.188 526.011 256.233C527.397 256.632 528.832 257.06 530.985 257.709C532.258 258.096 533.094 258.754 532.816 259.148C532.521 259.537 531.292 259.536 530.008 259.152C527.727 258.474 526.264 258.042 524.85 257.642C524.697 257.599 524.554 257.558 524.405 257.516C523.009 257.121 521.678 256.772 519.922 256.378C517.324 255.84 515.381 255.521 513.591 255.243C508.916 254.581 505.445 253.917 493.876 252.333C485.289 251.282 469.535 250.266 445.579 253.675C438.34 254.728 430.493 256.298 421.929 258.273C411.656 260.629 397.625 264.262 383.664 268.125C383.5 268.17 383.336 268.216 383.172 268.261C369.035 272.169 355.029 276.209 345.009 279.111C305.993 290.393 268.177 302.607 228.603 309.802C221.437 311.377 214.829 312.66 208.678 313.725C190.795 316.798 176.87 318.163 164.18 318.998C161.996 319.115 157.045 319.229 150.448 318.453C148.298 318.187 146.046 317.872 143.618 317.477C140.455 316.961 137.071 316.32 133.456 315.488C124.59 313.434 114.241 310.245 103.818 304.569C101.612 303.363 99.7283 302.236 97.9336 301.083C90.5149 296.005 84.2755 291.962 74.0187 277.646C63.6001 263.416 54.0518 236.564 48.6761 216.008C47.5454 211.839 46.9082 207.614 46.5388 204.017C45.6321 194.416 45.9982 188.659 46.1487 184.721C46.2038 183.618 46.2644 182.637 46.324 181.731C46.4838 179.331 46.6278 177.591 46.8154 175.164C48.2936 157.872 49.8968 145.613 52.9636 125.464C53.1604 124.2 53.7015 123.164 54.1673 123.15C54.6332 123.136 54.8489 124.147 54.6523 125.408C51.5798 145.548 49.9423 157.957 48.4587 175.378C48.265 177.89 48.1127 179.753 47.9556 182.173C47.8987 183.056 47.8431 183.994 47.7926 185.03C47.6503 188.876 47.2977 194.519 48.192 203.917C48.5553 207.432 49.179 211.535 50.2667 215.552C55.622 236.042 65.1197 262.69 75.3488 276.659C85.3387 290.614 91.3018 294.502 98.5449 299.502C100.299 300.639 102.163 301.764 104.338 302.962C114.573 308.581 124.781 311.757 133.563 313.809C137.116 314.635 140.474 315.276 143.579 315.788C146.164 316.214 148.489 316.537 150.69 316.809C156.969 317.539 161.405 317.44 163.252 317.359C176.22 316.588 190.649 315.154 208.631 312.052C214.699 310.998 221.141 309.745 228.061 308.227ZM66.966 52.3685C66.7824 53.7119 66.2621 54.7254 65.7952 54.7555C65.3308 54.7688 65.1007 53.7594 65.2788 52.4595C66.2302 45.5193 66.7141 40.4964 66.9831 36.45C67.4012 28.9516 67.4734 25.2643 66.6686 19.0743C66.1839 16.2039 65.5192 12.6106 62.791 8.93376C60.5426 5.92581 56.7285 2.80051 52.0192 1.94939C47.3478 1.07424 43.2728 2.28849 40.1804 3.69567C34.0359 6.63344 30.0697 10.5424 26.4854 14.2623C12.4798 29.814 5.87273 44.5245 2.01883 52.2347C1.4417 53.4475 0.651462 54.2845 0.239617 54.0861C-0.17074 53.8868 -0.0432463 52.7193 0.539446 51.4947C4.41358 43.7575 10.9711 29.0998 25.1253 13.296C28.8015 9.46896 32.8203 5.43488 39.3382 2.26282C42.6114 0.754229 47.0135 -0.627739 52.2042 0.300649C57.4478 1.2051 61.6906 4.68722 64.1029 7.92463C67.0992 11.9679 67.7797 15.7798 68.2922 18.7421C69.119 24.9944 69.0583 28.5659 68.6734 36.0078C68.4243 40.0246 67.9331 45.2721 66.966 52.3685Z" fill="#213448"/>
</svg>
