<svg width="216" height="93" viewBox="0 0 216 93" fill="none" xmlns="http://www.w3.org/2000/svg">
<path d="M203.219 37.9114C199.688 37.5762 197.466 34.9843 193.227 34.3842C188.995 33.7946 188.143 34.7316 183.415 33.5356C178.686 32.343 173.745 32.1789 171.697 31.3517C169.631 30.5215 169.168 31.812 166.192 30.9891C163.185 30.1671 161.34 30.0443 158.584 30.067C155.827 30.0956 147.747 29.2602 144.428 28.9645C144.191 28.9448 144.01 28.931 143.746 28.9451C143.456 28.9646 143.186 29.0035 142.911 29.0894C142.284 29.2751 141.668 29.5002 141.054 29.7488C140.746 29.8746 140.447 30.0008 140.112 30.1603C139.943 30.2422 139.769 30.3268 139.552 30.4637C139.344 30.5958 139.014 30.8367 138.827 31.2359C138.528 32.0433 138.733 32.3062 138.757 32.6255C138.815 32.9259 138.872 33.2093 138.918 33.4695C139.011 34.0086 139.067 34.5067 139.08 34.9409C139.098 35.5666 139.124 36.0882 139.168 36.4708C139.186 36.6393 139.26 36.7321 139.346 36.745C139.346 36.7451 139.346 36.7451 139.346 36.7451C139.452 36.7619 139.577 36.654 139.62 36.4461C139.84 35.4901 140.135 33.7648 140.465 32.1428C140.497 32.0722 140.537 32.0672 140.529 32.1414C140.52 32.2163 140.466 32.2917 140.48 32.3026C140.503 32.3277 140.684 32.2787 140.842 32.2505C141.186 32.1807 141.534 32.0991 141.849 32.005C142.498 31.8127 143.052 31.5747 143.712 31.2919C144.145 31.0812 145.43 30.991 147.148 31.2468C151.555 31.9395 154.145 33.0908 159.471 33.4126C164.83 33.7845 165.666 35.9733 173.275 36.2051C180.893 36.4751 181.272 38.7109 188.558 40.4867C195.24 42.1446 204.575 43.1034 208.281 44.1894C208.578 44.3125 208.841 44.4292 209.081 44.5455C209.478 44.7375 209.877 44.9454 210.176 45.1365C210.473 45.2983 210.679 45.6067 210.404 45.259C210.268 45.0856 210.129 44.5435 210.194 44.2287C210.246 43.908 210.315 43.8518 210.279 43.8844C210.215 43.9658 209.9 44.2822 209.524 44.5753C210.087 44.1482 210.137 44.2393 210.08 44.2297C210.037 44.2378 209.924 44.2592 209.764 44.2808C209.451 44.3221 209.162 44.3466 208.737 44.3748C208.045 44.419 207.153 44.4454 206.361 44.4601C204.656 44.4905 202.947 44.4938 201.098 44.5122C194.725 44.5771 186.938 43.2819 179.86 43.0825C172.794 42.9137 162.779 42.2387 158.188 41.8753C153.588 41.5179 152.391 41.4127 148.162 40.1627C145.78 39.3553 142.159 38.8322 139.861 37.4275C139.374 37.0621 139.37 36.6588 139.187 36.7377C139.001 36.7633 138.842 37.5851 139.513 38.2783C141.287 40.0222 143.309 40.2584 144.184 41.0862C146.159 42.6777 147.067 43.2806 150.055 43.3714C153.049 43.4381 154.155 44.9051 155.829 45.0537C157.542 45.1783 157.615 44.5399 166.022 46.2797C174.453 47.9633 179.124 48.5186 182.349 48.9641C185.582 49.4055 192.369 49.3105 197.676 49.7917C199.346 49.9464 201.636 50.0728 204.073 50.1212C205.299 50.1443 206.579 50.1503 207.893 50.1087C208.236 50.0975 208.562 50.0833 208.872 50.0657C209.178 50.0488 209.603 50.0177 209.932 49.9844C210.108 49.9667 210.256 49.9505 210.443 49.9259C210.667 49.8961 210.882 49.8623 211.094 49.8212C211.2 49.8006 211.305 49.7782 211.412 49.753C211.527 49.7249 211.592 49.7112 211.808 49.6453C212.176 49.5206 212.581 49.3992 213.16 48.938C213.794 48.4007 214.433 47.8884 215.119 46.8413C215.443 46.32 215.836 45.5324 215.847 44.4639C215.867 43.3815 215.361 42.3859 214.934 41.8539C213.17 39.9217 212.277 39.8492 211.49 39.3202C211.152 39.1322 210.855 38.9787 210.574 38.8409C206.566 37.3675 206.573 38.2955 203.219 37.9114Z" fill="#213448"/>
<path d="M158.961 74.4751C156.136 74.523 154.338 72.1257 150.997 71.75C147.641 71.351 146.904 72.3077 143.164 71.1689C141.554 70.6721 139.906 70.3398 138.4 70.0411L140.011 71.5984C139.346 69.7606 138.818 68.1762 138.854 67.1962C138.93 65.4629 137.536 65.5526 137.456 63.1218C137.421 60.7217 137.151 59.3314 136.728 57.2487C136.126 55.1659 137.028 48.5968 138.372 46.4713C139.584 44.3346 139.567 41.4191 139.848 39.7543C139.94 39.2312 139.966 38.8231 139.965 38.4888C139.964 38.3483 139.898 38.263 139.815 38.2378C139.815 38.2378 139.815 38.2378 139.815 38.2378C139.712 38.2065 139.583 38.2681 139.52 38.4282C139.216 39.197 138.678 40.3264 137.86 41.5939C136.345 43.9657 136.969 44.4688 135.598 47.9588C134.309 51.4587 133.055 53.7882 133.558 58.3838C134.245 62.816 132.357 64.2688 134.967 70.1754C135.431 71.1722 135.771 71.9988 136.031 72.7738L136.421 73.8702L137.361 74.0589C141.078 74.854 141.979 76.6385 146.948 77.9782C152.933 79.6135 160.919 79.6326 164.626 80.0431C168.343 80.5121 173.396 81.0399 178.701 80.6821C183.986 80.3489 190.535 80.606 196.244 79.5638C196.825 79.458 197.437 79.3467 198.074 79.2306L198.957 78.9745C205.329 75.2597 206.459 67.261 207.06 64.0994C207.618 60.3111 207.683 59.4084 208.662 55.9073C209.216 53.8917 209.601 51.0473 209.495 48.5759C209.444 47.3221 209.018 47.5334 208.619 48.7037C208.036 50.4193 207.946 51.8799 207.304 52.7048C206.023 54.3321 205.524 55.0109 205.6 57.3785C205.667 59.7551 204.186 60.5189 204.01 61.8223C203.747 63.058 204.827 63.5629 201.831 69.294C200.028 72.3646 198.173 73.6484 196.597 74.297L197.564 74.0164C195.792 74.0893 194.433 74.1499 193.299 74.1875C190.707 74.2804 185.381 75.3317 181.186 75.2109C177.002 75.1789 168.547 75.1069 165.204 74.3185C161.869 73.5881 161.772 74.4007 158.961 74.4751Z" fill="#213448"/>
<path d="M166.302 86.8809C165.257 87.2721 164.635 85.1602 163.399 85.3417C162.162 85.5187 161.876 86.5908 160.51 86.1908C159.894 86.0026 159.171 86.0165 158.772 86.0366C159.047 86.1174 159.253 86.2821 159.343 86.3904C159.431 86.496 159.444 86.551 159.446 86.5598C159.445 86.5781 159.428 86.4638 159.518 86.3566C159.857 85.9395 158.504 86.1725 158.69 85.344C158.896 84.527 158.703 84.0492 158.247 83.3033C157.776 82.5679 157.497 80.139 158.116 79.315C158.719 78.4993 157.881 77.4345 157.729 76.8094C157.683 76.6044 157.604 76.462 157.521 76.3299C157.484 76.2912 157.402 76.2411 157.315 76.2404C157.315 76.2404 157.315 76.2404 157.315 76.2404C157.209 76.2152 157.098 76.2457 157.078 76.301C156.975 76.596 156.751 77.0201 156.308 77.5184C155.488 78.4452 156.274 78.6268 155.81 79.9543C155.36 81.2868 154.567 82.1125 155.086 83.7825C155.355 84.6112 155.009 85.1449 154.789 85.8412C154.641 86.553 154.257 87.3241 155.858 89.0037C156.362 89.478 157.128 90.0004 157.958 90.1039C159.666 90.1085 159.845 91.704 161.781 92.1482C164.019 92.6521 166.928 91.6842 168.272 91.8549C169.618 92.0288 171.428 92.3643 173.388 92.1138C175.38 91.8228 177.615 92.678 180.388 91.5562C180.73 91.4029 181.085 91.2532 181.614 90.8825C183.503 89.2433 183.393 87.8398 183.626 86.6777C183.761 85.5062 183.733 84.5155 183.675 83.8586C183.526 82.3972 183.473 82.0697 183.901 80.7788C184.142 80.039 184.109 78.9625 183.624 78.0427C183.378 77.5763 182.991 77.6707 182.779 78.0893C182.468 78.7082 182.595 79.2434 182.087 79.5265C181.07 80.0766 180.679 80.2897 181.121 81.1627C181.557 82.0483 180.245 82.2228 180.308 82.6903C180.351 83.1337 181.157 83.4028 179.981 85.3674C179.364 86.3935 178.568 86.8727 178.923 86.3962C179.177 86.2063 178.981 86.2672 178.865 86.2467C178.714 86.2447 178.56 86.2403 178.391 86.2345C177.714 86.2141 175.866 86.9507 174.376 86.7054C172.898 86.4815 169.828 86.5709 168.609 86.1111C167.394 85.6568 167.344 86.4869 166.302 86.8809Z" fill="#213448"/>
<path d="M123.136 52.1394C122.587 52.5215 122.544 50.4303 121.919 50.6231C121.294 50.816 121.032 51.8789 120.409 51.5287C119.786 51.1786 119.003 51.8074 118.78 51.3169C118.557 50.8262 118.308 52.1594 117.938 51.794C117.567 51.4286 117.285 51.562 116.848 51.9373C116.411 52.3127 115.225 52.5009 114.903 51.8999C114.581 51.2989 113.963 52.1501 113.647 52.3243C113.548 52.3786 113.464 52.4611 113.395 52.5501C113.366 52.5878 113.342 52.6726 113.328 52.758C113.328 52.7581 113.328 52.7581 113.328 52.7582C113.311 52.8645 113.31 52.9716 113.336 52.9897C113.465 53.0777 113.645 53.2836 113.829 53.7093C114.17 54.503 114.35 53.7166 114.91 54.187C115.469 54.6573 115.721 55.4565 116.528 55.0976C117.335 54.7387 117.177 56.7646 118.391 55.7995C119.604 54.8345 119.373 56.9423 120.353 57.3872C121.333 57.8321 122.816 56.8896 123.419 57.0859C124.021 57.2822 124.812 57.6609 125.734 57.5277C126.655 57.3945 127.624 58.267 128.671 57.9324C129.719 57.5977 131.188 57.1988 131.888 56.8851C132.588 56.5714 132.757 56.5026 133.324 56.8561C133.65 57.0593 134.154 56.9998 134.648 56.528C134.897 56.2905 134.912 55.906 134.735 55.692C134.477 55.3792 134.201 55.5151 134.122 55.0187C133.965 54.0265 133.892 53.6437 133.411 54.1281C132.93 54.6123 132.949 53.3368 132.697 53.443C132.445 53.5492 132.329 54.2845 131.26 53.5295C130.192 52.7744 129.579 52.5264 129.161 52.3189C128.744 52.1115 127.722 52.5996 127.043 52.2528C126.363 51.9061 124.872 51.8798 124.346 51.4075C123.821 50.9352 123.686 51.7573 123.136 52.1394Z" fill="#213448"/>
<path d="M126.654 39.3358C126.1 39.677 126.251 37.5943 125.643 37.7419C125.034 37.8895 124.689 38.928 124.132 38.5358C123.576 38.1436 122.778 38.7135 122.612 38.21C122.447 37.7063 122.089 39.0145 121.772 38.6249C121.456 38.2354 121.177 38.3481 120.729 38.6904C120.282 39.0328 119.143 39.1361 118.894 38.5157C118.645 37.8953 117.983 38.6981 117.668 38.849C117.569 38.896 117.482 38.9721 117.409 39.0557C117.378 39.0912 117.348 39.1738 117.327 39.2577C117.327 39.2578 117.327 39.2578 117.327 39.2579C117.3 39.3624 117.29 39.4689 117.313 39.4888C117.427 39.5853 117.578 39.8028 117.712 40.2391C117.963 41.0525 118.205 40.2832 118.69 40.7905C119.176 41.2977 119.341 42.1103 120.137 41.8104C120.932 41.5106 120.597 43.514 121.833 42.6401C123.068 41.7662 122.656 43.8459 123.541 44.3576C124.427 44.8693 125.915 44.0369 126.467 44.2747C127.018 44.5125 127.731 44.9449 128.614 44.8776C129.497 44.8103 130.333 45.7464 131.354 45.4876C132.375 45.2289 133.8 44.936 134.49 44.6735C135.18 44.4111 135.347 44.3546 135.85 44.7462C136.139 44.9713 136.621 44.9478 137.132 44.5135C137.389 44.295 137.438 43.9136 137.291 43.6884C137.076 43.359 136.802 43.4747 136.773 42.9754C136.716 41.9777 136.682 41.5919 136.183 42.0396C135.684 42.4872 135.819 41.22 135.571 41.3078C135.323 41.3957 135.146 42.1187 134.205 41.2923C133.264 40.4659 132.708 40.176 132.332 39.9402C131.957 39.7043 130.946 40.1175 130.336 39.7247C129.726 39.3319 128.319 39.2004 127.865 38.6935C127.412 38.1866 127.208 38.9946 126.654 39.3358Z" fill="#213448"/>
<path d="M5.59045 8.62042C5.66579 7.70831 5.82256 6.86676 6.07011 6.11147C6.19127 5.74383 6.33937 5.39868 6.48338 5.17214C6.55005 5.06668 6.6283 4.97756 6.64323 4.99616C6.64965 5.00487 6.63425 5.04707 6.57153 5.11926C6.49866 5.19998 6.33422 5.34242 6.06485 5.44547C5.58461 5.5979 5.57199 5.55473 5.58392 5.58125C5.60857 5.59518 5.75288 5.62118 5.80251 5.64203C5.94787 5.68709 6.14898 5.74458 6.39284 5.81412C6.66943 5.88877 6.84896 5.95346 7.05816 6.02435C7.26724 6.09543 7.49483 6.17208 7.74058 6.2539C8.75574 6.58844 9.59003 6.91118 10.6535 7.26719C12.5773 7.93788 14.8385 8.63047 17.3275 9.10771C24.6947 10.5474 26.0748 9.76729 34.3755 12.1022C42.6901 14.4528 51.2353 15.9364 54.8266 17.3585C58.4365 18.7871 59.1637 17.5746 64.361 19.2993C69.536 21.0241 72.7905 21.7447 77.4886 22.6127C82.2042 23.4627 96.4045 27.2306 101.3 29.4062C106.207 31.5401 112.288 32.602 115.624 33.9054C116.218 34.1442 116.615 34.3024 117.003 34.4733C117.245 34.587 117.438 34.6833 117.592 34.7653C117.756 34.8576 117.833 34.8773 118.011 35.0298C118.216 35.2095 118.248 35.2245 118.346 35.2424C118.346 35.2424 118.346 35.2424 118.346 35.2424C118.446 35.2667 118.614 34.9775 118.177 34.5704C116.774 33.3754 114.224 32.2344 111.302 30.7214C105.913 28.0294 105.008 28.5888 97.3625 25.8089C89.7707 23.0963 85.2731 21.0111 75.9759 18.8927C66.668 16.8019 65.0934 14.2542 51.7935 11.9128C38.5091 9.62646 37.6459 7.20393 24.6993 3.73993C21.7126 2.95334 18.7472 2.25837 15.48 1.57502C14.7384 1.42139 13.8843 1.24783 13.0761 1.091C12.282 0.937313 11.5199 0.795812 10.6542 0.641899C10.2438 0.569615 9.85548 0.504118 9.48958 0.445508C9.04382 0.371456 8.58509 0.298964 8.18876 0.24281C7.98818 0.214274 7.79681 0.188595 7.61416 0.165769C7.35072 0.130024 7.09634 0.0987704 6.86201 0.0744364C6.62647 0.0499806 6.40679 0.0315194 6.19032 0.0198486C5.9782 0.0057044 5.76204 -0.00439167 5.50526 0.00197887C5.23513 0.019026 4.9688 -0.00207996 4.31677 0.201566C3.66406 0.419916 3.14646 0.811562 2.84859 1.09889C2.56347 1.37145 2.35238 1.6417 2.17787 1.89965C1.90313 2.30796 1.69178 2.75425 1.5677 3.05649C1.49815 3.22378 1.43437 3.39149 1.37457 3.56083C1.32057 3.71505 1.27515 3.85567 1.22921 4.0053C1.13673 4.30684 1.06003 4.59572 0.995399 4.86301C0.730354 5.96704 0.579567 6.97673 0.457588 7.95043C0.219002 9.90586 0.116913 11.7368 0.0571518 13.4516C-0.055809 16.8774 0.024025 19.853 0.0801849 22.16C0.130272 24.0773 0.2332 26.1455 0.521439 28.3884C0.995132 30.708 0.688316 32.8407 3.33022 36.2426C10.4584 40.2023 15.1577 40.4004 21.5176 42.0507C32.7782 44.5211 46.4383 48.1888 58.9351 50.2109C71.4136 52.2539 89.142 54.8873 97.3839 55.688C100.787 56.0347 103.118 56.2318 105.255 56.4178C105.808 56.466 106.318 56.5087 106.798 56.5478C107.331 56.5921 107.918 56.6386 108.419 56.6726C108.858 56.7033 109.589 56.746 110.114 56.7542C110.262 56.7565 110.344 56.7586 110.544 56.7561C110.736 56.7533 110.916 56.7463 111.084 56.7334C111.253 56.7202 111.403 56.7033 111.563 56.6729C111.858 56.5917 112.189 56.578 112.496 56.075C113.02 55.0612 113.522 53.9437 114.096 52.6473C115.911 48.4363 118.046 42.4221 118.477 37.001C118.553 35.6374 118.33 35.1087 118.188 35.2666C118.037 35.4056 117.881 36.2026 117.544 37.4677C116.514 41.19 115.584 44.2828 114.494 46.0291C112.377 49.2776 111.444 50.8645 110.094 54.874C110.307 54.4683 110.585 54.2813 110.74 54.1945C110.903 54.1073 110.983 54.0971 111.009 54.0955C111.035 54.1033 110.985 54.1297 110.919 54.1521C106.489 54.7184 103.866 52.8683 101.024 52.6636C98.012 52.3404 97.982 53.2369 83.1946 50.0285C68.4554 46.756 60.3533 44.9046 54.7806 43.6254C49.2072 42.3392 37.3594 40.4802 28.3651 38.1213C23.2029 36.7564 12.2586 34.1853 7.34754 32.2253C7.3862 32.2794 7.16108 31.954 7.01541 31.5616C6.86138 31.174 6.71929 30.7028 6.5965 30.2005C6.35759 29.2182 6.19956 28.1891 6.08497 27.1931C5.86087 25.2091 5.81194 23.3946 5.8316 21.992C6.11832 14.6438 5.31719 14.5419 5.59045 8.62042Z" fill="#213448"/>
</svg>
